<svg xmlns="http://www.w3.org/2000/svg" xmlns:xlink="http://www.w3.org/1999/xlink" width="450" zoomAndPan="magnify" viewBox="0 0 337.91998 112.499997" height="150" preserveAspectRatio="xMidYMid meet" version="1.0"><defs><g/><clipPath id="9fee61be39"><path d="M 0.921875 0.230469 L 91.320312 0.230469 L 91.320312 89.792969 L 0.921875 89.792969 Z M 0.921875 0.230469 " clip-rule="nonzero"/></clipPath><clipPath id="70b1472a55"><path d="M 30 24 L 74.601562 24 L 74.601562 77.949219 L 30 77.949219 Z M 30 24 " clip-rule="nonzero"/></clipPath><clipPath id="77c680be61"><path d="M 17.609375 12.089844 L 62 12.089844 L 62 66 L 17.609375 66 Z M 17.609375 12.089844 " clip-rule="nonzero"/></clipPath><clipPath id="7d39e89179"><rect x="0" width="92" y="0" height="90"/></clipPath><clipPath id="40db59afec"><path d="M 192 12 L 221.9375 12 L 221.9375 44 L 192 44 Z M 192 12 " clip-rule="nonzero"/></clipPath><clipPath id="deb5727ad3"><rect x="0" width="222" y="0" height="54"/></clipPath></defs><g transform="matrix(1, 0, 0, 1, 2, 11)"><g clip-path="url(#7d39e89179)"><g clip-path="url(#9fee61be39)"><path fill="#5a84e9" d="M 91.3125 45.449219 C 91.3125 57.125 86.875 68.203125 78.820312 76.644531 L 78.140625 76 L 77.882812 75.753906 L 77.019531 74.929688 C 84.632812 66.953125 88.828125 56.484375 88.828125 45.449219 Z M 46.117188 0.253906 L 46.117188 2.738281 C 57.527344 2.738281 68.253906 7.183594 76.320312 15.25 L 76.988281 14.578125 L 78.078125 13.492188 C 69.542969 4.953125 58.191406 0.253906 46.117188 0.253906 Z M 3.410156 45.449219 L 0.921875 45.449219 C 0.921875 57.636719 5.699219 69.058594 14.375 77.621094 L 15.074219 76.914062 L 15.324219 76.660156 L 16.121094 75.851562 C 7.925781 67.761719 3.410156 56.964844 3.410156 45.449219 Z M 11.421875 18.457031 C 5.425781 26.132812 2.117188 35.675781 2.078125 45.449219 L 2.433594 45.449219 C 2.472656 35.765625 5.746094 26.316406 11.675781 18.707031 C 11.859375 18.472656 12.042969 18.242188 12.230469 18.011719 L 11.953125 17.789062 C 11.773438 18.007812 11.597656 18.230469 11.421875 18.457031 Z M 36.339844 88.292969 C 28.410156 86.46875 21.105469 82.40625 15.324219 76.660156 L 15.074219 76.914062 C 20.902344 82.710938 28.269531 86.800781 36.265625 88.640625 C 36.601562 88.71875 36.9375 88.792969 37.277344 88.859375 L 37.347656 88.511719 C 37.011719 88.441406 36.675781 88.371094 36.339844 88.292969 Z M 22.550781 8.351562 L 22.742188 8.652344 C 23.03125 8.46875 23.320312 8.289062 23.609375 8.117188 C 30.390625 4.023438 38.148438 1.859375 46.117188 1.851562 L 46.117188 1.496094 C 38.09375 1.503906 30.28125 3.679688 23.453125 7.796875 C 23.148438 7.976562 22.851562 8.160156 22.550781 8.351562 Z M 58.191406 87.726562 C 57.824219 87.832031 57.457031 87.929688 57.085938 88.027344 L 57.175781 88.367188 C 57.546875 88.273438 57.910156 88.175781 58.277344 88.066406 C 65.816406 85.914062 72.722656 81.703125 78.140625 76 L 77.882812 75.753906 C 72.511719 81.414062 65.667969 85.585938 58.191406 87.726562 Z M 77.335938 14.421875 C 77.304688 14.390625 77.269531 14.359375 77.238281 14.328125 L 76.988281 14.578125 C 77.019531 14.609375 77.054688 14.640625 77.085938 14.671875 C 85.300781 22.898438 89.847656 33.824219 89.890625 45.449219 L 90.246094 45.449219 C 90.203125 33.726562 85.621094 22.714844 77.335938 14.421875 Z M 12.289062 16.769531 C 11.699219 16.769531 11.222656 17.246094 11.222656 17.832031 C 11.222656 18.417969 11.699219 18.898438 12.289062 18.898438 C 12.875 18.898438 13.351562 18.417969 13.351562 17.832031 C 13.351562 17.246094 12.875 16.769531 12.289062 16.769531 Z M 37.328125 87.628906 C 36.738281 87.628906 36.261719 88.105469 36.261719 88.691406 C 36.261719 89.28125 36.742188 89.757812 37.328125 89.757812 C 37.917969 89.757812 38.390625 89.277344 38.390625 88.691406 C 38.394531 88.101562 37.917969 87.628906 37.328125 87.628906 Z M 57.21875 87.09375 C 56.628906 87.09375 56.152344 87.570312 56.152344 88.15625 C 56.152344 88.746094 56.632812 89.222656 57.21875 89.222656 C 57.808594 89.222656 58.28125 88.742188 58.28125 88.15625 C 58.28125 87.570312 57.808594 87.09375 57.21875 87.09375 Z M 22.585938 7.355469 C 22 7.355469 21.523438 7.832031 21.523438 8.421875 C 21.523438 9.007812 22 9.484375 22.585938 9.484375 C 23.175781 9.484375 23.652344 9.007812 23.652344 8.421875 C 23.652344 7.832031 23.175781 7.355469 22.585938 7.355469 Z M 46.140625 86.117188 C 46.335938 86.117188 46.496094 85.953125 46.496094 85.761719 C 46.496094 85.5625 46.335938 85.40625 46.140625 85.40625 C 45.941406 85.40625 45.785156 85.566406 45.785156 85.761719 C 45.785156 85.957031 45.945312 86.117188 46.140625 86.117188 Z M 44.542969 86.085938 C 44.730469 86.085938 44.890625 85.9375 44.898438 85.746094 C 44.902344 85.550781 44.75 85.382812 44.558594 85.375 C 44.359375 85.371094 44.195312 85.523438 44.1875 85.71875 C 44.179688 85.914062 44.332031 86.078125 44.527344 86.085938 C 44.535156 86.085938 44.539062 86.085938 44.542969 86.085938 Z M 47.738281 86.085938 C 47.742188 86.085938 47.75 86.085938 47.753906 86.085938 C 47.949219 86.074219 48.101562 85.910156 48.09375 85.714844 C 48.085938 85.519531 47.921875 85.363281 47.722656 85.375 C 47.527344 85.378906 47.375 85.546875 47.382812 85.742188 C 47.390625 85.9375 47.546875 86.085938 47.738281 86.085938 Z M 42.949219 85.992188 C 43.132812 85.992188 43.289062 85.851562 43.300781 85.664062 C 43.320312 85.46875 43.171875 85.296875 42.972656 85.28125 C 42.777344 85.265625 42.609375 85.410156 42.59375 85.609375 C 42.574219 85.804688 42.722656 85.972656 42.921875 85.992188 C 42.929688 85.992188 42.9375 85.992188 42.949219 85.992188 Z M 49.332031 85.988281 C 49.34375 85.988281 49.351562 85.988281 49.363281 85.984375 C 49.5625 85.96875 49.703125 85.800781 49.691406 85.605469 C 49.671875 85.40625 49.503906 85.265625 49.304688 85.277344 L 49.308594 85.277344 C 49.113281 85.292969 48.964844 85.464844 48.980469 85.660156 C 48.996094 85.847656 49.148438 85.988281 49.332031 85.988281 Z M 41.355469 85.832031 C 41.535156 85.832031 41.6875 85.699219 41.710938 85.519531 C 41.734375 85.324219 41.59375 85.148438 41.398438 85.125 C 41.203125 85.101562 41.027344 85.238281 41 85.433594 C 40.980469 85.632812 41.117188 85.804688 41.3125 85.828125 C 41.328125 85.832031 41.34375 85.832031 41.355469 85.832031 Z M 50.921875 85.828125 C 50.9375 85.828125 50.949219 85.828125 50.964844 85.824219 C 51.160156 85.800781 51.300781 85.625 51.277344 85.429688 C 51.25 85.234375 51.078125 85.097656 50.878906 85.121094 C 50.683594 85.144531 50.546875 85.320312 50.570312 85.515625 C 50.59375 85.695312 50.746094 85.828125 50.921875 85.828125 Z M 39.773438 85.613281 C 39.949219 85.613281 40.097656 85.488281 40.125 85.3125 C 40.15625 85.121094 40.023438 84.9375 39.832031 84.90625 C 39.636719 84.875 39.457031 85.007812 39.421875 85.199219 C 39.394531 85.394531 39.523438 85.574219 39.71875 85.609375 C 39.738281 85.609375 39.757812 85.613281 39.773438 85.613281 Z M 52.503906 85.605469 C 52.523438 85.605469 52.542969 85.601562 52.5625 85.601562 C 52.757812 85.570312 52.886719 85.386719 52.855469 85.191406 C 52.824219 84.996094 52.640625 84.863281 52.449219 84.898438 C 52.253906 84.929688 52.121094 85.113281 52.15625 85.304688 C 52.183594 85.480469 52.332031 85.605469 52.503906 85.605469 Z M 38.203125 85.328125 C 38.367188 85.328125 38.515625 85.210938 38.550781 85.042969 C 38.589844 84.851562 38.464844 84.664062 38.269531 84.625 C 38.078125 84.585938 37.890625 84.710938 37.851562 84.902344 C 37.8125 85.09375 37.9375 85.28125 38.132812 85.324219 C 38.15625 85.324219 38.179688 85.328125 38.203125 85.328125 Z M 54.078125 85.316406 C 54.101562 85.316406 54.125 85.3125 54.148438 85.308594 C 54.339844 85.269531 54.464844 85.085938 54.425781 84.890625 C 54.386719 84.699219 54.199219 84.578125 54.007812 84.613281 C 53.816406 84.652344 53.691406 84.839844 53.730469 85.03125 C 53.761719 85.203125 53.914062 85.316406 54.078125 85.316406 Z M 36.644531 84.976562 C 36.804688 84.976562 36.949219 84.871094 36.988281 84.707031 C 37.035156 84.515625 36.917969 84.324219 36.726562 84.277344 C 36.535156 84.234375 36.34375 84.347656 36.296875 84.539062 C 36.253906 84.730469 36.367188 84.921875 36.558594 84.96875 C 36.585938 84.972656 36.617188 84.976562 36.644531 84.976562 Z M 55.636719 84.96875 C 55.667969 84.96875 55.695312 84.964844 55.722656 84.957031 C 55.914062 84.910156 56.03125 84.71875 55.980469 84.527344 C 55.9375 84.335938 55.746094 84.21875 55.550781 84.269531 C 55.363281 84.3125 55.246094 84.507812 55.292969 84.699219 C 55.332031 84.859375 55.476562 84.96875 55.636719 84.96875 Z M 35.097656 84.566406 C 35.253906 84.566406 35.394531 84.464844 35.4375 84.3125 C 35.492188 84.125 35.382812 83.925781 35.195312 83.871094 C 35.007812 83.816406 34.808594 83.925781 34.753906 84.117188 C 34.703125 84.304688 34.808594 84.5 34.996094 84.554688 C 35.035156 84.5625 35.066406 84.566406 35.097656 84.566406 Z M 57.183594 84.554688 C 57.214844 84.554688 57.246094 84.550781 57.28125 84.542969 C 57.46875 84.488281 57.578125 84.289062 57.523438 84.101562 C 57.46875 83.914062 57.273438 83.804688 57.085938 83.859375 C 56.898438 83.914062 56.785156 84.113281 56.839844 84.300781 C 56.886719 84.453125 57.027344 84.554688 57.183594 84.554688 Z M 33.570312 84.09375 C 33.71875 84.09375 33.859375 84 33.910156 83.851562 C 33.972656 83.664062 33.871094 83.460938 33.683594 83.402344 C 33.5 83.339844 33.296875 83.441406 33.234375 83.625 C 33.171875 83.8125 33.277344 84.011719 33.460938 84.074219 C 33.496094 84.085938 33.535156 84.09375 33.570312 84.09375 Z M 58.707031 84.082031 C 58.742188 84.082031 58.78125 84.074219 58.820312 84.0625 C 59.003906 84 59.105469 83.796875 59.042969 83.613281 C 58.980469 83.425781 58.78125 83.328125 58.59375 83.390625 C 58.40625 83.453125 58.308594 83.652344 58.371094 83.839844 C 58.421875 83.984375 58.558594 84.082031 58.707031 84.082031 Z M 32.0625 83.554688 C 32.207031 83.554688 32.34375 83.46875 32.394531 83.328125 C 32.464844 83.144531 32.371094 82.9375 32.1875 82.871094 C 32.003906 82.800781 31.800781 82.890625 31.730469 83.074219 C 31.660156 83.261719 31.753906 83.464844 31.9375 83.535156 C 31.980469 83.546875 32.019531 83.554688 32.0625 83.554688 Z M 60.210938 83.542969 C 60.253906 83.542969 60.296875 83.535156 60.335938 83.519531 C 60.519531 83.449219 60.613281 83.242188 60.542969 83.0625 C 60.476562 82.878906 60.269531 82.785156 60.085938 82.855469 C 59.902344 82.921875 59.8125 83.128906 59.878906 83.3125 C 59.933594 83.453125 60.070312 83.542969 60.210938 83.542969 Z M 30.578125 82.960938 C 30.714844 82.960938 30.847656 82.878906 30.902344 82.742188 C 30.980469 82.558594 30.898438 82.355469 30.714844 82.277344 C 30.535156 82.199219 30.328125 82.28125 30.25 82.460938 C 30.171875 82.644531 30.257812 82.851562 30.4375 82.929688 C 30.484375 82.949219 30.53125 82.960938 30.578125 82.960938 Z M 61.691406 82.945312 C 61.738281 82.945312 61.785156 82.9375 61.828125 82.914062 C 62.011719 82.839844 62.09375 82.632812 62.015625 82.449219 C 61.9375 82.269531 61.730469 82.183594 61.550781 82.261719 L 61.550781 82.265625 C 61.367188 82.339844 61.285156 82.550781 61.363281 82.730469 C 61.421875 82.863281 61.550781 82.945312 61.691406 82.945312 Z M 29.113281 82.300781 C 29.246094 82.300781 29.375 82.222656 29.4375 82.097656 C 29.519531 81.917969 29.441406 81.707031 29.265625 81.625 C 29.089844 81.539062 28.878906 81.617188 28.792969 81.792969 C 28.710938 81.96875 28.785156 82.179688 28.960938 82.265625 C 29.011719 82.289062 29.066406 82.300781 29.113281 82.300781 Z M 63.144531 82.289062 C 63.195312 82.292969 63.246094 82.277344 63.296875 82.253906 C 63.472656 82.171875 63.550781 81.960938 63.464844 81.785156 C 63.378906 81.605469 63.167969 81.527344 62.992188 81.613281 C 62.816406 81.699219 62.738281 81.910156 62.824219 82.085938 C 62.882812 82.214844 63.011719 82.289062 63.144531 82.289062 Z M 27.683594 81.582031 C 27.808594 81.582031 27.9375 81.515625 28 81.394531 C 28.089844 81.21875 28.023438 81.003906 27.851562 80.914062 C 27.679688 80.824219 27.464844 80.886719 27.371094 81.0625 C 27.28125 81.234375 27.34375 81.449219 27.519531 81.542969 C 27.570312 81.574219 27.628906 81.582031 27.683594 81.582031 Z M 64.570312 81.578125 C 64.625 81.578125 64.683594 81.5625 64.734375 81.535156 C 64.910156 81.445312 64.976562 81.230469 64.882812 81.054688 C 64.792969 80.882812 64.578125 80.8125 64.402344 80.90625 C 64.230469 80.996094 64.160156 81.210938 64.253906 81.386719 C 64.320312 81.507812 64.441406 81.574219 64.570312 81.578125 Z M 26.28125 80.8125 C 26.40625 80.8125 26.523438 80.746094 26.589844 80.632812 C 26.6875 80.460938 26.632812 80.246094 26.460938 80.148438 C 26.289062 80.050781 26.074219 80.109375 25.976562 80.277344 C 25.878906 80.449219 25.933594 80.664062 26.105469 80.761719 C 26.160156 80.796875 26.222656 80.8125 26.28125 80.8125 Z M 65.96875 80.804688 C 66.027344 80.804688 66.089844 80.789062 66.144531 80.757812 C 66.3125 80.660156 66.371094 80.441406 66.273438 80.273438 C 66.171875 80.101562 65.957031 80.042969 65.789062 80.144531 C 65.617188 80.242188 65.558594 80.457031 65.65625 80.628906 C 65.726562 80.738281 65.84375 80.804688 65.96875 80.804688 Z M 24.914062 79.980469 C 25.03125 79.980469 25.144531 79.925781 25.214844 79.816406 C 25.316406 79.652344 25.269531 79.429688 25.101562 79.328125 C 24.9375 79.222656 24.714844 79.273438 24.613281 79.4375 C 24.507812 79.605469 24.558594 79.824219 24.722656 79.929688 C 24.78125 79.964844 24.847656 79.980469 24.914062 79.980469 Z M 67.332031 79.976562 C 67.394531 79.976562 67.460938 79.960938 67.519531 79.921875 C 67.683594 79.820312 67.734375 79.597656 67.632812 79.433594 C 67.527344 79.265625 67.304688 79.21875 67.140625 79.324219 C 66.976562 79.425781 66.925781 79.644531 67.03125 79.8125 C 67.097656 79.917969 67.214844 79.976562 67.332031 79.976562 Z M 23.578125 79.097656 C 23.691406 79.097656 23.800781 79.046875 23.871094 78.945312 C 23.984375 78.785156 23.945312 78.566406 23.78125 78.453125 C 23.621094 78.339844 23.398438 78.382812 23.285156 78.542969 C 23.175781 78.703125 23.214844 78.925781 23.375 79.035156 C 23.4375 79.082031 23.511719 79.097656 23.578125 79.097656 Z M 68.664062 79.097656 C 68.730469 79.097656 68.800781 79.078125 68.863281 79.035156 C 69.023438 78.921875 69.066406 78.703125 68.953125 78.539062 C 68.839844 78.378906 68.621094 78.335938 68.457031 78.449219 C 68.296875 78.5625 68.253906 78.78125 68.367188 78.941406 C 68.4375 79.042969 68.550781 79.097656 68.664062 79.097656 Z M 22.28125 78.164062 C 22.390625 78.164062 22.496094 78.117188 22.5625 78.023438 C 22.683594 77.867188 22.652344 77.644531 22.496094 77.523438 C 22.335938 77.410156 22.117188 77.441406 22 77.597656 C 21.878906 77.753906 21.910156 77.976562 22.066406 78.09375 C 22.132812 78.140625 22.207031 78.164062 22.28125 78.164062 Z M 69.957031 78.160156 C 70.035156 78.160156 70.105469 78.140625 70.171875 78.089844 C 70.328125 77.972656 70.359375 77.753906 70.242188 77.59375 C 70.125 77.4375 69.902344 77.40625 69.742188 77.523438 C 69.585938 77.640625 69.554688 77.863281 69.675781 78.023438 C 69.742188 78.113281 69.851562 78.160156 69.957031 78.160156 Z M 21.023438 77.179688 C 21.125 77.179688 21.226562 77.132812 21.300781 77.046875 C 21.425781 76.898438 21.402344 76.671875 21.246094 76.546875 L 21.25 76.546875 C 21.097656 76.421875 20.875 76.445312 20.75 76.597656 C 20.621094 76.75 20.648438 76.972656 20.796875 77.097656 C 20.863281 77.152344 20.945312 77.179688 21.023438 77.179688 Z M 71.214844 77.175781 C 71.292969 77.175781 71.375 77.152344 71.4375 77.097656 C 71.589844 76.972656 71.613281 76.75 71.488281 76.597656 C 71.367188 76.445312 71.140625 76.425781 70.988281 76.546875 C 70.835938 76.671875 70.8125 76.894531 70.941406 77.046875 C 71.007812 77.132812 71.113281 77.175781 71.214844 77.175781 Z M 72.429688 76.144531 C 72.515625 76.144531 72.597656 76.113281 72.667969 76.054688 C 72.8125 75.925781 72.828125 75.699219 72.695312 75.550781 C 72.566406 75.402344 72.339844 75.390625 72.195312 75.523438 C 72.046875 75.652344 72.035156 75.878906 72.164062 76.023438 C 72.234375 76.101562 72.332031 76.144531 72.429688 76.144531 Z M 19.804688 76.140625 C 19.902344 76.140625 20 76.097656 20.070312 76.023438 C 20.203125 75.875 20.1875 75.652344 20.042969 75.519531 C 19.894531 75.390625 19.671875 75.402344 19.542969 75.550781 C 19.410156 75.695312 19.425781 75.921875 19.570312 76.050781 C 19.636719 76.113281 19.722656 76.140625 19.804688 76.140625 Z M 73.605469 75.058594 C 73.695312 75.058594 73.78125 75.027344 73.851562 74.960938 C 73.992188 74.824219 73.996094 74.597656 73.859375 74.457031 C 73.722656 74.316406 73.5 74.308594 73.355469 74.445312 C 73.21875 74.582031 73.210938 74.808594 73.347656 74.949219 C 73.417969 75.023438 73.511719 75.058594 73.605469 75.058594 Z M 18.632812 75.058594 C 18.722656 75.058594 18.816406 75.019531 18.886719 74.945312 C 19.023438 74.808594 19.015625 74.582031 18.875 74.445312 C 18.734375 74.308594 18.511719 74.316406 18.371094 74.453125 C 18.238281 74.597656 18.242188 74.820312 18.382812 74.957031 C 18.453125 75.023438 18.542969 75.058594 18.632812 75.058594 Z M 74.734375 73.929688 C 74.828125 73.929688 74.921875 73.894531 74.992188 73.820312 C 74.988281 73.820312 74.988281 73.820312 74.988281 73.820312 C 75.125 73.679688 75.121094 73.453125 74.980469 73.316406 C 74.839844 73.179688 74.617188 73.183594 74.476562 73.328125 C 74.339844 73.46875 74.347656 73.691406 74.488281 73.832031 C 74.558594 73.898438 74.644531 73.929688 74.734375 73.929688 Z M 17.5 73.929688 C 17.589844 73.929688 17.675781 73.894531 17.746094 73.828125 C 17.886719 73.691406 17.890625 73.46875 17.753906 73.324219 C 17.617188 73.183594 17.394531 73.179688 17.253906 73.316406 C 17.113281 73.449219 17.105469 73.679688 17.242188 73.816406 C 17.3125 73.890625 17.40625 73.929688 17.5 73.929688 Z M 75.820312 72.753906 C 75.917969 72.753906 76.015625 72.714844 76.085938 72.636719 C 76.21875 72.488281 76.203125 72.265625 76.058594 72.132812 C 75.910156 72.003906 75.6875 72.019531 75.554688 72.164062 C 75.425781 72.308594 75.441406 72.535156 75.585938 72.664062 C 75.652344 72.726562 75.738281 72.753906 75.820312 72.753906 Z M 16.417969 72.753906 C 16.5 72.753906 16.582031 72.726562 16.648438 72.664062 C 16.796875 72.535156 16.8125 72.308594 16.679688 72.164062 C 16.550781 72.015625 16.328125 72.003906 16.179688 72.136719 C 16.03125 72.265625 16.019531 72.488281 16.148438 72.636719 C 16.222656 72.714844 16.316406 72.753906 16.417969 72.753906 Z M 15.382812 71.539062 C 15.457031 71.539062 15.539062 71.511719 15.605469 71.457031 C 15.757812 71.332031 15.777344 71.109375 15.65625 70.960938 L 15.65625 70.957031 C 15.527344 70.808594 15.304688 70.785156 15.15625 70.90625 C 15.003906 71.03125 14.980469 71.257812 15.105469 71.410156 C 15.175781 71.496094 15.277344 71.539062 15.382812 71.539062 Z M 76.859375 71.539062 C 76.960938 71.539062 77.0625 71.496094 77.132812 71.410156 C 77.257812 71.257812 77.234375 71.03125 77.082031 70.90625 C 76.929688 70.785156 76.707031 70.808594 76.582031 70.957031 C 76.457031 71.109375 76.480469 71.332031 76.632812 71.457031 C 76.695312 71.511719 76.777344 71.539062 76.859375 71.539062 Z M 14.394531 70.285156 C 14.46875 70.285156 14.542969 70.257812 14.605469 70.210938 C 14.765625 70.09375 14.792969 69.871094 14.675781 69.714844 C 14.558594 69.558594 14.335938 69.527344 14.179688 69.644531 C 14.023438 69.761719 13.992188 69.984375 14.109375 70.140625 C 14.179688 70.234375 14.285156 70.285156 14.394531 70.285156 Z M 77.84375 70.277344 C 77.949219 70.277344 78.054688 70.230469 78.128906 70.140625 C 78.242188 69.984375 78.210938 69.757812 78.054688 69.640625 C 77.898438 69.523438 77.675781 69.554688 77.558594 69.710938 C 77.441406 69.867188 77.472656 70.089844 77.628906 70.207031 C 77.695312 70.257812 77.769531 70.277344 77.84375 70.277344 Z M 13.460938 68.988281 C 13.527344 68.988281 13.601562 68.96875 13.660156 68.925781 C 13.820312 68.8125 13.863281 68.589844 13.75 68.433594 C 13.636719 68.269531 13.417969 68.230469 13.257812 68.34375 C 13.097656 68.453125 13.054688 68.675781 13.167969 68.835938 C 13.167969 68.839844 13.167969 68.839844 13.167969 68.839844 C 13.238281 68.933594 13.34375 68.988281 13.460938 68.988281 Z M 78.78125 68.984375 C 78.894531 68.984375 79.003906 68.929688 79.070312 68.832031 C 79.074219 68.832031 79.074219 68.832031 79.074219 68.832031 C 79.183594 68.667969 79.144531 68.445312 78.984375 68.335938 C 78.824219 68.222656 78.597656 68.265625 78.488281 68.425781 L 78.488281 68.421875 C 78.378906 68.585938 78.417969 68.808594 78.578125 68.917969 C 78.640625 68.964844 78.710938 68.984375 78.78125 68.984375 Z M 12.578125 67.65625 C 12.640625 67.65625 12.707031 67.640625 12.765625 67.601562 C 12.933594 67.5 12.980469 67.277344 12.878906 67.113281 C 12.773438 66.949219 12.550781 66.898438 12.386719 67.003906 C 12.222656 67.109375 12.171875 67.328125 12.277344 67.492188 C 12.34375 67.597656 12.460938 67.65625 12.578125 67.65625 Z M 79.664062 67.648438 C 79.78125 67.648438 79.894531 67.59375 79.964844 67.484375 C 79.960938 67.484375 79.960938 67.484375 79.960938 67.484375 C 80.070312 67.320312 80.019531 67.101562 79.855469 66.992188 C 79.6875 66.890625 79.46875 66.9375 79.363281 67.105469 C 79.257812 67.269531 79.308594 67.488281 79.472656 67.59375 C 79.535156 67.632812 79.597656 67.648438 79.664062 67.648438 Z M 11.75 66.292969 C 11.8125 66.292969 11.875 66.273438 11.929688 66.242188 C 12.097656 66.144531 12.15625 65.929688 12.058594 65.757812 C 11.960938 65.589844 11.742188 65.53125 11.574219 65.628906 C 11.402344 65.726562 11.34375 65.945312 11.445312 66.113281 C 11.507812 66.230469 11.628906 66.292969 11.75 66.292969 Z M 80.492188 66.28125 C 80.617188 66.28125 80.738281 66.21875 80.800781 66.105469 C 80.898438 65.933594 80.839844 65.71875 80.671875 65.617188 C 80.5 65.519531 80.285156 65.578125 80.1875 65.75 C 80.085938 65.917969 80.144531 66.136719 80.316406 66.234375 C 80.371094 66.265625 80.433594 66.28125 80.492188 66.28125 Z M 10.976562 64.898438 C 11.03125 64.898438 11.089844 64.886719 11.144531 64.855469 C 11.3125 64.765625 11.382812 64.546875 11.292969 64.375 C 11.203125 64.203125 10.988281 64.136719 10.8125 64.226562 C 10.636719 64.316406 10.570312 64.53125 10.664062 64.707031 C 10.726562 64.828125 10.851562 64.898438 10.976562 64.898438 Z M 81.265625 64.878906 C 81.394531 64.878906 81.519531 64.8125 81.582031 64.691406 C 81.675781 64.515625 81.605469 64.300781 81.433594 64.210938 C 81.261719 64.117188 81.046875 64.1875 80.953125 64.359375 C 80.863281 64.53125 80.929688 64.746094 81.105469 64.839844 C 81.152344 64.867188 81.210938 64.878906 81.265625 64.878906 Z M 10.265625 63.46875 C 10.316406 63.46875 10.367188 63.460938 10.417969 63.4375 C 10.59375 63.351562 10.667969 63.140625 10.585938 62.960938 C 10.5 62.785156 10.289062 62.710938 10.113281 62.792969 C 9.933594 62.878906 9.859375 63.089844 9.941406 63.265625 C 10.003906 63.398438 10.128906 63.46875 10.265625 63.46875 Z M 81.984375 63.445312 C 82.117188 63.445312 82.242188 63.371094 82.304688 63.242188 C 82.304688 63.246094 82.304688 63.246094 82.304688 63.246094 C 82.386719 63.070312 82.3125 62.855469 82.136719 62.773438 C 81.957031 62.6875 81.746094 62.765625 81.660156 62.941406 C 81.578125 63.117188 81.652344 63.328125 81.832031 63.414062 C 81.878906 63.4375 81.933594 63.445312 81.984375 63.445312 Z M 9.605469 62.019531 C 9.65625 62.019531 9.699219 62.011719 9.746094 61.988281 C 9.929688 61.914062 10.011719 61.703125 9.933594 61.523438 C 9.855469 61.34375 9.644531 61.257812 9.46875 61.335938 C 9.285156 61.414062 9.203125 61.621094 9.28125 61.804688 C 9.335938 61.933594 9.46875 62.019531 9.605469 62.019531 Z M 82.640625 61.988281 C 82.777344 61.988281 82.910156 61.90625 82.96875 61.773438 C 83.046875 61.589844 82.960938 61.382812 82.78125 61.308594 C 82.601562 61.230469 82.394531 61.3125 82.316406 61.492188 C 82.238281 61.671875 82.320312 61.882812 82.503906 61.957031 C 82.546875 61.980469 82.59375 61.988281 82.640625 61.988281 Z M 9.007812 60.539062 C 9.050781 60.539062 9.09375 60.535156 9.136719 60.519531 C 9.320312 60.445312 9.414062 60.242188 9.339844 60.058594 C 9.273438 59.875 9.066406 59.78125 8.882812 59.855469 C 8.699219 59.921875 8.609375 60.128906 8.679688 60.3125 C 8.730469 60.453125 8.867188 60.539062 9.007812 60.539062 Z M 83.242188 60.503906 C 83.382812 60.503906 83.519531 60.414062 83.574219 60.273438 C 83.644531 60.089844 83.550781 59.886719 83.363281 59.816406 C 83.179688 59.746094 82.976562 59.835938 82.90625 60.023438 C 82.835938 60.207031 82.929688 60.410156 83.113281 60.480469 C 83.15625 60.496094 83.199219 60.503906 83.242188 60.503906 Z M 8.472656 59.035156 C 8.507812 59.035156 8.546875 59.027344 8.582031 59.015625 C 8.769531 58.953125 8.871094 58.75 8.808594 58.566406 C 8.746094 58.378906 8.542969 58.277344 8.359375 58.34375 C 8.171875 58.40625 8.074219 58.605469 8.136719 58.792969 C 8.183594 58.941406 8.324219 59.035156 8.472656 59.035156 Z M 83.777344 58.992188 C 83.925781 58.992188 84.066406 58.898438 84.117188 58.75 C 84.179688 58.5625 84.078125 58.363281 83.894531 58.300781 C 83.707031 58.238281 83.503906 58.339844 83.445312 58.523438 C 83.382812 58.710938 83.480469 58.910156 83.667969 58.972656 C 83.703125 58.984375 83.742188 58.992188 83.777344 58.992188 Z M 7.996094 57.507812 C 8.027344 57.507812 8.058594 57.503906 8.09375 57.496094 C 8.285156 57.441406 8.390625 57.246094 8.335938 57.054688 C 8.285156 56.867188 8.085938 56.757812 7.898438 56.8125 C 7.710938 56.867188 7.601562 57.066406 7.65625 57.253906 C 7.699219 57.40625 7.839844 57.507812 7.996094 57.507812 Z M 84.253906 57.464844 C 84.410156 57.464844 84.550781 57.363281 84.59375 57.207031 C 84.648438 57.019531 84.539062 56.824219 84.351562 56.769531 C 84.164062 56.714844 83.964844 56.824219 83.910156 57.011719 C 83.859375 57.199219 83.964844 57.398438 84.152344 57.449219 C 84.1875 57.464844 84.222656 57.464844 84.253906 57.464844 Z M 7.582031 55.964844 C 7.609375 55.964844 7.636719 55.960938 7.667969 55.953125 C 7.855469 55.910156 7.972656 55.714844 7.925781 55.523438 C 7.878906 55.335938 7.6875 55.21875 7.496094 55.265625 C 7.304688 55.3125 7.1875 55.503906 7.238281 55.695312 C 7.277344 55.855469 7.421875 55.964844 7.582031 55.964844 Z M 84.664062 55.921875 C 84.828125 55.921875 84.96875 55.8125 85.011719 55.652344 C 85.058594 55.460938 84.941406 55.269531 84.75 55.222656 C 84.5625 55.175781 84.367188 55.292969 84.320312 55.484375 C 84.273438 55.671875 84.390625 55.867188 84.578125 55.914062 C 84.609375 55.917969 84.636719 55.921875 84.664062 55.921875 Z M 7.230469 54.40625 C 7.253906 54.40625 7.277344 54.402344 7.300781 54.398438 C 7.492188 54.359375 7.617188 54.171875 7.578125 53.980469 C 7.539062 53.789062 7.351562 53.664062 7.160156 53.703125 C 6.96875 53.742188 6.84375 53.929688 6.882812 54.121094 C 6.914062 54.289062 7.066406 54.40625 7.230469 54.40625 Z M 85.015625 54.363281 C 85.179688 54.363281 85.332031 54.25 85.363281 54.078125 C 85.40625 53.886719 85.277344 53.699219 85.085938 53.660156 C 84.894531 53.621094 84.707031 53.746094 84.667969 53.9375 C 84.628906 54.128906 84.753906 54.316406 84.945312 54.355469 C 84.96875 54.363281 84.992188 54.363281 85.015625 54.363281 Z M 6.941406 52.835938 C 6.960938 52.835938 6.980469 52.832031 7 52.828125 C 7.195312 52.800781 7.324219 52.617188 7.292969 52.421875 C 7.261719 52.226562 7.078125 52.097656 6.882812 52.128906 C 6.691406 52.160156 6.558594 52.34375 6.589844 52.535156 C 6.621094 52.710938 6.769531 52.835938 6.941406 52.835938 Z M 85.300781 52.792969 C 85.472656 52.792969 85.625 52.667969 85.652344 52.492188 C 85.683594 52.296875 85.550781 52.113281 85.359375 52.082031 C 85.164062 52.054688 84.984375 52.183594 84.953125 52.378906 C 84.921875 52.574219 85.050781 52.75 85.242188 52.785156 C 85.265625 52.789062 85.285156 52.792969 85.300781 52.792969 Z M 6.71875 51.253906 C 6.730469 51.253906 6.746094 51.253906 6.761719 51.25 C 6.957031 51.226562 7.09375 51.050781 7.070312 50.855469 C 7.046875 50.660156 6.871094 50.519531 6.675781 50.546875 C 6.480469 50.566406 6.339844 50.746094 6.363281 50.941406 C 6.386719 51.121094 6.542969 51.253906 6.71875 51.253906 Z M 85.527344 51.207031 C 85.703125 51.207031 85.855469 51.074219 85.875 50.894531 C 85.898438 50.699219 85.761719 50.523438 85.566406 50.5 C 85.371094 50.472656 85.195312 50.613281 85.171875 50.808594 C 85.148438 51.003906 85.285156 51.183594 85.480469 51.203125 C 85.496094 51.207031 85.511719 51.207031 85.527344 51.207031 Z M 6.558594 49.664062 C 6.566406 49.664062 6.574219 49.664062 6.585938 49.660156 C 6.78125 49.644531 6.925781 49.472656 6.910156 49.277344 C 6.894531 49.082031 6.722656 48.9375 6.527344 48.949219 C 6.332031 48.96875 6.1875 49.136719 6.203125 49.335938 C 6.21875 49.523438 6.375 49.664062 6.558594 49.664062 Z M 85.683594 49.617188 C 85.867188 49.617188 86.019531 49.480469 86.035156 49.289062 C 86.050781 49.09375 85.90625 48.921875 85.710938 48.910156 C 85.511719 48.890625 85.34375 49.039062 85.324219 49.234375 C 85.3125 49.429688 85.457031 49.601562 85.652344 49.617188 C 85.664062 49.617188 85.671875 49.617188 85.683594 49.617188 Z M 6.457031 48.066406 C 6.464844 48.066406 6.46875 48.066406 6.476562 48.066406 C 6.671875 48.058594 6.824219 47.890625 6.816406 47.699219 C 6.808594 47.5 6.640625 47.347656 6.445312 47.359375 C 6.25 47.363281 6.09375 47.53125 6.105469 47.726562 C 6.113281 47.917969 6.269531 48.066406 6.457031 48.066406 Z M 85.777344 48.023438 C 85.964844 48.023438 86.125 47.875 86.132812 47.683594 C 86.136719 47.488281 85.988281 47.320312 85.789062 47.3125 C 85.59375 47.308594 85.429688 47.457031 85.421875 47.652344 C 85.414062 47.851562 85.566406 48.015625 85.761719 48.023438 C 85.769531 48.023438 85.773438 48.023438 85.777344 48.023438 Z M 6.425781 46.46875 C 6.625 46.46875 6.78125 46.308594 6.78125 46.117188 C 6.78125 45.917969 6.621094 45.761719 6.425781 45.761719 C 6.230469 45.761719 6.074219 45.921875 6.074219 46.117188 C 6.074219 46.3125 6.234375 46.46875 6.425781 46.46875 Z M 85.808594 46.425781 C 86.003906 46.425781 86.164062 46.265625 86.164062 46.070312 C 86.164062 46.054688 86.164062 46.042969 86.160156 46.027344 C 86.164062 46.011719 86.164062 45.996094 86.164062 45.984375 C 86.164062 45.789062 86.003906 45.628906 85.808594 45.632812 C 85.613281 45.632812 85.453125 45.789062 85.453125 45.984375 C 85.453125 46.003906 85.457031 46.015625 85.457031 46.03125 C 85.457031 46.042969 85.453125 46.058594 85.453125 46.070312 C 85.453125 46.265625 85.613281 46.425781 85.808594 46.425781 Z M 6.457031 44.871094 C 6.648438 44.871094 6.808594 44.722656 6.8125 44.53125 C 6.820312 44.335938 6.667969 44.167969 6.472656 44.160156 C 6.277344 44.15625 6.109375 44.308594 6.105469 44.5 C 6.097656 44.699219 6.25 44.863281 6.445312 44.871094 C 6.449219 44.871094 6.453125 44.871094 6.457031 44.871094 Z M 85.773438 44.738281 C 85.78125 44.738281 85.785156 44.738281 85.789062 44.738281 C 85.988281 44.730469 86.140625 44.566406 86.128906 44.371094 C 86.121094 44.175781 85.957031 44.019531 85.757812 44.03125 C 85.5625 44.039062 85.410156 44.203125 85.417969 44.398438 C 85.425781 44.589844 85.585938 44.738281 85.773438 44.738281 Z M 6.550781 43.277344 C 6.734375 43.277344 6.890625 43.132812 6.90625 42.949219 C 6.921875 42.753906 6.773438 42.582031 6.578125 42.566406 C 6.382812 42.550781 6.210938 42.695312 6.195312 42.890625 C 6.179688 43.089844 6.328125 43.257812 6.523438 43.273438 C 6.53125 43.277344 6.542969 43.277344 6.550781 43.277344 Z M 85.671875 43.144531 C 85.683594 43.144531 85.691406 43.144531 85.703125 43.144531 C 85.898438 43.125 86.042969 42.953125 86.027344 42.757812 C 86.011719 42.5625 85.84375 42.417969 85.644531 42.433594 C 85.449219 42.449219 85.304688 42.621094 85.320312 42.816406 C 85.335938 43.003906 85.492188 43.144531 85.671875 43.144531 Z M 6.710938 41.6875 C 6.886719 41.6875 7.039062 41.554688 7.058594 41.371094 C 7.082031 41.175781 6.945312 41 6.75 40.976562 C 6.554688 40.953125 6.378906 41.09375 6.355469 41.289062 C 6.332031 41.484375 6.46875 41.660156 6.664062 41.683594 C 6.679688 41.6875 6.695312 41.6875 6.710938 41.6875 Z M 85.511719 41.554688 C 85.527344 41.554688 85.542969 41.554688 85.558594 41.550781 C 85.75 41.527344 85.890625 41.351562 85.867188 41.15625 C 85.84375 40.960938 85.664062 40.824219 85.46875 40.847656 C 85.273438 40.871094 85.136719 41.046875 85.160156 41.242188 C 85.183594 41.421875 85.335938 41.554688 85.511719 41.554688 Z M 6.929688 40.101562 C 7.101562 40.101562 7.25 39.976562 7.277344 39.804688 C 7.308594 39.609375 7.179688 39.429688 6.984375 39.398438 C 6.789062 39.367188 6.609375 39.5 6.578125 39.691406 C 6.574219 39.691406 6.574219 39.691406 6.574219 39.691406 C 6.546875 39.886719 6.675781 40.066406 6.871094 40.097656 C 6.890625 40.101562 6.910156 40.101562 6.929688 40.101562 Z M 85.289062 39.972656 C 85.304688 39.972656 85.328125 39.972656 85.347656 39.96875 C 85.539062 39.9375 85.671875 39.753906 85.636719 39.558594 C 85.605469 39.363281 85.421875 39.234375 85.230469 39.265625 C 85.035156 39.296875 84.902344 39.480469 84.9375 39.675781 C 84.964844 39.847656 85.117188 39.972656 85.289062 39.972656 Z M 7.210938 38.527344 C 7.378906 38.527344 7.527344 38.414062 7.5625 38.246094 C 7.601562 38.054688 7.476562 37.867188 7.285156 37.824219 C 7.089844 37.789062 6.902344 37.914062 6.863281 38.105469 C 6.824219 38.296875 6.949219 38.484375 7.144531 38.523438 C 7.167969 38.527344 7.1875 38.527344 7.210938 38.527344 Z M 84.996094 38.402344 C 85.019531 38.402344 85.046875 38.398438 85.070312 38.394531 C 85.261719 38.355469 85.382812 38.167969 85.347656 37.972656 C 85.304688 37.78125 85.117188 37.660156 84.925781 37.699219 C 84.734375 37.738281 84.609375 37.925781 84.648438 38.117188 C 84.683594 38.289062 84.832031 38.402344 84.996094 38.402344 Z M 7.5625 36.96875 C 7.722656 36.96875 7.867188 36.859375 7.90625 36.699219 C 7.953125 36.507812 7.835938 36.316406 7.644531 36.269531 C 7.453125 36.222656 7.261719 36.339844 7.214844 36.53125 C 7.171875 36.722656 7.285156 36.914062 7.476562 36.960938 C 7.503906 36.96875 7.535156 36.96875 7.5625 36.96875 Z M 84.644531 36.84375 C 84.675781 36.84375 84.699219 36.839844 84.730469 36.832031 C 84.921875 36.785156 85.039062 36.59375 84.988281 36.402344 C 84.941406 36.210938 84.75 36.09375 84.558594 36.144531 C 84.367188 36.191406 84.253906 36.382812 84.300781 36.574219 C 84.339844 36.734375 84.484375 36.84375 84.644531 36.84375 Z M 7.972656 35.425781 C 8.125 35.425781 8.265625 35.324219 8.3125 35.171875 C 8.367188 34.984375 8.257812 34.785156 8.066406 34.730469 C 7.878906 34.675781 7.683594 34.785156 7.628906 34.972656 C 7.574219 35.160156 7.683594 35.359375 7.871094 35.414062 C 7.90625 35.421875 7.9375 35.425781 7.972656 35.425781 Z M 84.230469 35.300781 C 84.261719 35.300781 84.292969 35.296875 84.328125 35.285156 C 84.515625 35.230469 84.625 35.03125 84.570312 34.84375 C 84.515625 34.65625 84.320312 34.546875 84.132812 34.601562 C 83.941406 34.65625 83.835938 34.855469 83.890625 35.042969 C 83.933594 35.199219 84.074219 35.300781 84.230469 35.300781 Z M 8.445312 33.902344 C 8.59375 33.902344 8.734375 33.808594 8.785156 33.65625 C 8.84375 33.472656 8.746094 33.269531 8.558594 33.207031 C 8.371094 33.144531 8.171875 33.246094 8.109375 33.433594 C 8.046875 33.621094 8.148438 33.820312 8.335938 33.882812 C 8.371094 33.894531 8.410156 33.902344 8.445312 33.902344 Z M 83.75 33.777344 C 83.789062 33.777344 83.828125 33.769531 83.863281 33.757812 C 84.046875 33.695312 84.148438 33.492188 84.085938 33.308594 C 84.023438 33.121094 83.820312 33.023438 83.636719 33.085938 C 83.453125 33.148438 83.351562 33.351562 83.414062 33.535156 C 83.464844 33.683594 83.601562 33.777344 83.75 33.777344 Z M 8.980469 32.390625 C 9.121094 32.390625 9.257812 32.300781 9.3125 32.160156 C 9.382812 31.976562 9.289062 31.773438 9.105469 31.703125 C 8.917969 31.632812 8.71875 31.722656 8.644531 31.910156 C 8.578125 32.09375 8.671875 32.296875 8.855469 32.367188 C 8.898438 32.382812 8.9375 32.390625 8.980469 32.390625 Z M 83.210938 32.269531 C 83.253906 32.269531 83.296875 32.265625 83.335938 32.246094 C 83.519531 32.179688 83.609375 31.972656 83.542969 31.789062 C 83.472656 31.605469 83.265625 31.515625 83.085938 31.585938 C 82.902344 31.65625 82.808594 31.863281 82.878906 32.042969 C 82.933594 32.183594 83.066406 32.269531 83.210938 32.269531 Z M 9.578125 30.90625 C 9.714844 30.90625 9.84375 30.824219 9.90625 30.6875 C 9.984375 30.507812 9.898438 30.300781 9.71875 30.222656 C 9.535156 30.144531 9.328125 30.230469 9.25 30.410156 C 9.175781 30.589844 9.257812 30.796875 9.441406 30.875 C 9.484375 30.894531 9.53125 30.90625 9.578125 30.90625 Z M 82.613281 30.792969 C 82.660156 30.792969 82.707031 30.785156 82.753906 30.765625 C 82.933594 30.6875 83.015625 30.480469 82.9375 30.296875 C 82.863281 30.117188 82.652344 30.03125 82.472656 30.113281 C 82.292969 30.1875 82.207031 30.398438 82.285156 30.578125 C 82.34375 30.714844 82.472656 30.792969 82.613281 30.792969 Z M 10.234375 29.441406 C 10.367188 29.441406 10.492188 29.367188 10.554688 29.238281 C 10.640625 29.0625 10.5625 28.847656 10.386719 28.765625 C 10.207031 28.683594 9.996094 28.757812 9.914062 28.933594 C 9.828125 29.113281 9.90625 29.324219 10.082031 29.410156 C 10.128906 29.429688 10.183594 29.441406 10.234375 29.441406 Z M 81.957031 29.34375 C 82.007812 29.34375 82.058594 29.332031 82.109375 29.304688 C 82.285156 29.222656 82.359375 29.011719 82.273438 28.835938 C 82.191406 28.65625 81.980469 28.582031 81.800781 28.664062 C 81.625 28.75 81.546875 28.964844 81.632812 29.140625 C 81.695312 29.265625 81.820312 29.34375 81.957031 29.34375 Z M 10.949219 28.011719 C 11.078125 28.011719 11.203125 27.941406 11.265625 27.820312 C 11.355469 27.648438 11.289062 27.433594 11.117188 27.339844 C 10.941406 27.25 10.726562 27.316406 10.636719 27.488281 C 10.546875 27.660156 10.609375 27.875 10.785156 27.96875 C 10.835938 27.996094 10.894531 28.011719 10.949219 28.011719 Z M 81.238281 27.917969 C 81.292969 27.917969 81.351562 27.902344 81.40625 27.875 C 81.574219 27.785156 81.644531 27.570312 81.554688 27.394531 C 81.464844 27.222656 81.25 27.152344 81.074219 27.246094 C 80.898438 27.335938 80.832031 27.550781 80.925781 27.726562 C 80.988281 27.847656 81.109375 27.917969 81.238281 27.917969 Z M 11.722656 26.609375 C 11.84375 26.609375 11.964844 26.542969 12.027344 26.433594 C 12.125 26.261719 12.070312 26.046875 11.898438 25.949219 C 11.726562 25.847656 11.511719 25.90625 11.414062 26.078125 C 11.316406 26.25 11.371094 26.464844 11.542969 26.5625 C 11.597656 26.59375 11.660156 26.609375 11.722656 26.609375 Z M 80.464844 26.523438 C 80.527344 26.523438 80.585938 26.503906 80.644531 26.472656 C 80.8125 26.375 80.871094 26.160156 80.773438 25.988281 C 80.671875 25.816406 80.457031 25.757812 80.285156 25.859375 C 80.117188 25.957031 80.058594 26.175781 80.160156 26.34375 C 80.222656 26.457031 80.34375 26.523438 80.464844 26.523438 Z M 12.546875 25.238281 C 12.664062 25.238281 12.78125 25.179688 12.847656 25.074219 C 12.953125 24.90625 12.902344 24.6875 12.738281 24.585938 C 12.574219 24.480469 12.351562 24.53125 12.246094 24.695312 C 12.144531 24.859375 12.191406 25.082031 12.359375 25.183594 C 12.417969 25.222656 12.484375 25.238281 12.546875 25.238281 Z M 79.636719 25.160156 C 79.703125 25.160156 79.769531 25.140625 79.828125 25.105469 C 79.992188 24.996094 80.042969 24.777344 79.9375 24.613281 C 79.832031 24.445312 79.613281 24.398438 79.445312 24.503906 C 79.28125 24.605469 79.230469 24.828125 79.335938 24.992188 C 79.402344 25.101562 79.519531 25.160156 79.636719 25.160156 Z M 13.429688 23.902344 C 13.542969 23.902344 13.65625 23.847656 13.722656 23.75 C 13.835938 23.589844 13.792969 23.367188 13.632812 23.257812 C 13.472656 23.144531 13.25 23.1875 13.140625 23.347656 C 13.027344 23.507812 13.066406 23.730469 13.230469 23.839844 C 13.292969 23.886719 13.359375 23.902344 13.429688 23.902344 Z M 78.753906 23.828125 C 78.824219 23.828125 78.894531 23.808594 78.953125 23.765625 C 79.113281 23.652344 79.15625 23.433594 79.042969 23.269531 C 78.929688 23.109375 78.710938 23.070312 78.550781 23.179688 C 78.386719 23.292969 78.347656 23.511719 78.460938 23.675781 C 78.53125 23.773438 78.640625 23.828125 78.753906 23.828125 Z M 14.367188 22.605469 C 14.476562 22.605469 14.582031 22.558594 14.648438 22.464844 C 14.769531 22.308594 14.738281 22.085938 14.578125 21.964844 C 14.421875 21.847656 14.203125 21.882812 14.082031 22.039062 C 13.964844 22.195312 13.996094 22.417969 14.152344 22.535156 C 14.214844 22.582031 14.292969 22.605469 14.367188 22.605469 Z M 77.816406 22.535156 C 77.890625 22.535156 77.964844 22.511719 78.03125 22.460938 C 78.1875 22.34375 78.21875 22.121094 78.101562 21.964844 C 77.980469 21.808594 77.761719 21.777344 77.601562 21.894531 C 77.445312 22.015625 77.414062 22.234375 77.535156 22.390625 C 77.601562 22.484375 77.710938 22.535156 77.816406 22.535156 Z M 15.351562 21.347656 C 15.453125 21.347656 15.558594 21.300781 15.628906 21.21875 C 15.753906 21.066406 15.730469 20.839844 15.578125 20.71875 C 15.425781 20.59375 15.203125 20.617188 15.078125 20.769531 C 14.953125 20.921875 14.976562 21.144531 15.128906 21.265625 C 15.191406 21.320312 15.273438 21.347656 15.351562 21.347656 Z M 76.828125 21.28125 C 76.90625 21.28125 76.988281 21.253906 77.054688 21.199219 C 77.203125 21.074219 77.226562 20.851562 77.105469 20.699219 C 76.980469 20.550781 76.753906 20.527344 76.601562 20.648438 C 76.453125 20.773438 76.429688 20.996094 76.554688 21.148438 C 76.625 21.234375 76.726562 21.28125 76.828125 21.28125 Z M 16.390625 20.128906 C 16.488281 20.128906 16.585938 20.085938 16.65625 20.007812 C 16.785156 19.859375 16.769531 19.636719 16.625 19.507812 C 16.480469 19.378906 16.253906 19.390625 16.125 19.535156 C 15.996094 19.683594 16.007812 19.90625 16.152344 20.039062 C 16.21875 20.101562 16.304688 20.128906 16.390625 20.128906 Z M 75.792969 20.066406 C 75.875 20.066406 75.960938 20.035156 76.027344 19.976562 C 76.171875 19.84375 76.1875 19.621094 76.054688 19.472656 C 76.058594 19.472656 76.058594 19.472656 76.058594 19.472656 C 75.925781 19.328125 75.703125 19.3125 75.554688 19.445312 C 75.40625 19.578125 75.394531 19.800781 75.527344 19.949219 C 75.597656 20.023438 75.691406 20.066406 75.792969 20.066406 Z M 17.472656 18.953125 C 17.566406 18.953125 17.660156 18.917969 17.726562 18.84375 C 17.863281 18.703125 17.859375 18.476562 17.71875 18.339844 C 17.574219 18.203125 17.351562 18.210938 17.214844 18.351562 C 17.078125 18.492188 17.082031 18.71875 17.222656 18.855469 C 17.292969 18.921875 17.382812 18.953125 17.472656 18.953125 Z M 74.707031 18.890625 C 74.796875 18.890625 74.882812 18.859375 74.953125 18.792969 C 75.09375 18.652344 75.097656 18.429688 74.960938 18.289062 C 74.824219 18.144531 74.597656 18.140625 74.457031 18.28125 C 74.316406 18.414062 74.3125 18.640625 74.449219 18.78125 C 74.519531 18.855469 74.613281 18.890625 74.707031 18.890625 Z M 18.601562 17.824219 C 18.691406 17.824219 18.777344 17.789062 18.847656 17.722656 C 18.988281 17.585938 18.992188 17.359375 18.855469 17.21875 C 18.71875 17.078125 18.496094 17.074219 18.355469 17.210938 C 18.210938 17.347656 18.207031 17.570312 18.34375 17.710938 C 18.414062 17.789062 18.507812 17.824219 18.601562 17.824219 Z M 73.574219 17.761719 C 73.667969 17.761719 73.761719 17.726562 73.832031 17.652344 C 73.964844 17.511719 73.960938 17.285156 73.820312 17.152344 C 73.679688 17.011719 73.457031 17.019531 73.316406 17.160156 C 73.183594 17.304688 73.1875 17.527344 73.328125 17.664062 C 73.398438 17.730469 73.488281 17.761719 73.574219 17.761719 Z M 19.773438 16.738281 C 19.855469 16.738281 19.941406 16.710938 20.007812 16.648438 C 20.15625 16.519531 20.167969 16.296875 20.039062 16.148438 C 19.90625 16.003906 19.683594 15.988281 19.535156 16.121094 C 19.390625 16.25 19.375 16.472656 19.507812 16.621094 C 19.578125 16.699219 19.675781 16.738281 19.773438 16.738281 Z M 72.398438 16.679688 C 72.496094 16.679688 72.59375 16.640625 72.664062 16.558594 C 72.792969 16.410156 72.78125 16.1875 72.636719 16.058594 C 72.488281 15.929688 72.261719 15.941406 72.132812 16.085938 C 72.003906 16.234375 72.015625 16.460938 72.164062 16.589844 C 72.230469 16.652344 72.3125 16.679688 72.398438 16.679688 Z M 20.992188 15.703125 C 21.066406 15.703125 21.148438 15.675781 21.214844 15.621094 C 21.367188 15.496094 21.386719 15.273438 21.265625 15.121094 C 21.136719 14.972656 20.914062 14.949219 20.765625 15.074219 C 20.613281 15.199219 20.589844 15.417969 20.714844 15.570312 C 20.785156 15.65625 20.886719 15.703125 20.992188 15.703125 Z M 71.179688 15.644531 C 71.28125 15.644531 71.382812 15.601562 71.457031 15.515625 C 71.582031 15.363281 71.558594 15.136719 71.402344 15.015625 C 71.253906 14.890625 71.027344 14.914062 70.902344 15.066406 C 70.78125 15.21875 70.804688 15.441406 70.957031 15.566406 C 71.019531 15.621094 71.101562 15.644531 71.179688 15.644531 Z M 22.246094 14.714844 C 22.320312 14.714844 22.394531 14.691406 22.457031 14.644531 C 22.613281 14.527344 22.644531 14.304688 22.527344 14.144531 C 22.410156 13.988281 22.1875 13.957031 22.03125 14.078125 C 21.875 14.195312 21.84375 14.417969 21.960938 14.574219 C 22.03125 14.667969 22.136719 14.714844 22.246094 14.714844 Z M 69.921875 14.660156 C 70.03125 14.660156 70.136719 14.609375 70.203125 14.519531 C 70.320312 14.363281 70.289062 14.136719 70.132812 14.019531 C 69.976562 13.902344 69.753906 13.9375 69.636719 14.09375 C 69.519531 14.25 69.550781 14.472656 69.707031 14.589844 C 69.769531 14.636719 69.847656 14.660156 69.921875 14.660156 Z M 23.539062 13.777344 C 23.609375 13.777344 23.675781 13.757812 23.738281 13.714844 C 23.898438 13.601562 23.941406 13.382812 23.828125 13.21875 C 23.714844 13.058594 23.496094 13.015625 23.335938 13.128906 C 23.175781 13.242188 23.132812 13.464844 23.246094 13.625 C 23.316406 13.726562 23.425781 13.777344 23.539062 13.777344 Z M 68.621094 13.726562 C 68.734375 13.726562 68.847656 13.671875 68.914062 13.574219 C 69.027344 13.410156 68.984375 13.191406 68.824219 13.078125 C 68.664062 12.96875 68.441406 13.007812 68.328125 13.167969 C 68.214844 13.328125 68.257812 13.550781 68.417969 13.660156 C 68.484375 13.707031 68.550781 13.726562 68.621094 13.726562 Z M 24.867188 12.898438 C 24.933594 12.898438 25 12.878906 25.0625 12.839844 L 25.0625 12.84375 C 25.226562 12.738281 25.273438 12.519531 25.167969 12.351562 C 25.066406 12.1875 24.84375 12.136719 24.679688 12.242188 C 24.515625 12.347656 24.464844 12.566406 24.570312 12.734375 C 24.636719 12.835938 24.75 12.898438 24.867188 12.898438 Z M 67.285156 12.847656 C 67.402344 12.847656 67.519531 12.789062 67.585938 12.679688 C 67.691406 12.515625 67.640625 12.292969 67.476562 12.191406 C 67.308594 12.085938 67.089844 12.132812 66.984375 12.300781 C 66.882812 12.464844 66.929688 12.6875 67.097656 12.792969 C 67.15625 12.828125 67.222656 12.847656 67.285156 12.847656 Z M 26.234375 12.066406 C 26.292969 12.066406 26.355469 12.050781 26.410156 12.019531 C 26.582031 11.921875 26.640625 11.703125 26.539062 11.535156 C 26.441406 11.363281 26.222656 11.308594 26.054688 11.40625 C 25.886719 11.503906 25.828125 11.71875 25.925781 11.890625 C 25.992188 12.003906 26.109375 12.066406 26.234375 12.066406 Z M 65.914062 12.015625 C 66.039062 12.015625 66.160156 11.953125 66.222656 11.839844 C 66.320312 11.667969 66.261719 11.453125 66.09375 11.351562 C 66.09375 11.355469 66.09375 11.355469 66.09375 11.355469 C 65.921875 11.253906 65.707031 11.3125 65.609375 11.484375 C 65.511719 11.65625 65.570312 11.871094 65.738281 11.96875 C 65.796875 12.003906 65.855469 12.015625 65.914062 12.015625 Z M 27.628906 11.292969 C 27.683594 11.292969 27.742188 11.28125 27.792969 11.253906 C 27.96875 11.164062 28.035156 10.949219 27.941406 10.773438 C 27.851562 10.597656 27.636719 10.53125 27.460938 10.625 C 27.289062 10.714844 27.222656 10.929688 27.3125 11.105469 C 27.378906 11.226562 27.5 11.292969 27.628906 11.292969 Z M 64.515625 11.246094 C 64.640625 11.246094 64.765625 11.175781 64.828125 11.054688 C 64.917969 10.882812 64.851562 10.667969 64.679688 10.574219 C 64.507812 10.484375 64.292969 10.550781 64.199219 10.726562 C 64.109375 10.894531 64.175781 11.109375 64.351562 11.203125 C 64.402344 11.230469 64.457031 11.246094 64.515625 11.246094 Z M 29.054688 10.582031 C 29.105469 10.582031 29.15625 10.566406 29.207031 10.546875 C 29.382812 10.460938 29.460938 10.25 29.375 10.070312 C 29.289062 9.894531 29.078125 9.820312 28.902344 9.90625 C 28.726562 9.988281 28.648438 10.199219 28.734375 10.375 C 28.796875 10.503906 28.921875 10.582031 29.054688 10.582031 Z M 63.082031 10.53125 C 63.214844 10.53125 63.34375 10.457031 63.402344 10.328125 C 63.488281 10.152344 63.410156 9.941406 63.234375 9.855469 C 63.058594 9.769531 62.84375 9.847656 62.761719 10.027344 C 62.675781 10.199219 62.753906 10.414062 62.929688 10.496094 C 62.976562 10.519531 63.03125 10.53125 63.082031 10.53125 Z M 30.507812 9.921875 C 30.554688 9.921875 30.601562 9.914062 30.648438 9.894531 C 30.828125 9.816406 30.910156 9.609375 30.832031 9.429688 C 30.757812 9.246094 30.546875 9.164062 30.367188 9.242188 C 30.1875 9.316406 30.101562 9.527344 30.179688 9.707031 C 30.238281 9.84375 30.367188 9.921875 30.507812 9.921875 Z M 61.621094 9.878906 C 61.757812 9.878906 61.890625 9.796875 61.949219 9.660156 C 62.027344 9.480469 61.941406 9.273438 61.761719 9.195312 C 61.582031 9.117188 61.371094 9.199219 61.296875 9.382812 C 61.21875 9.5625 61.300781 9.769531 61.484375 9.847656 C 61.527344 9.867188 61.574219 9.878906 61.621094 9.878906 Z M 31.984375 9.328125 C 32.023438 9.328125 32.070312 9.320312 32.109375 9.304688 C 32.292969 9.230469 32.382812 9.027344 32.316406 8.847656 C 32.246094 8.664062 32.039062 8.570312 31.859375 8.640625 C 31.675781 8.707031 31.582031 8.914062 31.652344 9.097656 C 31.707031 9.238281 31.839844 9.328125 31.984375 9.328125 Z M 60.132812 9.28125 C 60.277344 9.28125 60.414062 9.191406 60.464844 9.050781 C 60.535156 8.867188 60.445312 8.664062 60.257812 8.59375 C 60.074219 8.523438 59.871094 8.617188 59.800781 8.800781 C 59.734375 8.984375 59.824219 9.1875 60.007812 9.257812 C 60.050781 9.273438 60.09375 9.28125 60.132812 9.28125 Z M 33.488281 8.785156 C 33.527344 8.785156 33.566406 8.777344 33.601562 8.765625 C 33.789062 8.703125 33.886719 8.503906 33.824219 8.316406 C 33.761719 8.132812 33.558594 8.03125 33.375 8.09375 C 33.191406 8.15625 33.085938 8.359375 33.152344 8.542969 C 33.203125 8.695312 33.339844 8.785156 33.488281 8.785156 Z M 58.625 8.746094 C 58.773438 8.746094 58.910156 8.652344 58.960938 8.5 C 59.023438 8.316406 58.921875 8.117188 58.734375 8.054688 C 58.550781 7.988281 58.347656 8.09375 58.289062 8.277344 C 58.226562 8.464844 58.328125 8.664062 58.511719 8.726562 C 58.546875 8.738281 58.585938 8.746094 58.625 8.746094 Z M 35.015625 8.308594 C 35.046875 8.308594 35.078125 8.304688 35.113281 8.292969 C 35.300781 8.242188 35.410156 8.042969 35.355469 7.855469 C 35.300781 7.667969 35.105469 7.558594 34.917969 7.613281 C 34.730469 7.667969 34.621094 7.863281 34.675781 8.050781 C 34.71875 8.210938 34.859375 8.308594 35.015625 8.308594 Z M 57.097656 8.273438 C 57.25 8.273438 57.394531 8.171875 57.4375 8.015625 C 57.492188 7.828125 57.382812 7.628906 57.191406 7.578125 C 57.003906 7.523438 56.808594 7.632812 56.753906 7.820312 C 56.699219 8.007812 56.808594 8.207031 57 8.257812 C 57.03125 8.269531 57.0625 8.273438 57.097656 8.273438 Z M 36.558594 7.894531 C 36.585938 7.894531 36.613281 7.890625 36.644531 7.882812 C 36.832031 7.835938 36.949219 7.644531 36.902344 7.453125 C 36.855469 7.261719 36.660156 7.148438 36.472656 7.195312 C 36.28125 7.242188 36.164062 7.433594 36.210938 7.625 C 36.253906 7.785156 36.398438 7.894531 36.558594 7.894531 Z M 55.550781 7.863281 C 55.714844 7.863281 55.855469 7.753906 55.898438 7.59375 C 55.941406 7.402344 55.828125 7.210938 55.636719 7.164062 C 55.445312 7.117188 55.253906 7.234375 55.207031 7.425781 C 55.160156 7.613281 55.277344 7.804688 55.464844 7.851562 C 55.496094 7.859375 55.523438 7.863281 55.550781 7.863281 Z M 38.113281 7.542969 C 38.140625 7.542969 38.164062 7.539062 38.1875 7.535156 C 38.378906 7.496094 38.503906 7.308594 38.464844 7.117188 C 38.425781 6.921875 38.238281 6.800781 38.046875 6.839844 C 37.855469 6.878906 37.730469 7.066406 37.769531 7.257812 C 37.800781 7.425781 37.953125 7.542969 38.113281 7.542969 Z M 53.992188 7.515625 C 54.15625 7.515625 54.304688 7.398438 54.339844 7.230469 C 54.378906 7.039062 54.253906 6.851562 54.0625 6.8125 C 53.871094 6.773438 53.683594 6.898438 53.640625 7.089844 C 53.601562 7.285156 53.730469 7.46875 53.921875 7.511719 C 53.945312 7.511719 53.96875 7.515625 53.992188 7.515625 Z M 39.6875 7.253906 C 39.707031 7.253906 39.726562 7.25 39.746094 7.246094 C 39.9375 7.21875 40.070312 7.035156 40.039062 6.839844 C 40.007812 6.644531 39.824219 6.515625 39.628906 6.546875 C 39.4375 6.578125 39.304688 6.761719 39.335938 6.953125 C 39.363281 7.128906 39.515625 7.253906 39.6875 7.253906 Z M 52.417969 7.230469 C 52.59375 7.230469 52.742188 7.105469 52.769531 6.933594 C 52.800781 6.738281 52.667969 6.558594 52.476562 6.527344 C 52.28125 6.496094 52.097656 6.628906 52.066406 6.820312 C 52.039062 7.015625 52.167969 7.195312 52.363281 7.226562 C 52.382812 7.230469 52.402344 7.230469 52.417969 7.230469 Z M 41.269531 7.027344 C 41.285156 7.027344 41.300781 7.027344 41.3125 7.027344 C 41.507812 7 41.648438 6.824219 41.621094 6.628906 C 41.597656 6.433594 41.421875 6.296875 41.226562 6.320312 C 41.03125 6.34375 40.894531 6.519531 40.917969 6.714844 C 40.9375 6.894531 41.09375 7.027344 41.269531 7.027344 Z M 50.835938 7.011719 C 51.015625 7.011719 51.167969 6.878906 51.1875 6.699219 C 51.210938 6.5 51.070312 6.328125 50.875 6.304688 C 50.679688 6.28125 50.503906 6.417969 50.480469 6.613281 C 50.457031 6.8125 50.597656 6.984375 50.792969 7.007812 C 50.808594 7.011719 50.820312 7.011719 50.835938 7.011719 Z M 42.859375 6.867188 C 42.867188 6.867188 42.878906 6.867188 42.890625 6.867188 C 43.085938 6.851562 43.230469 6.679688 43.214844 6.484375 C 43.199219 6.285156 43.027344 6.144531 42.832031 6.15625 C 42.636719 6.175781 42.492188 6.34375 42.507812 6.542969 C 42.519531 6.726562 42.675781 6.867188 42.859375 6.867188 Z M 49.246094 6.855469 C 49.429688 6.855469 49.582031 6.714844 49.597656 6.527344 C 49.613281 6.332031 49.46875 6.164062 49.273438 6.148438 C 49.078125 6.128906 48.90625 6.277344 48.890625 6.472656 C 48.875 6.671875 49.019531 6.839844 49.214844 6.855469 C 49.230469 6.855469 49.238281 6.855469 49.246094 6.855469 Z M 44.453125 6.769531 C 44.460938 6.769531 44.464844 6.769531 44.46875 6.769531 C 44.664062 6.761719 44.820312 6.59375 44.808594 6.398438 C 44.800781 6.203125 44.636719 6.050781 44.441406 6.0625 C 44.441406 6.058594 44.441406 6.058594 44.441406 6.058594 C 44.242188 6.066406 44.089844 6.230469 44.101562 6.429688 C 44.109375 6.617188 44.265625 6.769531 44.453125 6.769531 Z M 47.652344 6.761719 C 47.839844 6.761719 47.996094 6.613281 48.003906 6.421875 C 48.011719 6.226562 47.859375 6.0625 47.664062 6.054688 C 47.46875 6.046875 47.300781 6.199219 47.296875 6.394531 C 47.289062 6.589844 47.441406 6.757812 47.636719 6.761719 C 47.640625 6.761719 47.648438 6.761719 47.652344 6.761719 Z M 46.054688 6.734375 C 46.25 6.734375 46.410156 6.574219 46.410156 6.378906 C 46.410156 6.183594 46.246094 6.027344 46.054688 6.027344 C 45.859375 6.027344 45.699219 6.1875 45.699219 6.378906 C 45.695312 6.578125 45.859375 6.734375 46.054688 6.734375 Z M 46.050781 6.023438 C 46.054688 6.023438 46.054688 6.023438 46.050781 6.023438 C 46.054688 6.023438 46.054688 6.023438 46.050781 6.023438 Z M 46.402344 77.414062 L 46.402344 81.496094 L 46.40625 81.496094 Z M 47.824219 79.460938 L 48.15625 81.453125 L 47.824219 79.441406 L 47.824219 77.398438 L 47.484375 77.425781 L 47.824219 79.460938 L 47.824219 81.480469 Z M 44.988281 79.390625 L 44.675781 81.429688 L 44.988281 81.453125 Z M 49.238281 79.386719 L 49.570312 81.382812 L 49.238281 79.367188 L 49.238281 77.324219 L 48.902344 77.351562 L 49.238281 79.386719 L 49.238281 81.40625 Z M 43.574219 79.3125 L 43.863281 77.289062 L 43.570312 77.269531 L 43.570312 79.335938 L 43.285156 81.332031 L 43.570312 79.335938 L 43.570312 81.351562 Z M 50.941406 81.253906 L 50.648438 79.210938 L 50.648438 77.191406 L 50.648438 79.210938 L 50.363281 77.210938 L 50.648438 79.234375 L 50.648438 81.277344 Z M 42.207031 78.832031 L 42.46875 77.136719 L 42.207031 78.832031 L 42.449219 77.128906 L 42.160156 79.152344 L 41.847656 81.171875 L 41.871094 81.175781 Z M 52.078125 79.191406 L 52.390625 81.058594 L 52.058594 79.050781 L 51.765625 77.023438 L 51.71875 77.03125 L 52.078125 79.1875 L 52.34375 81.066406 Z M 40.765625 78.90625 L 41.320312 76.96875 L 40.765625 78.90625 L 41.074219 76.914062 L 40.757812 78.933594 L 40.199219 80.898438 L 40.453125 80.957031 Z M 53.457031 78.816406 L 54.09375 80.734375 L 53.453125 78.796875 L 53.164062 76.777344 L 52.804688 76.863281 L 53.457031 78.816406 L 53.742188 80.816406 Z M 39.375 78.632812 L 39.929688 76.695312 L 39.375 78.632812 L 39.683594 76.640625 L 39.371094 78.660156 L 38.808594 80.625 L 39.0625 80.679688 Z M 55.398438 80.453125 L 54.828125 78.460938 L 55.171875 80.507812 Z M 37.992188 78.324219 L 38.59375 76.371094 L 38.296875 76.304688 L 37.984375 78.347656 L 37.390625 80.277344 L 37.984375 78.347656 L 37.679688 80.34375 Z M 56.234375 78.203125 L 56.851562 80.0625 L 56.210938 78.125 L 55.648438 76.160156 L 55.558594 76.1875 L 56.234375 78.203125 L 56.769531 80.085938 Z M 37.226562 75.980469 L 36.027344 79.882812 L 36.03125 79.882812 Z M 58.210938 79.640625 L 57.539062 77.628906 L 58.121094 79.667969 Z M 35.289062 77.457031 L 36.132812 75.628906 L 35.289062 77.457031 L 35.882812 75.53125 L 35.277344 77.480469 L 34.421875 79.335938 L 34.679688 79.433594 Z M 44.984375 79.414062 L 44.988281 77.371094 Z M 58.914062 77.265625 L 59.699219 79.101562 L 58.898438 77.222656 L 58.253906 75.289062 L 58.089844 75.347656 L 58.914062 77.265625 L 59.546875 79.160156 Z M 33.949219 76.976562 L 34.804688 75.125 L 34.59375 75.039062 L 33.9375 77.007812 L 33.09375 78.832031 L 33.933594 77.007812 L 33.300781 78.914062 Z M 61.125 78.519531 L 60.203125 76.675781 L 60.765625 78.660156 Z M 54.277344 76.523438 L 54.835938 78.488281 Z M 32.644531 76.417969 L 33.558594 74.589844 L 33.246094 74.460938 L 32.636719 76.433594 L 31.734375 78.242188 L 32.636719 76.433594 L 32.042969 78.367188 Z M 62.410156 77.933594 L 60.582031 74.28125 L 62.40625 77.9375 Z M 56.917969 75.765625 L 57.558594 77.703125 Z M 31.363281 75.804688 L 32.277344 73.972656 L 32.21875 73.945312 L 31.316406 75.902344 L 30.453125 77.628906 L 31.3125 75.902344 L 30.503906 77.65625 Z M 62.773438 75.492188 L 63.890625 77.167969 L 62.761719 75.46875 L 61.847656 73.640625 L 61.625 73.769531 L 62.773438 75.492188 L 63.671875 77.292969 Z M 30.125 75.109375 L 31.242188 73.429688 L 30.125 75.109375 L 31.023438 73.304688 L 30.105469 75.128906 L 28.972656 76.828125 L 29.195312 76.960938 Z M 59.296875 74.867188 L 60.207031 76.695312 Z M 64.007812 74.800781 L 65.125 76.476562 L 63.996094 74.777344 L 63.085938 72.949219 L 62.859375 73.078125 L 64.007812 74.800781 L 64.910156 76.601562 Z M 28.886719 74.414062 L 30.019531 72.714844 L 29.859375 72.621094 L 28.863281 74.449219 L 27.75 76.113281 L 28.863281 74.449219 L 27.90625 76.207031 Z M 66.335938 75.730469 L 65.160156 73.96875 L 64.148438 72.28125 L 65.160156 73.96875 L 64.070312 72.332031 L 65.199219 74.03125 L 66.25 75.785156 Z M 27.691406 73.644531 L 28.890625 71.992188 L 28.601562 71.816406 L 27.679688 73.660156 L 26.492188 75.296875 L 27.679688 73.660156 L 26.773438 75.46875 Z M 66.398438 73.273438 L 67.648438 74.835938 L 66.375 73.238281 L 65.242188 71.539062 L 65.097656 71.644531 L 66.398438 73.273438 L 67.511719 74.9375 Z M 27.730469 71.171875 L 25.328125 74.476562 L 25.332031 74.476562 Z M 68.792969 73.992188 L 67.492188 72.367188 L 66.378906 70.699219 L 67.492188 72.367188 L 66.242188 70.804688 L 67.515625 72.398438 L 68.648438 74.097656 Z M 25.421875 71.941406 L 26.847656 70.515625 L 25.421875 71.941406 L 26.609375 70.308594 L 25.402344 71.960938 L 23.957031 73.40625 L 24.207031 73.613281 Z M 68.734375 71.648438 L 69.925781 73.082031 L 68.625 71.511719 L 67.347656 69.914062 L 67.3125 69.941406 L 68.730469 71.640625 L 69.898438 73.101562 Z M 24.351562 71.003906 L 25.6875 69.535156 L 24.351562 71.003906 L 25.59375 69.453125 L 24.316406 71.046875 L 22.945312 72.558594 L 23.042969 72.644531 Z M 71.132812 72.023438 L 69.667969 70.554688 L 70.960938 72.175781 Z M 23.269531 70.09375 L 24.714844 68.652344 L 24.542969 68.5 L 23.246094 70.117188 L 21.824219 71.539062 L 23.246094 70.117188 L 21.988281 71.6875 Z M 72.164062 71.046875 L 70.695312 69.578125 L 69.441406 68.007812 L 70.695312 69.578125 L 69.273438 68.15625 L 70.714844 69.601562 L 71.992188 71.199219 Z M 69.6875 70.578125 L 68.246094 69.132812 Z M 22.261719 69.097656 L 23.777344 67.730469 L 23.703125 67.648438 L 22.210938 69.140625 L 20.742188 70.460938 L 22.210938 69.140625 L 20.816406 70.535156 Z M 71.730469 68.605469 L 73.296875 69.863281 L 71.707031 68.585938 L 70.261719 67.140625 L 70.109375 67.3125 L 71.730469 68.605469 L 73.152344 70.027344 Z M 22.8125 66.691406 L 19.777344 69.421875 L 19.78125 69.425781 Z M 74.246094 68.800781 L 72.515625 67.414062 L 71.082031 66.222656 L 72.515625 67.414062 L 71.058594 66.25 L 72.652344 67.527344 L 74.222656 68.835938 Z M 20.394531 66.964844 L 18.671875 68.113281 L 18.855469 68.347656 Z M 75.144531 67.703125 L 73.414062 66.316406 L 75.117188 67.738281 Z M 19.585938 65.796875 L 21.128906 64.636719 L 19.585938 65.796875 L 21.09375 64.589844 L 19.496094 65.863281 L 17.859375 67.089844 L 17.902344 67.140625 Z M 21.890625 65.617188 L 20.371094 66.980469 Z M 76.105469 66.425781 L 74.371094 65.269531 L 75.996094 66.570312 Z M 73.550781 66.433594 L 71.957031 65.152344 Z M 18.664062 64.722656 L 20.367188 63.585938 L 20.339844 63.542969 L 18.546875 64.800781 L 16.96875 65.851562 L 18.539062 64.804688 L 16.992188 65.886719 Z M 72.707031 64.164062 L 74.402344 65.296875 Z M 75.273438 64.167969 L 76.960938 65.179688 L 75.214844 64.128906 L 73.515625 62.992188 L 73.460938 63.078125 L 75.273438 64.167969 L 76.914062 65.257812 Z M 17.886719 63.535156 L 19.648438 62.507812 L 19.480469 62.257812 L 17.863281 63.546875 L 16.121094 64.5625 L 17.863281 63.546875 L 16.289062 64.808594 Z M 75.992188 62.941406 L 77.792969 63.839844 L 75.96875 62.925781 L 74.269531 61.792969 L 74.140625 62.015625 L 75.992188 62.941406 L 77.667969 64.058594 Z M 17.203125 62.296875 L 15.328125 63.234375 L 15.390625 63.351562 Z M 78.503906 62.605469 L 76.652344 61.679688 L 78.375 62.828125 Z M 18.917969 61.292969 L 17.152344 62.320312 Z M 16.476562 61.082031 L 18.300781 60.167969 L 18.238281 60.046875 L 16.425781 61.105469 L 14.648438 61.992188 L 16.425781 61.105469 L 14.710938 62.105469 Z M 76.675781 61.695312 L 74.851562 60.78125 Z M 79.160156 61.347656 L 75.503906 59.523438 L 79.15625 61.351562 Z M 15.894531 59.792969 L 17.734375 59.023438 L 15.894531 59.792969 L 17.675781 58.898438 L 15.847656 59.808594 L 13.964844 60.59375 L 14.023438 60.726562 Z M 77.953125 59.15625 L 79.898438 59.710938 L 77.933594 59.144531 L 76.109375 58.234375 L 75.972656 58.589844 L 77.953125 59.15625 L 79.761719 60.058594 Z M 15.253906 58.527344 L 17.160156 57.734375 L 17.152344 57.710938 L 14.96875 58.648438 L 13.390625 59.304688 L 14.957031 58.652344 L 13.398438 59.320312 Z M 78.5 57.84375 L 80.445312 58.398438 L 78.484375 57.835938 L 76.65625 56.921875 L 76.519531 57.277344 L 78.5 57.84375 L 80.3125 58.746094 Z M 14.785156 57.191406 L 16.71875 56.640625 L 14.785156 57.191406 L 16.640625 56.417969 L 14.753906 57.199219 L 12.789062 57.761719 L 12.871094 57.988281 Z M 80.910156 57.144531 L 78.933594 56.488281 L 80.851562 57.308594 Z M 14.285156 55.863281 L 16.230469 55.21875 L 16.214844 55.171875 L 14.140625 55.914062 L 12.355469 56.507812 L 14.136719 55.914062 L 12.367188 56.546875 Z M 78.976562 56.503906 L 77.039062 55.855469 Z M 81.375 55.710938 L 79.328125 55.128906 L 81.347656 55.800781 Z M 77.445312 54.589844 L 79.410156 55.152344 Z M 13.988281 54.476562 L 15.863281 54.007812 L 13.988281 54.476562 L 15.847656 53.945312 L 13.882812 54.5 L 11.902344 54.996094 L 11.917969 55.066406 Z M 79.816406 53.792969 L 81.800781 54.121094 L 79.789062 53.78125 L 77.824219 53.222656 L 77.773438 53.453125 L 79.816406 53.792969 L 81.75 54.34375 Z M 13.527344 53.132812 L 15.527344 52.703125 L 15.511719 52.632812 L 13.433594 53.152344 L 11.535156 53.558594 L 13.429688 53.15625 L 11.550781 53.625 Z M 82.132812 52.691406 L 80.089844 52.398438 L 82.046875 53.050781 Z M 78.085938 52.113281 L 80.109375 52.40625 Z M 13.3125 51.726562 L 15.253906 51.402344 L 13.3125 51.726562 L 15.238281 51.316406 L 13.238281 51.738281 L 11.222656 52.074219 L 11.242188 52.171875 Z M 82.390625 51.296875 L 80.222656 50.988281 L 78.355469 50.675781 L 80.222656 50.988281 L 78.347656 50.722656 L 80.371094 51.011719 L 82.382812 51.347656 Z M 13 50.34375 L 15.027344 50.054688 L 15.019531 50.003906 L 12.859375 50.363281 L 10.984375 50.632812 L 12.855469 50.367188 L 10.988281 50.675781 Z M 82.597656 49.894531 L 80.429688 49.585938 L 78.558594 49.273438 L 80.429688 49.585938 L 78.554688 49.316406 L 80.574219 49.609375 L 82.589844 49.945312 Z M 12.828125 48.9375 L 14.867188 48.792969 L 14.84375 48.597656 L 12.792969 48.941406 L 10.792969 49.082031 L 12.792969 48.941406 L 10.8125 49.269531 Z M 80.746094 48.195312 L 82.761719 48.195312 L 80.71875 48.191406 L 78.695312 47.90625 L 78.675781 48.195312 L 80.746094 48.195312 L 82.742188 48.484375 Z M 12.6875 47.523438 L 14.75 47.378906 L 14.746094 47.351562 L 12.445312 47.542969 L 10.675781 47.671875 L 12.425781 47.546875 L 10.675781 47.691406 Z M 82.847656 46.777344 L 80.785156 46.777344 L 82.820312 47.117188 Z M 80.808594 46.78125 L 78.765625 46.777344 Z M 12.652344 46.105469 L 14.691406 46.105469 L 14.6875 45.933594 L 12.609375 46.105469 L 10.609375 46.105469 L 12.609375 46.105469 L 10.613281 46.273438 Z M 82.878906 45.359375 L 78.792969 45.363281 L 82.878906 45.363281 Z M 82.878906 45.289062 L 78.792969 45.292969 L 82.878906 45.292969 Z M 12.691406 44.6875 L 10.613281 44.515625 L 10.609375 44.6875 Z M 14.691406 44.6875 L 12.652344 44.683594 L 12.691406 44.6875 Z M 80.828125 43.871094 L 82.847656 43.871094 L 80.828125 43.871094 L 82.824219 43.566406 L 80.804688 43.871094 L 78.765625 43.871094 L 78.785156 44.183594 Z M 14.75 43.269531 L 12.65625 43.269531 L 10.667969 43.125 L 12.65625 43.269531 L 10.664062 43.269531 L 12.707031 43.273438 L 14.746094 43.417969 Z M 78.691406 42.742188 L 80.714844 42.457031 Z M 82.738281 42.167969 L 80.691406 42.460938 L 82.757812 42.460938 Z M 14.855469 42.003906 L 12.820312 41.855469 Z M 10.804688 41.542969 L 10.785156 41.710938 L 12.867188 41.859375 Z M 80.867188 41.003906 L 82.589844 40.757812 L 80.890625 41 L 82.585938 40.738281 L 80.59375 41.039062 L 78.542969 41.332031 L 78.550781 41.359375 Z M 15.015625 40.734375 L 12.691406 40.402344 L 10.972656 40.140625 L 12.675781 40.402344 L 10.972656 40.15625 L 12.972656 40.445312 L 15.011719 40.757812 Z M 80.359375 39.644531 L 82.382812 39.359375 L 82.378906 39.332031 L 80.042969 39.691406 L 78.339844 39.9375 L 80.042969 39.691406 L 78.339844 39.957031 Z M 15.246094 39.335938 L 13.183594 39.039062 L 11.234375 38.589844 L 13.183594 39.039062 L 11.203125 38.753906 L 13.222656 39.046875 L 15.214844 39.507812 Z M 80.121094 38.246094 L 82.113281 37.9375 L 80.121094 38.246094 L 82.058594 37.691406 L 80.097656 38.25 L 78.078125 38.5625 L 78.132812 38.816406 Z M 15.511719 38.085938 L 13.304688 37.613281 L 11.523438 37.203125 L 13.296875 37.613281 L 11.519531 37.230469 L 13.507812 37.660156 L 15.503906 38.121094 Z M 79.773438 36.871094 L 81.792969 36.582031 L 81.722656 36.269531 L 79.75 36.875 L 77.75 37.160156 L 79.75 36.875 L 77.816406 37.46875 Z M 15.855469 36.742188 L 13.816406 36.273438 L 11.910156 35.6875 L 13.816406 36.273438 L 11.875 35.824219 L 13.867188 36.289062 L 15.816406 36.886719 Z M 81.34375 34.90625 L 81.34375 34.902344 L 77.4375 36.105469 Z M 14.320312 34.941406 L 16.21875 35.527344 L 14.269531 34.925781 L 12.363281 34.191406 L 12.316406 34.328125 L 14.320312 34.941406 L 16.175781 35.65625 Z M 78.976562 34.144531 L 80.902344 33.550781 L 78.976562 34.144531 L 80.808594 33.300781 L 78.953125 34.152344 L 77 34.753906 L 77.097656 35.011719 Z M 16.6875 34.179688 L 14.683594 33.566406 L 12.824219 32.851562 L 14.683594 33.566406 L 12.78125 32.980469 L 14.730469 33.582031 L 16.636719 34.316406 Z M 78.476562 32.816406 L 80.359375 32.082031 L 80.3125 31.96875 L 78.5625 32.777344 L 80.285156 31.914062 L 78.507812 32.800781 L 76.558594 33.570312 L 76.605469 33.679688 L 76.601562 33.679688 L 76.605469 33.679688 L 76.632812 33.738281 Z M 17.15625 32.992188 L 15.253906 32.257812 Z M 76.082031 32.433594 L 77.914062 31.523438 Z M 13.425781 31.34375 L 13.34375 31.527344 L 15.285156 32.273438 Z M 17.730469 31.6875 L 15.792969 30.941406 L 14 30.046875 L 15.792969 30.941406 L 13.917969 30.222656 L 15.824219 30.960938 L 17.648438 31.875 Z M 79.863281 30.921875 L 79.738281 30.605469 L 77.890625 31.53125 Z M 79.136719 29.328125 L 79.136719 29.324219 L 75.484375 31.15625 Z M 16.503906 29.710938 L 18.28125 30.597656 L 16.457031 29.683594 L 14.691406 28.652344 L 14.628906 28.773438 L 16.503906 29.710938 L 18.21875 30.710938 Z M 76.679688 28.96875 L 78.480469 28.070312 L 76.679688 28.96875 L 78.355469 27.851562 L 76.652344 28.984375 L 74.828125 29.898438 L 74.957031 30.121094 Z M 18.960938 29.347656 L 17.085938 28.410156 L 15.371094 27.410156 L 17.085938 28.410156 L 15.308594 27.523438 L 17.132812 28.4375 L 18.898438 29.46875 Z M 74.25 28.890625 L 75.949219 27.757812 Z M 19.628906 28.246094 L 17.863281 27.214844 Z M 77.742188 26.78125 L 77.644531 26.621094 L 75.914062 27.777344 Z M 73.539062 27.757812 L 75.191406 26.5625 Z M 16.214844 26.015625 L 16.097656 26.191406 L 17.894531 27.238281 Z M 20.410156 27.058594 L 18.617188 26.015625 L 16.992188 24.832031 L 18.613281 26.011719 L 16.882812 25 L 18.644531 26.03125 L 20.296875 27.234375 Z M 76.039062 24.195312 L 76.035156 24.195312 L 72.734375 26.597656 Z M 77.019531 25.648438 L 76.839844 25.359375 L 75.171875 26.570312 Z M 19.523438 24.921875 L 21.125 26.085938 L 19.476562 24.878906 L 17.898438 23.585938 L 17.824219 23.679688 L 19.523438 24.921875 L 21.058594 26.171875 Z M 73.546875 24.25 L 75.179688 23.0625 L 73.546875 24.25 L 74.976562 22.824219 L 73.527344 24.261719 L 71.878906 25.464844 L 72.085938 25.710938 Z M 21.949219 25.039062 L 20.121094 23.578125 L 18.769531 22.472656 L 20.105469 23.566406 L 18.757812 22.492188 L 20.332031 23.75 L 21.933594 25.058594 Z M 72.671875 23.132812 L 74.222656 21.890625 L 72.671875 23.132812 L 74.140625 21.796875 L 72.625 23.167969 L 71.03125 24.445312 L 71.117188 24.542969 Z M 22.855469 23.980469 L 21.21875 22.636719 L 19.753906 21.320312 L 21.214844 22.636719 L 19.695312 21.390625 L 21.273438 22.683594 L 22.789062 24.050781 Z M 71.683594 22.113281 L 70.238281 23.558594 Z M 22.265625 21.671875 L 23.757812 23.015625 L 22.242188 21.644531 L 20.875 20.128906 L 20.722656 20.28125 L 22.265625 21.671875 L 23.609375 23.164062 Z M 70.742188 21.046875 L 72.136719 19.652344 L 70.742188 21.046875 L 72.0625 19.582031 L 70.695312 21.097656 L 69.25 22.539062 L 69.332031 22.617188 Z M 24.691406 22.089844 L 23.199219 20.601562 L 21.878906 19.132812 L 23.199219 20.601562 L 21.804688 19.203125 L 23.246094 20.652344 L 24.613281 22.167969 Z M 73.28125 20.839844 L 73.128906 20.667969 L 71.660156 22.136719 Z M 69.667969 20.121094 L 71.109375 18.675781 L 71.03125 18.597656 L 69.617188 20.167969 L 68.222656 21.5625 L 69.617188 20.167969 L 68.296875 21.632812 Z M 25.660156 21.210938 L 24.296875 19.691406 Z M 68.609375 19.167969 L 69.960938 17.671875 L 68.609375 19.167969 L 69.730469 17.492188 L 68.59375 19.1875 L 67.226562 20.707031 L 67.464844 20.890625 Z M 26.671875 20.363281 L 25.382812 18.78125 Z M 67.554688 18.214844 L 68.761719 16.703125 L 67.554688 18.214844 L 68.714844 16.667969 L 67.488281 18.296875 L 66.210938 19.894531 L 66.261719 19.9375 Z M 23.003906 18.109375 L 22.925781 18.175781 L 24.34375 19.75 Z M 25.304688 16.261719 L 25.300781 16.265625 L 27.707031 19.566406 Z M 65.210938 19.160156 L 66.347656 17.460938 Z M 24.105469 17.1875 L 24.085938 17.203125 L 25.582031 19.027344 Z M 27.679688 17.128906 L 28.859375 18.75 L 27.660156 17.097656 L 26.632812 15.335938 L 26.457031 15.449219 L 27.679688 17.128906 L 28.6875 18.859375 Z M 64.136719 18.429688 L 65.167969 16.667969 Z M 29.949219 18.050781 L 28.804688 16.253906 L 27.820312 14.566406 L 28.804688 16.25 L 27.757812 14.605469 L 28.847656 16.324219 L 29.878906 18.09375 Z M 64.988281 14.160156 L 64.984375 14.160156 L 62.933594 17.6875 Z M 67.621094 15.867188 L 67.476562 15.761719 L 66.320312 17.496094 Z M 30.070312 15.609375 L 31.097656 17.375 Z M 62.71875 15.230469 L 61.800781 17.054688 Z M 30.40625 13.113281 L 30.40625 13.117188 L 32.234375 16.769531 Z M 66.445312 15.074219 L 66.195312 14.902344 L 65.152344 16.6875 Z M 61.476562 14.535156 L 62.359375 12.761719 L 61.476562 14.535156 L 62.253906 12.714844 L 61.449219 14.589844 L 60.53125 16.414062 L 60.644531 16.46875 Z M 33.503906 16.15625 L 32.59375 14.324219 Z M 60.960938 12.128906 L 60.9375 12.121094 L 59.351562 15.882812 Z M 34.679688 15.652344 L 33.84375 13.652344 L 33.15625 11.859375 L 33.84375 13.648438 L 33.105469 11.878906 L 33.886719 13.761719 L 34.621094 15.671875 Z M 29.15625 13.78125 L 29.039062 13.847656 L 30.09375 15.65625 Z M 58.859375 13.40625 L 59.621094 11.585938 L 58.859375 13.40625 L 59.523438 11.546875 L 58.835938 13.46875 L 58.050781 15.351562 L 58.152344 15.394531 Z M 63.746094 13.46875 L 63.628906 13.402344 L 62.691406 15.277344 Z M 35.242188 13.332031 L 35.949219 15.167969 L 35.21875 13.257812 L 34.570312 11.320312 L 34.480469 11.355469 L 35.242188 13.332031 L 35.863281 15.195312 Z M 57.496094 12.996094 L 58.183594 11.074219 L 58.140625 11.058594 L 57.445312 13.152344 L 56.8125 14.921875 L 57.445312 13.152344 L 56.847656 14.933594 Z M 35.960938 10.855469 L 35.957031 10.855469 L 37.164062 14.761719 Z M 56.167969 12.472656 L 56.699219 10.609375 L 56.167969 12.472656 L 56.636719 10.59375 L 56.140625 12.574219 L 55.578125 14.539062 L 55.644531 14.558594 Z M 37.925781 12.414062 L 38.523438 14.367188 Z M 31.863281 12.421875 L 31.679688 12.5 L 32.609375 14.363281 Z M 54.769531 12.214844 L 54.339844 14.210938 Z M 39.300781 12.078125 L 39.757812 14.070312 Z M 53.398438 11.835938 L 53.808594 9.914062 L 53.398438 11.835938 L 53.722656 9.894531 L 53.382812 11.910156 L 52.957031 13.90625 L 53.050781 13.925781 Z M 41.121094 13.796875 L 40.679688 11.738281 L 40.378906 9.777344 L 40.679688 11.738281 L 40.265625 9.800781 L 40.6875 11.796875 L 41 13.816406 Z M 51.695312 13.683594 L 51.988281 11.664062 Z M 42.40625 13.59375 L 42.046875 11.273438 L 41.800781 9.554688 L 42.042969 11.253906 L 41.78125 9.558594 L 42.085938 11.550781 L 42.378906 13.597656 Z M 50.589844 11.421875 L 50.867188 9.457031 L 50.589844 11.421875 L 50.753906 9.441406 L 50.578125 11.476562 L 50.292969 13.5 L 50.414062 13.515625 Z M 43.8125 13.433594 L 43.496094 11.371094 L 43.355469 9.378906 L 43.496094 11.371094 L 43.191406 9.398438 L 43.5 11.414062 L 43.644531 13.453125 Z M 49.171875 11.347656 L 49.023438 13.386719 Z M 45.058594 13.347656 L 44.917969 11.3125 Z M 47.753906 11.277344 L 47.925781 9.242188 L 47.75 9.238281 L 47.75 11.320312 L 47.582031 13.3125 L 47.75 11.320312 L 47.75 13.320312 Z M 46.335938 9.222656 L 46.332031 9.222656 L 46.335938 13.308594 Z M 37.496094 10.414062 L 37.320312 10.460938 L 37.933594 12.453125 Z M 38.875 10.078125 L 38.839844 10.089844 L 39.347656 12.292969 Z M 55.417969 10.277344 L 55.195312 10.21875 L 54.761719 12.246094 Z M 52.324219 9.648438 L 52.273438 9.640625 L 51.964844 11.808594 Z M 49.339844 9.3125 L 49.3125 9.3125 L 49.148438 11.636719 Z M 44.917969 9.269531 L 44.769531 9.277344 L 44.917969 11.363281 Z M 44.917969 9.269531 " fill-opacity="1" fill-rule="nonzero"/></g><g clip-path="url(#70b1472a55)"><path fill="#6a75f1" d="M 35.757812 65.945312 L 32.402344 67.882812 L 30.570312 68.9375 L 31.863281 69.683594 L 34.222656 71.050781 L 40.925781 74.921875 L 46.113281 77.910156 L 74.621094 61.453125 L 74.621094 28.539062 L 66.980469 24.128906 L 66.84375 24.054688 C 60.792969 27.546875 54.753906 31.03125 48.703125 34.523438 L 48.703125 52.476562 L 49.996094 51.730469 L 52.785156 50.121094 L 53.878906 49.488281 L 56.71875 47.847656 L 59.078125 46.5 L 59.078125 52.488281 L 50.3125 57.550781 L 46.125 59.96875 L 40.945312 62.957031 L 46.132812 65.945312 L 64.277344 55.476562 L 64.277344 37.523438 C 61.085938 39.367188 57.898438 41.207031 54.710938 43.046875 L 53.910156 43.511719 L 53.910156 37.535156 C 58.226562 35.039062 62.550781 32.546875 66.863281 30.050781 L 69.453125 31.546875 L 69.453125 58.484375 L 46.132812 71.957031 L 40.945312 68.96875 L 38.03125 67.285156 Z M 35.757812 65.945312 " fill-opacity="1" fill-rule="evenodd"/></g><g clip-path="url(#77c680be61)"><path fill="#5a84e9" d="M 56.488281 24.054688 L 59.847656 22.117188 L 61.675781 21.066406 L 60.382812 20.320312 L 58.027344 18.949219 L 51.324219 15.078125 L 46.125 12.089844 L 17.617188 28.546875 L 17.617188 61.464844 L 25.257812 65.875 L 25.394531 65.945312 C 31.445312 62.453125 37.484375 58.96875 43.535156 55.476562 L 43.535156 37.535156 L 42.242188 38.28125 L 39.453125 39.890625 L 38.359375 40.523438 L 33.179688 43.511719 L 33.179688 37.523438 L 41.945312 32.460938 L 46.132812 30.042969 L 51.324219 27.054688 L 46.132812 24.066406 L 27.980469 34.535156 L 27.980469 52.488281 C 31.171875 50.644531 34.359375 48.804688 37.546875 46.964844 L 38.347656 46.5 L 38.347656 52.476562 C 34.03125 54.972656 29.707031 57.464844 25.394531 59.960938 L 22.804688 58.464844 L 22.804688 31.527344 L 46.125 18.054688 L 51.3125 21.042969 L 54.226562 22.726562 Z M 56.488281 24.054688 " fill-opacity="1" fill-rule="evenodd"/></g></g></g><g transform="matrix(1, 0, 0, 1, 114, 29)"><g clip-path="url(#deb5727ad3)"><g fill="#6a75f1" fill-opacity="1"><g transform="translate(0.861753, 43.881307)"><g><path d="M 20.78125 -25.5 C 20.5625 -25.15625 20.332031 -24.894531 20.09375 -24.71875 C 19.851562 -24.539062 19.539062 -24.453125 19.15625 -24.453125 C 18.820312 -24.453125 18.457031 -24.554688 18.0625 -24.765625 C 17.675781 -24.984375 17.238281 -25.222656 16.75 -25.484375 C 16.257812 -25.742188 15.695312 -25.976562 15.0625 -26.1875 C 14.4375 -26.40625 13.722656 -26.515625 12.921875 -26.515625 C 11.523438 -26.515625 10.484375 -26.21875 9.796875 -25.625 C 9.117188 -25.03125 8.78125 -24.226562 8.78125 -23.21875 C 8.78125 -22.570312 8.984375 -22.035156 9.390625 -21.609375 C 9.804688 -21.191406 10.347656 -20.828125 11.015625 -20.515625 C 11.679688 -20.210938 12.441406 -19.929688 13.296875 -19.671875 C 14.160156 -19.410156 15.035156 -19.125 15.921875 -18.8125 C 16.816406 -18.5 17.691406 -18.128906 18.546875 -17.703125 C 19.410156 -17.273438 20.175781 -16.734375 20.84375 -16.078125 C 21.507812 -15.421875 22.046875 -14.617188 22.453125 -13.671875 C 22.859375 -12.734375 23.0625 -11.597656 23.0625 -10.265625 C 23.0625 -8.785156 22.804688 -7.398438 22.296875 -6.109375 C 21.785156 -4.816406 21.039062 -3.691406 20.0625 -2.734375 C 19.09375 -1.773438 17.894531 -1.019531 16.46875 -0.46875 C 15.039062 0.0703125 13.414062 0.34375 11.59375 0.34375 C 10.601562 0.34375 9.59375 0.238281 8.5625 0.03125 C 7.53125 -0.164062 6.53125 -0.453125 5.5625 -0.828125 C 4.59375 -1.203125 3.679688 -1.644531 2.828125 -2.15625 C 1.984375 -2.664062 1.242188 -3.234375 0.609375 -3.859375 L 2.8125 -7.34375 C 2.988281 -7.59375 3.21875 -7.800781 3.5 -7.96875 C 3.789062 -8.132812 4.101562 -8.21875 4.4375 -8.21875 C 4.875 -8.21875 5.316406 -8.078125 5.765625 -7.796875 C 6.210938 -7.515625 6.71875 -7.207031 7.28125 -6.875 C 7.84375 -6.539062 8.488281 -6.234375 9.21875 -5.953125 C 9.957031 -5.671875 10.820312 -5.53125 11.8125 -5.53125 C 13.164062 -5.53125 14.210938 -5.828125 14.953125 -6.421875 C 15.703125 -7.015625 16.078125 -7.957031 16.078125 -9.25 C 16.078125 -10 15.867188 -10.609375 15.453125 -11.078125 C 15.046875 -11.546875 14.507812 -11.929688 13.84375 -12.234375 C 13.1875 -12.546875 12.429688 -12.816406 11.578125 -13.046875 C 10.722656 -13.285156 9.847656 -13.546875 8.953125 -13.828125 C 8.066406 -14.109375 7.195312 -14.457031 6.34375 -14.875 C 5.5 -15.300781 4.742188 -15.851562 4.078125 -16.53125 C 3.410156 -17.207031 2.867188 -18.054688 2.453125 -19.078125 C 2.046875 -20.097656 1.84375 -21.351562 1.84375 -22.84375 C 1.84375 -24.050781 2.082031 -25.222656 2.5625 -26.359375 C 3.050781 -27.503906 3.765625 -28.519531 4.703125 -29.40625 C 5.640625 -30.300781 6.785156 -31.015625 8.140625 -31.546875 C 9.503906 -32.085938 11.066406 -32.359375 12.828125 -32.359375 C 13.804688 -32.359375 14.757812 -32.28125 15.6875 -32.125 C 16.625 -31.976562 17.507812 -31.753906 18.34375 -31.453125 C 19.175781 -31.148438 19.953125 -30.789062 20.671875 -30.375 C 21.398438 -29.957031 22.050781 -29.484375 22.625 -28.953125 Z M 20.78125 -25.5 "/></g></g></g><g fill="#6a75f1" fill-opacity="1"><g transform="translate(25.199698, 43.881307)"><g><path d="M 10.5625 -26.296875 L 10.5625 -18.828125 L 20.625 -18.828125 L 20.625 -13.328125 L 10.5625 -13.328125 L 10.5625 -5.71875 L 23.703125 -5.71875 L 23.703125 0 L 3.09375 0 L 3.09375 -32.015625 L 23.703125 -32.015625 L 23.703125 -26.296875 Z M 10.5625 -26.296875 "/></g></g></g><g fill="#6a75f1" fill-opacity="1"><g transform="translate(50.37234, 43.881307)"><g><path d="M 31.046875 -32.015625 L 31.046875 0 L 27.171875 0 C 26.597656 0 26.117188 -0.0859375 25.734375 -0.265625 C 25.347656 -0.453125 24.960938 -0.773438 24.578125 -1.234375 L 9.484375 -20.328125 C 9.546875 -19.753906 9.585938 -19.195312 9.609375 -18.65625 C 9.628906 -18.125 9.640625 -17.625 9.640625 -17.15625 L 9.640625 0 L 3.09375 0 L 3.09375 -32.015625 L 7.015625 -32.015625 C 7.328125 -32.015625 7.59375 -32 7.8125 -31.96875 C 8.039062 -31.9375 8.238281 -31.878906 8.40625 -31.796875 C 8.582031 -31.710938 8.75 -31.597656 8.90625 -31.453125 C 9.070312 -31.304688 9.257812 -31.109375 9.46875 -30.859375 L 24.6875 -11.640625 C 24.613281 -12.253906 24.5625 -12.847656 24.53125 -13.421875 C 24.507812 -14.003906 24.5 -14.554688 24.5 -15.078125 L 24.5 -32.015625 Z M 31.046875 -32.015625 "/></g></g></g><g fill="#6a75f1" fill-opacity="1"><g transform="translate(84.50697, 43.881307)"><g><path d="M 32.140625 -16.015625 C 32.140625 -13.703125 31.738281 -11.566406 30.9375 -9.609375 C 30.144531 -7.648438 29.019531 -5.957031 27.5625 -4.53125 C 26.113281 -3.101562 24.367188 -1.988281 22.328125 -1.1875 C 20.285156 -0.394531 18.019531 0 15.53125 0 L 3.09375 0 L 3.09375 -32.015625 L 15.53125 -32.015625 C 18.019531 -32.015625 20.285156 -31.609375 22.328125 -30.796875 C 24.367188 -29.992188 26.113281 -28.878906 27.5625 -27.453125 C 29.019531 -26.035156 30.144531 -24.347656 30.9375 -22.390625 C 31.738281 -20.441406 32.140625 -18.316406 32.140625 -16.015625 Z M 24.546875 -16.015625 C 24.546875 -17.597656 24.335938 -19.023438 23.921875 -20.296875 C 23.515625 -21.566406 22.925781 -22.644531 22.15625 -23.53125 C 21.382812 -24.425781 20.441406 -25.109375 19.328125 -25.578125 C 18.210938 -26.054688 16.945312 -26.296875 15.53125 -26.296875 L 10.5625 -26.296875 L 10.5625 -5.71875 L 15.53125 -5.71875 C 16.945312 -5.71875 18.210938 -5.953125 19.328125 -6.421875 C 20.441406 -6.898438 21.382812 -7.582031 22.15625 -8.46875 C 22.925781 -9.351562 23.515625 -10.429688 23.921875 -11.703125 C 24.335938 -12.984375 24.546875 -14.421875 24.546875 -16.015625 Z M 24.546875 -16.015625 "/></g></g></g><g fill="#9f80f2" fill-opacity="1"><g transform="translate(117.939884, 43.881307)"><g><path d="M 37.984375 -31.765625 L 37.984375 0 L 32.78125 0 L 32.78125 -20.515625 C 32.78125 -21.335938 32.820312 -22.222656 32.90625 -23.171875 L 23.3125 -5.140625 C 22.851562 -4.273438 22.15625 -3.84375 21.21875 -3.84375 L 20.390625 -3.84375 C 19.453125 -3.84375 18.753906 -4.273438 18.296875 -5.140625 L 8.59375 -23.25 C 8.632812 -22.757812 8.671875 -22.28125 8.703125 -21.8125 C 8.734375 -21.34375 8.75 -20.910156 8.75 -20.515625 L 8.75 0 L 3.53125 0 L 3.53125 -31.765625 L 8 -31.765625 C 8.257812 -31.765625 8.484375 -31.753906 8.671875 -31.734375 C 8.867188 -31.722656 9.039062 -31.6875 9.1875 -31.625 C 9.34375 -31.570312 9.484375 -31.476562 9.609375 -31.34375 C 9.734375 -31.21875 9.851562 -31.046875 9.96875 -30.828125 L 19.484375 -13.1875 C 19.734375 -12.71875 19.960938 -12.234375 20.171875 -11.734375 C 20.390625 -11.234375 20.597656 -10.71875 20.796875 -10.1875 C 21.003906 -10.726562 21.21875 -11.25 21.4375 -11.75 C 21.65625 -12.257812 21.890625 -12.75 22.140625 -13.21875 L 31.53125 -30.828125 C 31.644531 -31.046875 31.765625 -31.21875 31.890625 -31.34375 C 32.023438 -31.476562 32.171875 -31.570312 32.328125 -31.625 C 32.484375 -31.6875 32.65625 -31.722656 32.84375 -31.734375 C 33.03125 -31.753906 33.257812 -31.765625 33.53125 -31.765625 Z M 37.984375 -31.765625 "/></g></g></g><g fill="#9f80f2" fill-opacity="1"><g transform="translate(159.45497, 43.881307)"><g><path d="M 16.328125 -4.765625 C 17.460938 -4.765625 18.476562 -4.953125 19.375 -5.328125 C 20.28125 -5.710938 21.039062 -6.25 21.65625 -6.9375 C 22.269531 -7.625 22.742188 -8.457031 23.078125 -9.4375 C 23.410156 -10.425781 23.578125 -11.523438 23.578125 -12.734375 L 23.578125 -31.765625 L 29.484375 -31.765625 L 29.484375 -12.734375 C 29.484375 -10.847656 29.175781 -9.101562 28.5625 -7.5 C 27.957031 -5.894531 27.085938 -4.507812 25.953125 -3.34375 C 24.816406 -2.1875 23.4375 -1.28125 21.8125 -0.625 C 20.1875 0.0195312 18.359375 0.34375 16.328125 0.34375 C 14.273438 0.34375 12.4375 0.0195312 10.8125 -0.625 C 9.1875 -1.28125 7.804688 -2.1875 6.671875 -3.34375 C 5.535156 -4.507812 4.660156 -5.894531 4.046875 -7.5 C 3.441406 -9.101562 3.140625 -10.847656 3.140625 -12.734375 L 3.140625 -31.765625 L 9.046875 -31.765625 L 9.046875 -12.765625 C 9.046875 -11.546875 9.210938 -10.445312 9.546875 -9.46875 C 9.878906 -8.488281 10.351562 -7.648438 10.96875 -6.953125 C 11.59375 -6.253906 12.351562 -5.710938 13.25 -5.328125 C 14.15625 -4.953125 15.179688 -4.765625 16.328125 -4.765625 Z M 16.328125 -4.765625 "/></g></g></g><g clip-path="url(#40db59afec)"><g fill="#9f80f2" fill-opacity="1"><g transform="translate(192.073966, 43.881307)"><g><path d="M 29.34375 0 L 23.46875 0 C 23.050781 0 22.722656 -0.0976562 22.484375 -0.296875 C 22.242188 -0.503906 22.050781 -0.742188 21.90625 -1.015625 L 14.546875 -13.203125 C 14.429688 -12.835938 14.289062 -12.523438 14.125 -12.265625 L 7.078125 -1.015625 C 6.898438 -0.765625 6.695312 -0.53125 6.46875 -0.3125 C 6.238281 -0.101562 5.941406 0 5.578125 0 L 0.0625 0 L 10.609375 -16.34375 L 0.484375 -31.765625 L 6.375 -31.765625 C 6.78125 -31.765625 7.070312 -31.707031 7.25 -31.59375 C 7.4375 -31.488281 7.613281 -31.3125 7.78125 -31.0625 L 15 -19.421875 C 15.144531 -19.785156 15.320312 -20.148438 15.53125 -20.515625 L 22.171875 -30.953125 C 22.328125 -31.234375 22.5 -31.4375 22.6875 -31.5625 C 22.882812 -31.695312 23.128906 -31.765625 23.421875 -31.765625 L 29.0625 -31.765625 L 18.84375 -16.59375 Z M 29.34375 0 "/></g></g></g></g></g></g></svg>