<svg xmlns="http://www.w3.org/2000/svg" xmlns:xlink="http://www.w3.org/1999/xlink" width="450" zoomAndPan="magnify" viewBox="0 0 337.91998 112.499997" height="150" preserveAspectRatio="xMidYMid meet" version="1.0"><defs><g/><clipPath id="a6facdcfdb"><path d="M 1.019531 0.230469 L 91.414062 0.230469 L 91.414062 89.792969 L 1.019531 89.792969 Z M 1.019531 0.230469 " clip-rule="nonzero"/></clipPath><clipPath id="c1553769a1"><path d="M 30 24 L 74.699219 24 L 74.699219 77.949219 L 30 77.949219 Z M 30 24 " clip-rule="nonzero"/></clipPath><clipPath id="77292faf33"><path d="M 17.707031 12.089844 L 62 12.089844 L 62 66 L 17.707031 66 Z M 17.707031 12.089844 " clip-rule="nonzero"/></clipPath><clipPath id="3dc5ac2981"><rect x="0" width="92" y="0" height="90"/></clipPath><clipPath id="1cc5833098"><path d="M 192 12 L 221.9375 12 L 221.9375 44 L 192 44 Z M 192 12 " clip-rule="nonzero"/></clipPath><clipPath id="715fd2ee80"><rect x="0" width="222" y="0" height="54"/></clipPath></defs><g transform="matrix(1, 0, 0, 1, 2, 11)"><g clip-path="url(#3dc5ac2981)"><g clip-path="url(#a6facdcfdb)"><path fill="#e9effa" d="M 91.414062 45.449219 C 91.414062 57.125 86.972656 68.203125 78.917969 76.644531 L 78.238281 76 L 77.980469 75.753906 L 77.117188 74.929688 C 84.730469 66.953125 88.925781 56.484375 88.925781 45.449219 Z M 46.214844 0.253906 L 46.214844 2.738281 C 57.625 2.738281 68.351562 7.183594 76.417969 15.25 L 77.085938 14.578125 L 78.175781 13.492188 C 69.640625 4.953125 58.289062 0.253906 46.214844 0.253906 Z M 3.507812 45.449219 L 1.019531 45.449219 C 1.019531 57.636719 5.800781 69.058594 14.472656 77.621094 L 15.171875 76.914062 L 15.421875 76.660156 L 16.21875 75.851562 C 8.023438 67.761719 3.507812 56.964844 3.507812 45.449219 Z M 11.519531 18.457031 C 5.523438 26.132812 2.214844 35.675781 2.175781 45.449219 L 2.53125 45.449219 C 2.570312 35.765625 5.84375 26.316406 11.777344 18.707031 C 11.957031 18.472656 12.140625 18.242188 12.328125 18.011719 L 12.050781 17.789062 C 11.871094 18.007812 11.695312 18.230469 11.519531 18.457031 Z M 36.4375 88.292969 C 28.507812 86.46875 21.203125 82.40625 15.421875 76.660156 L 15.171875 76.914062 C 21 82.710938 28.367188 86.800781 36.363281 88.640625 C 36.699219 88.71875 37.039062 88.792969 37.375 88.859375 L 37.445312 88.511719 C 37.109375 88.441406 36.773438 88.371094 36.4375 88.292969 Z M 22.648438 8.351562 L 22.84375 8.652344 C 23.128906 8.46875 23.417969 8.289062 23.707031 8.117188 C 30.488281 4.023438 38.25 1.859375 46.214844 1.851562 L 46.214844 1.496094 C 38.191406 1.503906 30.378906 3.679688 23.550781 7.796875 C 23.246094 7.976562 22.949219 8.160156 22.648438 8.351562 Z M 58.289062 87.726562 C 57.921875 87.832031 57.554688 87.929688 57.183594 88.027344 L 57.273438 88.367188 C 57.644531 88.273438 58.007812 88.175781 58.375 88.066406 C 65.914062 85.914062 72.820312 81.703125 78.238281 76 L 77.980469 75.753906 C 72.609375 81.414062 65.765625 85.585938 58.289062 87.726562 Z M 77.433594 14.421875 C 77.402344 14.390625 77.371094 14.359375 77.339844 14.328125 L 77.085938 14.578125 C 77.117188 14.609375 77.152344 14.640625 77.183594 14.671875 C 85.398438 22.898438 89.945312 33.824219 89.988281 45.449219 L 90.347656 45.449219 C 90.300781 33.726562 85.71875 22.714844 77.433594 14.421875 Z M 12.386719 16.769531 C 11.796875 16.769531 11.320312 17.246094 11.320312 17.832031 C 11.320312 18.417969 11.796875 18.898438 12.386719 18.898438 C 12.972656 18.898438 13.449219 18.417969 13.449219 17.832031 C 13.449219 17.246094 12.972656 16.769531 12.386719 16.769531 Z M 37.425781 87.628906 C 36.835938 87.628906 36.359375 88.105469 36.359375 88.691406 C 36.359375 89.28125 36.839844 89.757812 37.425781 89.757812 C 38.015625 89.757812 38.492188 89.277344 38.492188 88.691406 C 38.492188 88.101562 38.015625 87.628906 37.425781 87.628906 Z M 57.316406 87.09375 C 56.726562 87.09375 56.25 87.570312 56.25 88.15625 C 56.25 88.746094 56.730469 89.222656 57.316406 89.222656 C 57.90625 89.222656 58.378906 88.742188 58.378906 88.15625 C 58.378906 87.570312 57.90625 87.09375 57.316406 87.09375 Z M 22.683594 7.355469 C 22.097656 7.355469 21.621094 7.832031 21.621094 8.421875 C 21.621094 9.007812 22.097656 9.484375 22.683594 9.484375 C 23.273438 9.484375 23.75 9.007812 23.75 8.421875 C 23.75 7.832031 23.273438 7.355469 22.683594 7.355469 Z M 46.238281 86.117188 C 46.4375 86.117188 46.59375 85.953125 46.59375 85.761719 C 46.59375 85.5625 46.433594 85.40625 46.238281 85.40625 C 46.042969 85.40625 45.882812 85.566406 45.882812 85.761719 C 45.882812 85.957031 46.042969 86.117188 46.238281 86.117188 Z M 44.640625 86.085938 C 44.832031 86.085938 44.988281 85.9375 44.996094 85.746094 C 45 85.550781 44.847656 85.382812 44.65625 85.375 C 44.457031 85.371094 44.292969 85.523438 44.285156 85.71875 C 44.277344 85.914062 44.429688 86.078125 44.625 86.085938 C 44.632812 86.085938 44.636719 86.085938 44.640625 86.085938 Z M 47.835938 86.085938 C 47.839844 86.085938 47.847656 86.085938 47.851562 86.085938 C 48.046875 86.074219 48.199219 85.910156 48.191406 85.714844 C 48.183594 85.519531 48.019531 85.363281 47.820312 85.375 C 47.625 85.378906 47.472656 85.546875 47.480469 85.742188 C 47.488281 85.9375 47.644531 86.085938 47.835938 86.085938 Z M 43.046875 85.992188 C 43.230469 85.992188 43.386719 85.851562 43.398438 85.664062 C 43.417969 85.46875 43.269531 85.296875 43.074219 85.28125 C 42.875 85.265625 42.707031 85.410156 42.691406 85.609375 C 42.675781 85.804688 42.820312 85.972656 43.019531 85.992188 C 43.027344 85.992188 43.035156 85.992188 43.046875 85.992188 Z M 49.429688 85.988281 C 49.441406 85.988281 49.449219 85.988281 49.460938 85.984375 C 49.660156 85.96875 49.804688 85.800781 49.789062 85.605469 C 49.773438 85.40625 49.601562 85.265625 49.402344 85.277344 L 49.40625 85.277344 C 49.210938 85.292969 49.0625 85.464844 49.078125 85.660156 C 49.09375 85.847656 49.246094 85.988281 49.429688 85.988281 Z M 41.453125 85.832031 C 41.632812 85.832031 41.785156 85.699219 41.808594 85.519531 C 41.832031 85.324219 41.691406 85.148438 41.496094 85.125 C 41.300781 85.101562 41.125 85.238281 41.101562 85.433594 C 41.078125 85.632812 41.214844 85.804688 41.410156 85.828125 C 41.425781 85.832031 41.441406 85.832031 41.453125 85.832031 Z M 51.019531 85.828125 C 51.035156 85.828125 51.050781 85.828125 51.0625 85.824219 C 51.261719 85.800781 51.398438 85.625 51.375 85.429688 C 51.351562 85.234375 51.175781 85.097656 50.976562 85.121094 C 50.78125 85.144531 50.644531 85.320312 50.667969 85.515625 C 50.691406 85.695312 50.84375 85.828125 51.019531 85.828125 Z M 39.871094 85.613281 C 40.046875 85.613281 40.195312 85.488281 40.222656 85.3125 C 40.253906 85.121094 40.121094 84.9375 39.929688 84.90625 C 39.738281 84.875 39.554688 85.007812 39.523438 85.199219 C 39.492188 85.394531 39.621094 85.574219 39.816406 85.609375 C 39.835938 85.609375 39.855469 85.613281 39.871094 85.613281 Z M 52.601562 85.605469 C 52.621094 85.605469 52.640625 85.601562 52.660156 85.601562 C 52.855469 85.570312 52.988281 85.386719 52.953125 85.191406 C 52.925781 84.996094 52.738281 84.863281 52.546875 84.898438 C 52.351562 84.929688 52.21875 85.113281 52.253906 85.304688 C 52.28125 85.480469 52.429688 85.605469 52.601562 85.605469 Z M 38.300781 85.328125 C 38.464844 85.328125 38.613281 85.210938 38.648438 85.042969 C 38.6875 84.851562 38.5625 84.664062 38.371094 84.625 C 38.175781 84.585938 37.988281 84.710938 37.949219 84.902344 C 37.910156 85.09375 38.035156 85.28125 38.230469 85.324219 C 38.253906 85.324219 38.277344 85.328125 38.300781 85.328125 Z M 54.175781 85.316406 C 54.199219 85.316406 54.222656 85.3125 54.246094 85.308594 C 54.4375 85.269531 54.5625 85.085938 54.523438 84.890625 C 54.484375 84.699219 54.296875 84.578125 54.105469 84.613281 C 53.914062 84.652344 53.789062 84.839844 53.828125 85.03125 C 53.859375 85.203125 54.011719 85.316406 54.175781 85.316406 Z M 36.742188 84.976562 C 36.902344 84.976562 37.046875 84.871094 37.085938 84.707031 C 37.132812 84.515625 37.015625 84.324219 36.828125 84.277344 C 36.632812 84.234375 36.441406 84.347656 36.398438 84.539062 C 36.351562 84.730469 36.464844 84.921875 36.65625 84.96875 C 36.683594 84.972656 36.714844 84.976562 36.742188 84.976562 Z M 55.734375 84.96875 C 55.765625 84.96875 55.792969 84.964844 55.820312 84.957031 C 56.011719 84.910156 56.128906 84.71875 56.082031 84.527344 C 56.035156 84.335938 55.84375 84.21875 55.648438 84.269531 C 55.460938 84.3125 55.34375 84.507812 55.390625 84.699219 C 55.429688 84.859375 55.574219 84.96875 55.734375 84.96875 Z M 35.195312 84.566406 C 35.351562 84.566406 35.492188 84.464844 35.535156 84.3125 C 35.589844 84.125 35.480469 83.925781 35.292969 83.871094 C 35.105469 83.816406 34.90625 83.925781 34.855469 84.117188 C 34.800781 84.304688 34.90625 84.5 35.097656 84.554688 C 35.132812 84.5625 35.164062 84.566406 35.195312 84.566406 Z M 57.28125 84.554688 C 57.3125 84.554688 57.34375 84.550781 57.378906 84.542969 C 57.566406 84.488281 57.675781 84.289062 57.621094 84.101562 C 57.570312 83.914062 57.371094 83.804688 57.183594 83.859375 C 56.996094 83.914062 56.882812 84.113281 56.9375 84.300781 C 56.984375 84.453125 57.125 84.554688 57.28125 84.554688 Z M 33.671875 84.09375 C 33.816406 84.09375 33.957031 84 34.007812 83.851562 C 34.070312 83.664062 33.96875 83.460938 33.78125 83.402344 C 33.597656 83.339844 33.398438 83.441406 33.335938 83.625 C 33.269531 83.8125 33.375 84.011719 33.558594 84.074219 C 33.59375 84.085938 33.632812 84.09375 33.671875 84.09375 Z M 58.804688 84.082031 C 58.84375 84.082031 58.878906 84.074219 58.917969 84.0625 C 59.101562 84 59.203125 83.796875 59.140625 83.613281 C 59.078125 83.425781 58.878906 83.328125 58.691406 83.390625 C 58.507812 83.453125 58.40625 83.652344 58.46875 83.839844 C 58.519531 83.984375 58.65625 84.082031 58.804688 84.082031 Z M 32.160156 83.554688 C 32.304688 83.554688 32.441406 83.46875 32.492188 83.328125 C 32.5625 83.144531 32.46875 82.9375 32.285156 82.871094 C 32.101562 82.800781 31.898438 82.890625 31.828125 83.074219 C 31.761719 83.261719 31.851562 83.464844 32.035156 83.535156 C 32.078125 83.546875 32.117188 83.554688 32.160156 83.554688 Z M 60.308594 83.542969 C 60.351562 83.542969 60.394531 83.535156 60.433594 83.519531 C 60.617188 83.449219 60.710938 83.242188 60.640625 83.0625 C 60.574219 82.878906 60.367188 82.785156 60.183594 82.855469 C 60 82.921875 59.910156 83.128906 59.976562 83.3125 C 60.03125 83.453125 60.167969 83.542969 60.308594 83.542969 Z M 30.675781 82.960938 C 30.8125 82.960938 30.945312 82.878906 31.003906 82.742188 C 31.078125 82.558594 30.996094 82.355469 30.8125 82.277344 C 30.636719 82.199219 30.425781 82.28125 30.347656 82.460938 C 30.273438 82.644531 30.355469 82.851562 30.535156 82.929688 C 30.582031 82.949219 30.628906 82.960938 30.675781 82.960938 Z M 61.789062 82.945312 C 61.835938 82.945312 61.882812 82.9375 61.925781 82.914062 C 62.109375 82.839844 62.191406 82.632812 62.113281 82.449219 C 62.035156 82.269531 61.828125 82.183594 61.648438 82.261719 L 61.648438 82.265625 C 61.464844 82.339844 61.382812 82.550781 61.460938 82.730469 C 61.519531 82.863281 61.648438 82.945312 61.789062 82.945312 Z M 29.214844 82.300781 C 29.34375 82.300781 29.472656 82.222656 29.535156 82.097656 C 29.617188 81.917969 29.539062 81.707031 29.367188 81.625 C 29.1875 81.539062 28.976562 81.617188 28.890625 81.792969 C 28.808594 81.96875 28.882812 82.179688 29.0625 82.265625 C 29.109375 82.289062 29.164062 82.300781 29.214844 82.300781 Z M 63.242188 82.289062 C 63.292969 82.292969 63.34375 82.277344 63.394531 82.253906 C 63.570312 82.171875 63.648438 81.960938 63.5625 81.785156 C 63.480469 81.605469 63.269531 81.527344 63.089844 81.613281 C 62.914062 81.699219 62.835938 81.910156 62.921875 82.085938 C 62.980469 82.214844 63.109375 82.289062 63.242188 82.289062 Z M 27.78125 81.582031 C 27.910156 81.582031 28.035156 81.515625 28.097656 81.394531 C 28.1875 81.21875 28.121094 81.003906 27.949219 80.914062 C 27.777344 80.824219 27.5625 80.886719 27.46875 81.0625 C 27.378906 81.234375 27.441406 81.449219 27.617188 81.542969 C 27.667969 81.574219 27.726562 81.582031 27.78125 81.582031 Z M 64.667969 81.578125 C 64.726562 81.578125 64.78125 81.5625 64.832031 81.535156 C 65.007812 81.445312 65.074219 81.230469 64.980469 81.054688 C 64.890625 80.882812 64.675781 80.8125 64.5 80.90625 C 64.328125 80.996094 64.257812 81.210938 64.351562 81.386719 C 64.417969 81.507812 64.539062 81.574219 64.667969 81.578125 Z M 26.378906 80.8125 C 26.503906 80.8125 26.621094 80.746094 26.6875 80.632812 C 26.789062 80.460938 26.730469 80.246094 26.558594 80.148438 C 26.386719 80.050781 26.171875 80.109375 26.074219 80.277344 C 25.976562 80.449219 26.03125 80.664062 26.203125 80.761719 C 26.257812 80.796875 26.320312 80.8125 26.378906 80.8125 Z M 66.066406 80.804688 C 66.125 80.804688 66.1875 80.789062 66.242188 80.757812 C 66.410156 80.660156 66.46875 80.441406 66.371094 80.273438 C 66.273438 80.101562 66.054688 80.042969 65.886719 80.144531 C 65.714844 80.242188 65.65625 80.457031 65.757812 80.628906 C 65.824219 80.738281 65.941406 80.804688 66.066406 80.804688 Z M 25.011719 79.980469 C 25.128906 79.980469 25.242188 79.925781 25.3125 79.816406 C 25.414062 79.652344 25.367188 79.429688 25.199219 79.328125 C 25.035156 79.222656 24.816406 79.273438 24.710938 79.4375 C 24.605469 79.605469 24.65625 79.824219 24.820312 79.929688 C 24.878906 79.964844 24.945312 79.980469 25.011719 79.980469 Z M 67.429688 79.976562 C 67.492188 79.976562 67.558594 79.960938 67.617188 79.921875 C 67.785156 79.820312 67.832031 79.597656 67.730469 79.433594 C 67.625 79.265625 67.402344 79.21875 67.238281 79.324219 C 67.074219 79.425781 67.023438 79.644531 67.128906 79.8125 C 67.195312 79.917969 67.3125 79.976562 67.429688 79.976562 Z M 23.675781 79.097656 C 23.789062 79.097656 23.898438 79.046875 23.96875 78.945312 C 24.082031 78.785156 24.042969 78.566406 23.878906 78.453125 C 23.71875 78.339844 23.496094 78.382812 23.382812 78.542969 C 23.273438 78.703125 23.3125 78.925781 23.472656 79.035156 C 23.535156 79.082031 23.609375 79.097656 23.675781 79.097656 Z M 68.761719 79.097656 C 68.828125 79.097656 68.898438 79.078125 68.960938 79.035156 C 69.121094 78.921875 69.164062 78.703125 69.050781 78.539062 C 68.9375 78.378906 68.71875 78.335938 68.554688 78.449219 C 68.394531 78.5625 68.351562 78.78125 68.464844 78.941406 C 68.535156 79.042969 68.648438 79.097656 68.761719 79.097656 Z M 22.378906 78.164062 C 22.488281 78.164062 22.59375 78.117188 22.664062 78.023438 C 22.78125 77.867188 22.75 77.644531 22.59375 77.523438 C 22.433594 77.410156 22.214844 77.441406 22.097656 77.597656 C 21.976562 77.753906 22.007812 77.976562 22.164062 78.09375 C 22.230469 78.140625 22.304688 78.164062 22.378906 78.164062 Z M 70.054688 78.160156 C 70.132812 78.160156 70.203125 78.140625 70.269531 78.089844 C 70.425781 77.972656 70.457031 77.753906 70.339844 77.59375 C 70.222656 77.4375 70 77.40625 69.839844 77.523438 C 69.683594 77.640625 69.652344 77.863281 69.773438 78.023438 C 69.839844 78.113281 69.949219 78.160156 70.054688 78.160156 Z M 21.121094 77.179688 C 21.222656 77.179688 21.328125 77.132812 21.398438 77.046875 C 21.523438 76.898438 21.5 76.671875 21.34375 76.546875 L 21.347656 76.546875 C 21.195312 76.421875 20.972656 76.445312 20.847656 76.597656 C 20.722656 76.75 20.746094 76.972656 20.894531 77.097656 C 20.960938 77.152344 21.042969 77.179688 21.121094 77.179688 Z M 71.3125 77.175781 C 71.390625 77.175781 71.472656 77.152344 71.535156 77.097656 C 71.6875 76.972656 71.710938 76.75 71.585938 76.597656 C 71.464844 76.445312 71.238281 76.425781 71.085938 76.546875 C 70.933594 76.671875 70.914062 76.894531 71.039062 77.046875 C 71.105469 77.132812 71.210938 77.175781 71.3125 77.175781 Z M 72.527344 76.144531 C 72.613281 76.144531 72.699219 76.113281 72.765625 76.054688 C 72.914062 75.925781 72.925781 75.699219 72.792969 75.550781 C 72.664062 75.402344 72.4375 75.390625 72.292969 75.523438 C 72.144531 75.652344 72.132812 75.878906 72.261719 76.023438 C 72.332031 76.101562 72.429688 76.144531 72.527344 76.144531 Z M 19.902344 76.140625 C 20 76.140625 20.097656 76.097656 20.167969 76.023438 C 20.300781 75.875 20.285156 75.652344 20.140625 75.519531 C 19.992188 75.390625 19.769531 75.402344 19.640625 75.550781 C 19.507812 75.695312 19.523438 75.921875 19.667969 76.050781 C 19.734375 76.113281 19.820312 76.140625 19.902344 76.140625 Z M 73.703125 75.058594 C 73.792969 75.058594 73.882812 75.027344 73.949219 74.960938 C 74.089844 74.824219 74.09375 74.597656 73.957031 74.457031 C 73.824219 74.316406 73.597656 74.308594 73.457031 74.445312 C 73.316406 74.582031 73.308594 74.808594 73.445312 74.949219 C 73.519531 75.023438 73.609375 75.058594 73.703125 75.058594 Z M 18.730469 75.058594 C 18.820312 75.058594 18.914062 75.019531 18.984375 74.945312 C 19.121094 74.808594 19.117188 74.582031 18.972656 74.445312 C 18.832031 74.308594 18.609375 74.316406 18.46875 74.453125 C 18.335938 74.597656 18.339844 74.820312 18.480469 74.957031 C 18.550781 75.023438 18.640625 75.058594 18.730469 75.058594 Z M 74.832031 73.929688 C 74.925781 73.929688 75.019531 73.894531 75.089844 73.820312 C 75.085938 73.820312 75.085938 73.820312 75.085938 73.820312 C 75.222656 73.679688 75.21875 73.453125 75.078125 73.316406 C 74.9375 73.179688 74.714844 73.183594 74.578125 73.328125 C 74.4375 73.46875 74.445312 73.691406 74.585938 73.832031 C 74.65625 73.898438 74.742188 73.929688 74.832031 73.929688 Z M 17.597656 73.929688 C 17.6875 73.929688 17.773438 73.894531 17.84375 73.828125 C 17.984375 73.691406 17.992188 73.46875 17.851562 73.324219 C 17.71875 73.183594 17.492188 73.179688 17.351562 73.316406 C 17.210938 73.449219 17.203125 73.679688 17.339844 73.816406 C 17.410156 73.890625 17.507812 73.929688 17.597656 73.929688 Z M 75.917969 72.753906 C 76.015625 72.753906 76.113281 72.714844 76.1875 72.636719 C 76.316406 72.488281 76.300781 72.265625 76.15625 72.132812 C 76.007812 72.003906 75.785156 72.019531 75.652344 72.164062 C 75.523438 72.308594 75.539062 72.535156 75.683594 72.664062 C 75.75 72.726562 75.835938 72.753906 75.917969 72.753906 Z M 16.515625 72.753906 C 16.597656 72.753906 16.679688 72.726562 16.75 72.664062 C 16.894531 72.535156 16.910156 72.308594 16.777344 72.164062 C 16.648438 72.015625 16.425781 72.003906 16.277344 72.136719 C 16.128906 72.265625 16.117188 72.488281 16.246094 72.636719 C 16.320312 72.714844 16.417969 72.753906 16.515625 72.753906 Z M 15.480469 71.539062 C 15.554688 71.539062 15.636719 71.511719 15.703125 71.457031 C 15.855469 71.332031 15.875 71.109375 15.753906 70.960938 L 15.753906 70.957031 C 15.628906 70.808594 15.402344 70.785156 15.253906 70.90625 C 15.101562 71.03125 15.082031 71.257812 15.203125 71.410156 C 15.273438 71.496094 15.375 71.539062 15.480469 71.539062 Z M 76.957031 71.539062 C 77.058594 71.539062 77.160156 71.496094 77.230469 71.410156 C 77.355469 71.257812 77.332031 71.03125 77.179688 70.90625 C 77.027344 70.785156 76.804688 70.808594 76.679688 70.957031 C 76.554688 71.109375 76.578125 71.332031 76.730469 71.457031 C 76.796875 71.511719 76.875 71.539062 76.957031 71.539062 Z M 14.492188 70.285156 C 14.566406 70.285156 14.640625 70.257812 14.703125 70.210938 C 14.863281 70.09375 14.890625 69.871094 14.777344 69.714844 C 14.65625 69.558594 14.433594 69.527344 14.277344 69.644531 C 14.121094 69.761719 14.089844 69.984375 14.207031 70.140625 C 14.277344 70.234375 14.382812 70.285156 14.492188 70.285156 Z M 77.941406 70.277344 C 78.046875 70.277344 78.152344 70.230469 78.226562 70.140625 C 78.34375 69.984375 78.3125 69.757812 78.152344 69.640625 C 77.996094 69.523438 77.773438 69.554688 77.65625 69.710938 C 77.539062 69.867188 77.570312 70.089844 77.726562 70.207031 C 77.792969 70.257812 77.867188 70.277344 77.941406 70.277344 Z M 13.558594 68.988281 C 13.628906 68.988281 13.699219 68.96875 13.757812 68.925781 C 13.917969 68.8125 13.960938 68.589844 13.847656 68.433594 C 13.734375 68.269531 13.515625 68.230469 13.355469 68.34375 C 13.195312 68.453125 13.152344 68.675781 13.265625 68.835938 C 13.265625 68.839844 13.265625 68.839844 13.265625 68.839844 C 13.335938 68.933594 13.445312 68.988281 13.558594 68.988281 Z M 78.878906 68.984375 C 78.992188 68.984375 79.101562 68.929688 79.167969 68.832031 C 79.171875 68.832031 79.171875 68.832031 79.171875 68.832031 C 79.28125 68.667969 79.242188 68.445312 79.082031 68.335938 C 78.921875 68.222656 78.695312 68.265625 78.585938 68.425781 L 78.585938 68.421875 C 78.476562 68.585938 78.515625 68.808594 78.675781 68.917969 C 78.738281 68.964844 78.808594 68.984375 78.878906 68.984375 Z M 12.675781 67.65625 C 12.738281 67.65625 12.808594 67.640625 12.867188 67.601562 C 13.03125 67.5 13.082031 67.277344 12.976562 67.113281 C 12.871094 66.949219 12.648438 66.898438 12.484375 67.003906 C 12.320312 67.109375 12.269531 67.328125 12.375 67.492188 C 12.445312 67.597656 12.558594 67.65625 12.675781 67.65625 Z M 79.761719 67.648438 C 79.878906 67.648438 79.992188 67.59375 80.0625 67.484375 C 80.058594 67.484375 80.058594 67.484375 80.058594 67.484375 C 80.167969 67.320312 80.117188 67.101562 79.953125 66.992188 C 79.785156 66.890625 79.566406 66.9375 79.460938 67.105469 C 79.355469 67.269531 79.40625 67.488281 79.570312 67.59375 C 79.632812 67.632812 79.695312 67.648438 79.761719 67.648438 Z M 11.847656 66.292969 C 11.910156 66.292969 11.972656 66.273438 12.027344 66.242188 C 12.199219 66.144531 12.253906 65.929688 12.15625 65.757812 C 12.058594 65.589844 11.839844 65.53125 11.671875 65.628906 C 11.5 65.726562 11.445312 65.945312 11.542969 66.113281 C 11.605469 66.230469 11.726562 66.292969 11.847656 66.292969 Z M 80.589844 66.28125 C 80.714844 66.28125 80.835938 66.21875 80.898438 66.105469 C 80.996094 65.933594 80.9375 65.71875 80.769531 65.617188 C 80.597656 65.519531 80.382812 65.578125 80.285156 65.75 C 80.183594 65.917969 80.242188 66.136719 80.414062 66.234375 C 80.46875 66.265625 80.53125 66.28125 80.589844 66.28125 Z M 11.078125 64.898438 C 11.128906 64.898438 11.1875 64.886719 11.242188 64.855469 C 11.414062 64.765625 11.480469 64.546875 11.390625 64.375 C 11.300781 64.203125 11.085938 64.136719 10.910156 64.226562 C 10.734375 64.316406 10.667969 64.53125 10.761719 64.707031 C 10.824219 64.828125 10.949219 64.898438 11.078125 64.898438 Z M 81.363281 64.878906 C 81.492188 64.878906 81.617188 64.8125 81.679688 64.691406 C 81.773438 64.515625 81.707031 64.300781 81.53125 64.210938 C 81.359375 64.117188 81.144531 64.1875 81.050781 64.359375 C 80.960938 64.53125 81.027344 64.746094 81.203125 64.839844 C 81.253906 64.867188 81.308594 64.878906 81.363281 64.878906 Z M 10.363281 63.46875 C 10.414062 63.46875 10.464844 63.460938 10.515625 63.4375 C 10.691406 63.351562 10.765625 63.140625 10.683594 62.960938 C 10.597656 62.785156 10.386719 62.710938 10.210938 62.792969 C 10.03125 62.878906 9.957031 63.089844 10.039062 63.265625 C 10.101562 63.398438 10.230469 63.46875 10.363281 63.46875 Z M 82.082031 63.445312 C 82.214844 63.445312 82.339844 63.371094 82.402344 63.242188 C 82.402344 63.246094 82.402344 63.246094 82.402344 63.246094 C 82.484375 63.070312 82.410156 62.855469 82.234375 62.773438 C 82.054688 62.6875 81.84375 62.765625 81.757812 62.941406 C 81.675781 63.117188 81.75 63.328125 81.929688 63.414062 C 81.980469 63.4375 82.03125 63.445312 82.082031 63.445312 Z M 9.703125 62.019531 C 9.753906 62.019531 9.796875 62.011719 9.84375 61.988281 C 10.027344 61.914062 10.109375 61.703125 10.03125 61.523438 C 9.953125 61.34375 9.746094 61.257812 9.566406 61.335938 C 9.382812 61.414062 9.300781 61.621094 9.378906 61.804688 C 9.433594 61.933594 9.566406 62.019531 9.703125 62.019531 Z M 82.738281 61.988281 C 82.875 61.988281 83.007812 61.90625 83.066406 61.773438 C 83.144531 61.589844 83.058594 61.382812 82.878906 61.308594 C 82.699219 61.230469 82.492188 61.3125 82.414062 61.492188 C 82.335938 61.671875 82.417969 61.882812 82.601562 61.957031 C 82.648438 61.980469 82.691406 61.988281 82.738281 61.988281 Z M 9.109375 60.539062 C 9.148438 60.539062 9.191406 60.535156 9.234375 60.519531 C 9.417969 60.445312 9.511719 60.242188 9.441406 60.058594 C 9.371094 59.875 9.167969 59.78125 8.984375 59.855469 C 8.796875 59.921875 8.707031 60.128906 8.777344 60.3125 C 8.828125 60.453125 8.964844 60.539062 9.109375 60.539062 Z M 83.339844 60.503906 C 83.480469 60.503906 83.617188 60.414062 83.671875 60.273438 C 83.742188 60.089844 83.648438 59.886719 83.464844 59.816406 C 83.277344 59.746094 83.074219 59.835938 83.003906 60.023438 C 82.933594 60.207031 83.027344 60.410156 83.210938 60.480469 C 83.253906 60.496094 83.296875 60.503906 83.339844 60.503906 Z M 8.570312 59.035156 C 8.605469 59.035156 8.644531 59.027344 8.683594 59.015625 C 8.867188 58.953125 8.96875 58.75 8.90625 58.566406 C 8.84375 58.378906 8.640625 58.277344 8.457031 58.34375 C 8.269531 58.40625 8.171875 58.605469 8.234375 58.792969 C 8.28125 58.941406 8.421875 59.035156 8.570312 59.035156 Z M 83.875 58.992188 C 84.023438 58.992188 84.164062 58.898438 84.214844 58.75 C 84.277344 58.5625 84.175781 58.363281 83.992188 58.300781 C 83.804688 58.238281 83.601562 58.339844 83.542969 58.523438 C 83.480469 58.710938 83.578125 58.910156 83.765625 58.972656 C 83.800781 58.984375 83.839844 58.992188 83.875 58.992188 Z M 8.09375 57.507812 C 8.125 57.507812 8.15625 57.503906 8.191406 57.496094 C 8.382812 57.441406 8.488281 57.246094 8.433594 57.054688 C 8.382812 56.867188 8.183594 56.757812 7.996094 56.8125 C 7.808594 56.867188 7.699219 57.066406 7.753906 57.253906 C 7.796875 57.40625 7.9375 57.507812 8.09375 57.507812 Z M 84.351562 57.464844 C 84.507812 57.464844 84.648438 57.363281 84.691406 57.207031 C 84.746094 57.019531 84.636719 56.824219 84.449219 56.769531 C 84.261719 56.714844 84.0625 56.824219 84.011719 57.011719 C 83.957031 57.199219 84.0625 57.398438 84.253906 57.449219 C 84.285156 57.464844 84.320312 57.464844 84.351562 57.464844 Z M 7.679688 55.964844 C 7.710938 55.964844 7.734375 55.960938 7.765625 55.953125 C 7.957031 55.910156 8.074219 55.714844 8.023438 55.523438 C 7.976562 55.335938 7.785156 55.21875 7.59375 55.265625 C 7.402344 55.3125 7.289062 55.503906 7.335938 55.695312 C 7.375 55.855469 7.519531 55.964844 7.679688 55.964844 Z M 84.761719 55.921875 C 84.925781 55.921875 85.066406 55.8125 85.109375 55.652344 C 85.15625 55.460938 85.039062 55.269531 84.847656 55.222656 C 84.660156 55.175781 84.464844 55.292969 84.417969 55.484375 C 84.375 55.671875 84.488281 55.867188 84.679688 55.914062 C 84.707031 55.917969 84.738281 55.921875 84.761719 55.921875 Z M 7.328125 54.40625 C 7.351562 54.40625 7.378906 54.402344 7.398438 54.398438 C 7.59375 54.359375 7.714844 54.171875 7.675781 53.980469 C 7.636719 53.789062 7.449219 53.664062 7.257812 53.703125 C 7.066406 53.742188 6.941406 53.929688 6.980469 54.121094 C 7.015625 54.289062 7.164062 54.40625 7.328125 54.40625 Z M 85.113281 54.363281 C 85.277344 54.363281 85.429688 54.25 85.460938 54.078125 C 85.503906 53.886719 85.378906 53.699219 85.183594 53.660156 C 84.992188 53.621094 84.804688 53.746094 84.765625 53.9375 C 84.726562 54.128906 84.851562 54.316406 85.042969 54.355469 C 85.066406 54.363281 85.089844 54.363281 85.113281 54.363281 Z M 7.039062 52.835938 C 7.058594 52.835938 7.078125 52.832031 7.097656 52.828125 C 7.292969 52.800781 7.421875 52.617188 7.390625 52.421875 C 7.359375 52.226562 7.175781 52.097656 6.984375 52.128906 C 6.789062 52.160156 6.65625 52.34375 6.6875 52.535156 C 6.71875 52.710938 6.867188 52.835938 7.039062 52.835938 Z M 85.398438 52.792969 C 85.570312 52.792969 85.722656 52.667969 85.75 52.492188 C 85.78125 52.296875 85.648438 52.113281 85.457031 52.082031 C 85.261719 52.054688 85.082031 52.183594 85.050781 52.378906 C 85.019531 52.574219 85.148438 52.75 85.34375 52.785156 C 85.363281 52.789062 85.382812 52.792969 85.398438 52.792969 Z M 6.816406 51.253906 C 6.832031 51.253906 6.84375 51.253906 6.859375 51.25 C 7.054688 51.226562 7.195312 51.050781 7.167969 50.855469 C 7.144531 50.660156 6.96875 50.519531 6.773438 50.546875 C 6.578125 50.566406 6.441406 50.746094 6.460938 50.941406 C 6.484375 51.121094 6.640625 51.253906 6.816406 51.253906 Z M 85.625 51.207031 C 85.800781 51.207031 85.953125 51.074219 85.972656 50.894531 C 85.996094 50.699219 85.859375 50.523438 85.664062 50.5 C 85.46875 50.472656 85.292969 50.613281 85.269531 50.808594 C 85.246094 51.003906 85.382812 51.183594 85.578125 51.203125 C 85.59375 51.207031 85.609375 51.207031 85.625 51.207031 Z M 6.65625 49.664062 C 6.664062 49.664062 6.671875 49.664062 6.683594 49.660156 C 6.878906 49.644531 7.023438 49.472656 7.007812 49.277344 C 6.992188 49.082031 6.820312 48.9375 6.625 48.949219 C 6.429688 48.96875 6.285156 49.136719 6.300781 49.335938 C 6.316406 49.523438 6.472656 49.664062 6.65625 49.664062 Z M 85.78125 49.617188 C 85.964844 49.617188 86.117188 49.480469 86.132812 49.289062 C 86.148438 49.09375 86.003906 48.921875 85.808594 48.910156 C 85.609375 48.890625 85.441406 49.039062 85.421875 49.234375 C 85.410156 49.429688 85.554688 49.601562 85.75 49.617188 C 85.761719 49.617188 85.773438 49.617188 85.78125 49.617188 Z M 6.558594 48.066406 C 6.5625 48.066406 6.566406 48.066406 6.574219 48.066406 C 6.769531 48.058594 6.921875 47.890625 6.914062 47.699219 C 6.90625 47.5 6.742188 47.347656 6.542969 47.359375 C 6.347656 47.363281 6.195312 47.53125 6.203125 47.726562 C 6.210938 47.917969 6.367188 48.066406 6.558594 48.066406 Z M 85.875 48.023438 C 86.0625 48.023438 86.222656 47.875 86.230469 47.683594 C 86.234375 47.488281 86.085938 47.320312 85.890625 47.3125 C 85.691406 47.308594 85.527344 47.457031 85.519531 47.652344 C 85.511719 47.851562 85.664062 48.015625 85.859375 48.023438 C 85.867188 48.023438 85.871094 48.023438 85.875 48.023438 Z M 6.523438 46.46875 C 6.722656 46.46875 6.878906 46.308594 6.878906 46.117188 C 6.878906 45.917969 6.71875 45.761719 6.523438 45.761719 C 6.328125 45.761719 6.171875 45.921875 6.171875 46.117188 C 6.171875 46.3125 6.332031 46.46875 6.523438 46.46875 Z M 85.90625 46.425781 C 86.105469 46.425781 86.261719 46.265625 86.261719 46.070312 C 86.261719 46.054688 86.261719 46.042969 86.257812 46.027344 C 86.261719 46.011719 86.261719 45.996094 86.261719 45.984375 C 86.261719 45.789062 86.101562 45.628906 85.90625 45.632812 C 85.710938 45.632812 85.550781 45.789062 85.550781 45.984375 C 85.550781 46.003906 85.554688 46.015625 85.558594 46.03125 C 85.554688 46.042969 85.550781 46.058594 85.550781 46.070312 C 85.550781 46.265625 85.710938 46.425781 85.90625 46.425781 Z M 6.558594 44.871094 C 6.746094 44.871094 6.90625 44.722656 6.910156 44.53125 C 6.917969 44.335938 6.765625 44.167969 6.570312 44.160156 C 6.375 44.15625 6.207031 44.308594 6.203125 44.5 C 6.195312 44.699219 6.347656 44.863281 6.542969 44.871094 C 6.546875 44.871094 6.550781 44.871094 6.558594 44.871094 Z M 85.871094 44.738281 C 85.878906 44.738281 85.882812 44.738281 85.890625 44.738281 C 86.085938 44.730469 86.238281 44.566406 86.226562 44.371094 C 86.21875 44.175781 86.054688 44.019531 85.859375 44.03125 C 85.660156 44.039062 85.507812 44.203125 85.515625 44.398438 C 85.527344 44.589844 85.683594 44.738281 85.871094 44.738281 Z M 6.652344 43.277344 C 6.835938 43.277344 6.988281 43.132812 7.003906 42.949219 C 7.019531 42.753906 6.871094 42.582031 6.675781 42.566406 C 6.480469 42.550781 6.308594 42.695312 6.292969 42.890625 C 6.277344 43.089844 6.425781 43.257812 6.621094 43.273438 C 6.628906 43.277344 6.640625 43.277344 6.652344 43.277344 Z M 85.773438 43.144531 C 85.78125 43.144531 85.789062 43.144531 85.800781 43.144531 C 85.996094 43.125 86.140625 42.953125 86.125 42.757812 C 86.109375 42.5625 85.941406 42.417969 85.742188 42.433594 C 85.546875 42.449219 85.402344 42.621094 85.417969 42.816406 C 85.4375 43.003906 85.589844 43.144531 85.773438 43.144531 Z M 6.808594 41.6875 C 6.984375 41.6875 7.136719 41.554688 7.15625 41.371094 C 7.179688 41.175781 7.042969 41 6.847656 40.976562 C 6.652344 40.953125 6.476562 41.09375 6.453125 41.289062 C 6.429688 41.484375 6.566406 41.660156 6.761719 41.683594 C 6.777344 41.6875 6.792969 41.6875 6.808594 41.6875 Z M 85.609375 41.554688 C 85.625 41.554688 85.640625 41.554688 85.65625 41.550781 C 85.847656 41.527344 85.988281 41.351562 85.964844 41.15625 C 85.941406 40.960938 85.761719 40.824219 85.566406 40.847656 C 85.375 40.871094 85.234375 41.046875 85.257812 41.242188 C 85.28125 41.421875 85.4375 41.554688 85.609375 41.554688 Z M 7.027344 40.101562 C 7.199219 40.101562 7.351562 39.976562 7.378906 39.804688 C 7.40625 39.609375 7.277344 39.429688 7.082031 39.398438 C 6.886719 39.367188 6.707031 39.5 6.675781 39.691406 C 6.671875 39.691406 6.671875 39.691406 6.671875 39.691406 C 6.644531 39.886719 6.773438 40.066406 6.96875 40.097656 C 6.988281 40.101562 7.007812 40.101562 7.027344 40.101562 Z M 85.386719 39.972656 C 85.40625 39.972656 85.425781 39.972656 85.445312 39.96875 C 85.636719 39.9375 85.769531 39.753906 85.738281 39.558594 C 85.703125 39.363281 85.519531 39.234375 85.328125 39.265625 C 85.132812 39.296875 85 39.480469 85.035156 39.675781 C 85.0625 39.847656 85.214844 39.972656 85.386719 39.972656 Z M 7.308594 38.527344 C 7.476562 38.527344 7.625 38.414062 7.660156 38.246094 C 7.699219 38.054688 7.574219 37.867188 7.382812 37.824219 C 7.1875 37.789062 7 37.914062 6.960938 38.105469 C 6.921875 38.296875 7.046875 38.484375 7.242188 38.523438 C 7.265625 38.527344 7.289062 38.527344 7.308594 38.527344 Z M 85.09375 38.402344 C 85.117188 38.402344 85.144531 38.398438 85.167969 38.394531 C 85.359375 38.355469 85.480469 38.167969 85.445312 37.972656 C 85.40625 37.78125 85.214844 37.660156 85.023438 37.699219 C 84.832031 37.738281 84.710938 37.925781 84.746094 38.117188 C 84.78125 38.289062 84.929688 38.402344 85.09375 38.402344 Z M 7.660156 36.96875 C 7.820312 36.96875 7.964844 36.859375 8.003906 36.699219 C 8.050781 36.507812 7.933594 36.316406 7.742188 36.269531 C 7.550781 36.222656 7.359375 36.339844 7.316406 36.53125 C 7.269531 36.722656 7.382812 36.914062 7.574219 36.960938 C 7.601562 36.96875 7.632812 36.96875 7.660156 36.96875 Z M 84.742188 36.84375 C 84.773438 36.84375 84.800781 36.839844 84.828125 36.832031 C 85.019531 36.785156 85.136719 36.59375 85.085938 36.402344 C 85.042969 36.210938 84.847656 36.09375 84.65625 36.144531 C 84.46875 36.191406 84.351562 36.382812 84.398438 36.574219 C 84.4375 36.734375 84.582031 36.84375 84.742188 36.84375 Z M 8.070312 35.425781 C 8.222656 35.425781 8.363281 35.324219 8.410156 35.171875 C 8.464844 34.984375 8.355469 34.785156 8.167969 34.730469 C 7.976562 34.675781 7.78125 34.785156 7.726562 34.972656 C 7.671875 35.160156 7.78125 35.359375 7.96875 35.414062 C 8.003906 35.421875 8.035156 35.425781 8.070312 35.425781 Z M 84.328125 35.300781 C 84.359375 35.300781 84.390625 35.296875 84.425781 35.285156 C 84.617188 35.230469 84.722656 35.03125 84.667969 34.84375 C 84.617188 34.65625 84.417969 34.546875 84.230469 34.601562 C 84.042969 34.65625 83.933594 34.855469 83.988281 35.042969 C 84.03125 35.199219 84.171875 35.300781 84.328125 35.300781 Z M 8.542969 33.902344 C 8.691406 33.902344 8.832031 33.808594 8.882812 33.65625 C 8.941406 33.472656 8.84375 33.269531 8.65625 33.207031 C 8.472656 33.144531 8.269531 33.246094 8.207031 33.433594 C 8.144531 33.621094 8.246094 33.820312 8.433594 33.882812 C 8.46875 33.894531 8.507812 33.902344 8.542969 33.902344 Z M 83.847656 33.777344 C 83.886719 33.777344 83.925781 33.769531 83.960938 33.757812 C 84.144531 33.695312 84.246094 33.492188 84.183594 33.308594 C 84.121094 33.121094 83.921875 33.023438 83.734375 33.085938 C 83.550781 33.148438 83.449219 33.351562 83.511719 33.535156 C 83.5625 33.683594 83.699219 33.777344 83.847656 33.777344 Z M 9.078125 32.390625 C 9.21875 32.390625 9.355469 32.300781 9.410156 32.160156 C 9.480469 31.976562 9.386719 31.773438 9.203125 31.703125 C 9.019531 31.632812 8.816406 31.722656 8.746094 31.910156 C 8.675781 32.09375 8.769531 32.296875 8.953125 32.367188 C 8.996094 32.382812 9.035156 32.390625 9.078125 32.390625 Z M 83.308594 32.269531 C 83.351562 32.269531 83.394531 32.265625 83.433594 32.246094 C 83.617188 32.179688 83.710938 31.972656 83.640625 31.789062 C 83.570312 31.605469 83.363281 31.515625 83.183594 31.585938 C 83 31.65625 82.90625 31.863281 82.976562 32.042969 C 83.03125 32.183594 83.164062 32.269531 83.308594 32.269531 Z M 9.675781 30.90625 C 9.8125 30.90625 9.941406 30.824219 10.003906 30.6875 C 10.082031 30.507812 9.996094 30.300781 9.816406 30.222656 C 9.632812 30.144531 9.425781 30.230469 9.351562 30.410156 C 9.273438 30.589844 9.355469 30.796875 9.539062 30.875 C 9.582031 30.894531 9.628906 30.90625 9.675781 30.90625 Z M 82.710938 30.792969 C 82.757812 30.792969 82.804688 30.785156 82.851562 30.765625 C 83.03125 30.6875 83.113281 30.480469 83.039062 30.296875 C 82.960938 30.117188 82.75 30.03125 82.570312 30.113281 C 82.390625 30.1875 82.304688 30.398438 82.382812 30.578125 C 82.441406 30.714844 82.570312 30.792969 82.710938 30.792969 Z M 10.332031 29.441406 C 10.464844 29.441406 10.59375 29.367188 10.652344 29.238281 C 10.738281 29.0625 10.660156 28.847656 10.484375 28.765625 C 10.304688 28.683594 10.09375 28.757812 10.011719 28.933594 C 9.925781 29.113281 10.003906 29.324219 10.179688 29.410156 C 10.230469 29.429688 10.28125 29.441406 10.332031 29.441406 Z M 82.054688 29.34375 C 82.105469 29.34375 82.15625 29.332031 82.207031 29.304688 C 82.382812 29.222656 82.457031 29.011719 82.375 28.835938 C 82.289062 28.65625 82.078125 28.582031 81.898438 28.664062 C 81.722656 28.75 81.648438 28.964844 81.730469 29.140625 C 81.792969 29.265625 81.921875 29.34375 82.054688 29.34375 Z M 11.046875 28.011719 C 11.175781 28.011719 11.300781 27.941406 11.363281 27.820312 C 11.453125 27.648438 11.386719 27.433594 11.214844 27.339844 C 11.039062 27.25 10.824219 27.316406 10.734375 27.488281 C 10.644531 27.660156 10.707031 27.875 10.882812 27.96875 C 10.933594 27.996094 10.992188 28.011719 11.046875 28.011719 Z M 81.335938 27.917969 C 81.390625 27.917969 81.449219 27.902344 81.503906 27.875 C 81.675781 27.785156 81.742188 27.570312 81.652344 27.394531 C 81.5625 27.222656 81.347656 27.152344 81.171875 27.246094 C 80.996094 27.335938 80.929688 27.550781 81.023438 27.726562 C 81.085938 27.847656 81.207031 27.917969 81.335938 27.917969 Z M 11.820312 26.609375 C 11.941406 26.609375 12.0625 26.542969 12.125 26.433594 C 12.222656 26.261719 12.167969 26.046875 11.996094 25.949219 C 11.824219 25.847656 11.609375 25.90625 11.511719 26.078125 C 11.414062 26.25 11.472656 26.464844 11.640625 26.5625 C 11.695312 26.59375 11.757812 26.609375 11.820312 26.609375 Z M 80.5625 26.523438 C 80.625 26.523438 80.683594 26.503906 80.742188 26.472656 C 80.910156 26.375 80.96875 26.160156 80.871094 25.988281 C 80.769531 25.816406 80.554688 25.757812 80.382812 25.859375 C 80.214844 25.957031 80.15625 26.175781 80.257812 26.34375 C 80.320312 26.457031 80.441406 26.523438 80.5625 26.523438 Z M 12.644531 25.238281 C 12.761719 25.238281 12.878906 25.179688 12.945312 25.074219 C 13.050781 24.90625 13 24.6875 12.835938 24.585938 C 12.671875 24.480469 12.449219 24.53125 12.34375 24.695312 C 12.242188 24.859375 12.292969 25.082031 12.457031 25.183594 C 12.515625 25.222656 12.582031 25.238281 12.644531 25.238281 Z M 79.734375 25.160156 C 79.800781 25.160156 79.867188 25.140625 79.925781 25.105469 C 80.089844 24.996094 80.140625 24.777344 80.035156 24.613281 C 79.929688 24.445312 79.710938 24.398438 79.542969 24.503906 C 79.378906 24.605469 79.328125 24.828125 79.433594 24.992188 C 79.5 25.101562 79.617188 25.160156 79.734375 25.160156 Z M 13.527344 23.902344 C 13.640625 23.902344 13.753906 23.847656 13.820312 23.75 C 13.933594 23.589844 13.890625 23.367188 13.730469 23.257812 C 13.570312 23.144531 13.347656 23.1875 13.238281 23.347656 C 13.125 23.507812 13.164062 23.730469 13.328125 23.839844 C 13.390625 23.886719 13.457031 23.902344 13.527344 23.902344 Z M 78.851562 23.828125 C 78.921875 23.828125 78.992188 23.808594 79.050781 23.765625 C 79.210938 23.652344 79.253906 23.433594 79.140625 23.269531 C 79.027344 23.109375 78.808594 23.070312 78.648438 23.179688 C 78.484375 23.292969 78.445312 23.511719 78.558594 23.675781 C 78.628906 23.773438 78.738281 23.828125 78.851562 23.828125 Z M 14.464844 22.605469 C 14.574219 22.605469 14.679688 22.558594 14.75 22.464844 C 14.867188 22.308594 14.835938 22.085938 14.675781 21.964844 C 14.519531 21.847656 14.300781 21.882812 14.179688 22.039062 C 14.0625 22.195312 14.09375 22.417969 14.25 22.535156 C 14.3125 22.582031 14.390625 22.605469 14.464844 22.605469 Z M 77.914062 22.535156 C 77.988281 22.535156 78.066406 22.511719 78.128906 22.460938 C 78.285156 22.34375 78.316406 22.121094 78.199219 21.964844 C 78.078125 21.808594 77.859375 21.777344 77.703125 21.894531 C 77.542969 22.015625 77.511719 22.234375 77.632812 22.390625 C 77.703125 22.484375 77.808594 22.535156 77.914062 22.535156 Z M 15.449219 21.347656 C 15.550781 21.347656 15.65625 21.300781 15.726562 21.21875 C 15.851562 21.066406 15.828125 20.839844 15.675781 20.71875 C 15.523438 20.59375 15.300781 20.617188 15.175781 20.769531 C 15.050781 20.921875 15.074219 21.144531 15.226562 21.265625 C 15.292969 21.320312 15.371094 21.347656 15.449219 21.347656 Z M 76.925781 21.28125 C 77.007812 21.28125 77.085938 21.253906 77.152344 21.199219 C 77.300781 21.074219 77.324219 20.851562 77.203125 20.699219 C 77.078125 20.550781 76.855469 20.527344 76.703125 20.648438 C 76.550781 20.773438 76.527344 20.996094 76.652344 21.148438 C 76.722656 21.234375 76.824219 21.28125 76.925781 21.28125 Z M 16.488281 20.128906 C 16.585938 20.128906 16.683594 20.085938 16.753906 20.007812 C 16.882812 19.859375 16.871094 19.636719 16.722656 19.507812 C 16.578125 19.378906 16.351562 19.390625 16.222656 19.535156 C 16.09375 19.683594 16.105469 19.90625 16.25 20.039062 C 16.316406 20.101562 16.402344 20.128906 16.488281 20.128906 Z M 75.890625 20.066406 C 75.972656 20.066406 76.058594 20.035156 76.125 19.976562 C 76.269531 19.84375 76.285156 19.621094 76.15625 19.472656 C 76.023438 19.328125 75.800781 19.3125 75.652344 19.445312 C 75.503906 19.578125 75.492188 19.800781 75.625 19.949219 C 75.695312 20.023438 75.792969 20.066406 75.890625 20.066406 Z M 17.570312 18.953125 C 17.664062 18.953125 17.757812 18.917969 17.824219 18.84375 C 17.960938 18.703125 17.957031 18.476562 17.816406 18.339844 C 17.671875 18.203125 17.449219 18.210938 17.3125 18.351562 C 17.175781 18.492188 17.179688 18.71875 17.324219 18.855469 C 17.390625 18.921875 17.480469 18.953125 17.570312 18.953125 Z M 74.804688 18.890625 C 74.894531 18.890625 74.980469 18.859375 75.050781 18.792969 C 75.191406 18.652344 75.195312 18.429688 75.058594 18.289062 C 74.921875 18.144531 74.695312 18.140625 74.554688 18.28125 C 74.414062 18.414062 74.410156 18.640625 74.546875 18.78125 C 74.617188 18.855469 74.710938 18.890625 74.804688 18.890625 Z M 18.699219 17.824219 C 18.789062 17.824219 18.875 17.789062 18.945312 17.722656 C 19.085938 17.585938 19.089844 17.359375 18.953125 17.21875 C 18.816406 17.078125 18.59375 17.074219 18.453125 17.210938 C 18.308594 17.347656 18.304688 17.570312 18.441406 17.710938 C 18.511719 17.789062 18.605469 17.824219 18.699219 17.824219 Z M 73.671875 17.761719 C 73.765625 17.761719 73.859375 17.726562 73.929688 17.652344 C 74.066406 17.511719 74.0625 17.285156 73.917969 17.152344 C 73.777344 17.011719 73.554688 17.019531 73.414062 17.160156 C 73.28125 17.304688 73.285156 17.527344 73.425781 17.664062 C 73.496094 17.730469 73.585938 17.761719 73.671875 17.761719 Z M 19.871094 16.738281 C 19.953125 16.738281 20.039062 16.710938 20.105469 16.648438 C 20.253906 16.519531 20.269531 16.296875 20.136719 16.148438 C 20.003906 16.003906 19.78125 15.988281 19.632812 16.121094 C 19.488281 16.25 19.472656 16.472656 19.605469 16.621094 C 19.675781 16.699219 19.773438 16.738281 19.871094 16.738281 Z M 72.496094 16.679688 C 72.59375 16.679688 72.691406 16.640625 72.761719 16.558594 C 72.890625 16.410156 72.878906 16.1875 72.734375 16.058594 C 72.585938 15.929688 72.359375 15.941406 72.230469 16.085938 C 72.101562 16.234375 72.113281 16.460938 72.261719 16.589844 C 72.328125 16.652344 72.410156 16.679688 72.496094 16.679688 Z M 21.089844 15.703125 C 21.164062 15.703125 21.246094 15.675781 21.3125 15.621094 C 21.464844 15.496094 21.484375 15.273438 21.363281 15.121094 C 21.238281 14.972656 21.011719 14.949219 20.863281 15.074219 C 20.710938 15.199219 20.691406 15.417969 20.8125 15.570312 C 20.882812 15.65625 20.984375 15.703125 21.089844 15.703125 Z M 71.277344 15.644531 C 71.378906 15.644531 71.480469 15.601562 71.554688 15.515625 C 71.679688 15.363281 71.65625 15.136719 71.5 15.015625 C 71.351562 14.890625 71.125 14.914062 71.003906 15.066406 C 70.878906 15.21875 70.902344 15.441406 71.054688 15.566406 C 71.121094 15.621094 71.199219 15.644531 71.277344 15.644531 Z M 22.34375 14.714844 C 22.417969 14.714844 22.492188 14.691406 22.554688 14.644531 C 22.710938 14.527344 22.742188 14.304688 22.625 14.144531 C 22.507812 13.988281 22.285156 13.957031 22.128906 14.078125 C 21.972656 14.195312 21.941406 14.417969 22.058594 14.574219 C 22.128906 14.667969 22.234375 14.714844 22.34375 14.714844 Z M 70.019531 14.660156 C 70.128906 14.660156 70.234375 14.609375 70.304688 14.519531 C 70.417969 14.363281 70.386719 14.136719 70.230469 14.019531 C 70.074219 13.902344 69.851562 13.9375 69.734375 14.09375 C 69.617188 14.25 69.648438 14.472656 69.804688 14.589844 C 69.867188 14.636719 69.945312 14.660156 70.019531 14.660156 Z M 23.636719 13.777344 C 23.707031 13.777344 23.773438 13.757812 23.835938 13.714844 C 24 13.601562 24.039062 13.382812 23.925781 13.21875 C 23.816406 13.058594 23.59375 13.015625 23.433594 13.128906 C 23.273438 13.242188 23.230469 13.464844 23.34375 13.625 C 23.414062 13.726562 23.523438 13.777344 23.636719 13.777344 Z M 68.71875 13.726562 C 68.832031 13.726562 68.945312 13.671875 69.011719 13.574219 C 69.125 13.410156 69.082031 13.191406 68.921875 13.078125 C 68.761719 12.96875 68.539062 13.007812 68.425781 13.167969 C 68.3125 13.328125 68.355469 13.550781 68.515625 13.660156 C 68.582031 13.707031 68.648438 13.726562 68.71875 13.726562 Z M 24.96875 12.898438 C 25.03125 12.898438 25.097656 12.878906 25.160156 12.839844 L 25.160156 12.84375 C 25.324219 12.738281 25.371094 12.519531 25.269531 12.351562 C 25.164062 12.1875 24.941406 12.136719 24.777344 12.242188 C 24.613281 12.347656 24.5625 12.566406 24.667969 12.734375 C 24.734375 12.835938 24.847656 12.898438 24.96875 12.898438 Z M 67.382812 12.847656 C 67.5 12.847656 67.617188 12.789062 67.683594 12.679688 C 67.789062 12.515625 67.738281 12.292969 67.574219 12.191406 C 67.40625 12.085938 67.1875 12.132812 67.082031 12.300781 C 66.980469 12.464844 67.03125 12.6875 67.195312 12.792969 C 67.253906 12.828125 67.320312 12.847656 67.382812 12.847656 Z M 26.332031 12.066406 C 26.394531 12.066406 26.453125 12.050781 26.507812 12.019531 C 26.679688 11.921875 26.738281 11.703125 26.636719 11.535156 C 26.539062 11.363281 26.320312 11.308594 26.152344 11.40625 C 25.984375 11.503906 25.925781 11.71875 26.023438 11.890625 C 26.089844 12.003906 26.210938 12.066406 26.332031 12.066406 Z M 66.011719 12.015625 C 66.136719 12.015625 66.257812 11.953125 66.320312 11.839844 C 66.421875 11.667969 66.363281 11.453125 66.191406 11.351562 C 66.191406 11.355469 66.191406 11.355469 66.191406 11.355469 C 66.019531 11.253906 65.804688 11.3125 65.707031 11.484375 C 65.609375 11.65625 65.667969 11.871094 65.835938 11.96875 C 65.894531 12.003906 65.953125 12.015625 66.011719 12.015625 Z M 27.726562 11.292969 C 27.78125 11.292969 27.839844 11.28125 27.890625 11.253906 C 28.066406 11.164062 28.132812 10.949219 28.039062 10.773438 C 27.949219 10.597656 27.734375 10.53125 27.558594 10.625 C 27.386719 10.714844 27.320312 10.929688 27.410156 11.105469 C 27.476562 11.226562 27.597656 11.292969 27.726562 11.292969 Z M 64.613281 11.246094 C 64.738281 11.246094 64.863281 11.175781 64.925781 11.054688 C 65.015625 10.882812 64.949219 10.667969 64.777344 10.574219 C 64.605469 10.484375 64.390625 10.550781 64.300781 10.726562 C 64.210938 10.894531 64.273438 11.109375 64.449219 11.203125 C 64.5 11.230469 64.554688 11.246094 64.613281 11.246094 Z M 29.152344 10.582031 C 29.203125 10.582031 29.253906 10.566406 29.304688 10.546875 C 29.484375 10.460938 29.558594 10.25 29.472656 10.070312 C 29.386719 9.894531 29.175781 9.820312 29 9.90625 C 28.824219 9.988281 28.746094 10.199219 28.832031 10.375 C 28.894531 10.503906 29.019531 10.582031 29.152344 10.582031 Z M 63.179688 10.53125 C 63.3125 10.53125 63.441406 10.457031 63.5 10.328125 C 63.585938 10.152344 63.507812 9.941406 63.332031 9.855469 C 63.15625 9.769531 62.941406 9.847656 62.859375 10.027344 C 62.773438 10.199219 62.851562 10.414062 63.027344 10.496094 C 63.074219 10.519531 63.128906 10.53125 63.179688 10.53125 Z M 30.605469 9.921875 C 30.652344 9.921875 30.699219 9.914062 30.746094 9.894531 C 30.925781 9.816406 31.007812 9.609375 30.929688 9.429688 C 30.855469 9.246094 30.644531 9.164062 30.464844 9.242188 C 30.285156 9.316406 30.199219 9.527344 30.277344 9.707031 C 30.335938 9.84375 30.464844 9.921875 30.605469 9.921875 Z M 61.71875 9.878906 C 61.855469 9.878906 61.988281 9.796875 62.046875 9.660156 C 62.125 9.480469 62.039062 9.273438 61.859375 9.195312 C 61.679688 9.117188 61.46875 9.199219 61.394531 9.382812 C 61.316406 9.5625 61.398438 9.769531 61.582031 9.847656 C 61.625 9.867188 61.671875 9.878906 61.71875 9.878906 Z M 32.082031 9.328125 C 32.125 9.328125 32.167969 9.320312 32.207031 9.304688 C 32.390625 9.230469 32.480469 9.027344 32.414062 8.847656 C 32.34375 8.664062 32.136719 8.570312 31.957031 8.640625 C 31.773438 8.707031 31.679688 8.914062 31.75 9.097656 C 31.804688 9.238281 31.9375 9.328125 32.082031 9.328125 Z M 60.234375 9.28125 C 60.375 9.28125 60.511719 9.191406 60.5625 9.050781 C 60.632812 8.867188 60.542969 8.664062 60.359375 8.59375 C 60.175781 8.523438 59.96875 8.617188 59.902344 8.800781 C 59.832031 8.984375 59.921875 9.1875 60.105469 9.257812 C 60.148438 9.273438 60.191406 9.28125 60.234375 9.28125 Z M 33.585938 8.785156 C 33.625 8.785156 33.664062 8.777344 33.699219 8.765625 C 33.886719 8.703125 33.984375 8.503906 33.921875 8.316406 C 33.859375 8.132812 33.65625 8.03125 33.472656 8.09375 C 33.289062 8.15625 33.1875 8.359375 33.25 8.542969 C 33.300781 8.695312 33.4375 8.785156 33.585938 8.785156 Z M 58.722656 8.746094 C 58.871094 8.746094 59.007812 8.652344 59.058594 8.5 C 59.121094 8.316406 59.019531 8.117188 58.832031 8.054688 C 58.648438 7.988281 58.445312 8.09375 58.386719 8.277344 C 58.324219 8.464844 58.425781 8.664062 58.609375 8.726562 C 58.644531 8.738281 58.6875 8.746094 58.722656 8.746094 Z M 35.113281 8.308594 C 35.144531 8.308594 35.175781 8.304688 35.210938 8.292969 C 35.402344 8.242188 35.507812 8.042969 35.453125 7.855469 C 35.402344 7.667969 35.203125 7.558594 35.015625 7.613281 C 34.828125 7.667969 34.71875 7.863281 34.773438 8.050781 C 34.816406 8.210938 34.957031 8.308594 35.113281 8.308594 Z M 57.195312 8.273438 C 57.347656 8.273438 57.492188 8.171875 57.535156 8.015625 C 57.589844 7.828125 57.480469 7.628906 57.292969 7.578125 C 57.101562 7.523438 56.90625 7.632812 56.851562 7.820312 C 56.796875 8.007812 56.90625 8.207031 57.097656 8.257812 C 57.128906 8.269531 57.160156 8.273438 57.195312 8.273438 Z M 36.65625 7.894531 C 36.683594 7.894531 36.710938 7.890625 36.742188 7.882812 C 36.929688 7.835938 37.046875 7.644531 37 7.453125 C 36.953125 7.261719 36.757812 7.148438 36.570312 7.195312 C 36.378906 7.242188 36.261719 7.433594 36.3125 7.625 C 36.351562 7.785156 36.496094 7.894531 36.65625 7.894531 Z M 55.648438 7.863281 C 55.8125 7.863281 55.953125 7.753906 55.996094 7.59375 C 56.039062 7.402344 55.925781 7.210938 55.734375 7.164062 C 55.542969 7.117188 55.351562 7.234375 55.304688 7.425781 C 55.257812 7.613281 55.375 7.804688 55.566406 7.851562 C 55.59375 7.859375 55.621094 7.863281 55.648438 7.863281 Z M 38.210938 7.542969 C 38.238281 7.542969 38.261719 7.539062 38.285156 7.535156 C 38.476562 7.496094 38.601562 7.308594 38.5625 7.117188 C 38.523438 6.921875 38.335938 6.800781 38.144531 6.839844 C 37.953125 6.878906 37.828125 7.066406 37.867188 7.257812 C 37.898438 7.425781 38.050781 7.542969 38.210938 7.542969 Z M 54.089844 7.515625 C 54.253906 7.515625 54.402344 7.398438 54.4375 7.230469 C 54.476562 7.039062 54.351562 6.851562 54.160156 6.8125 C 53.96875 6.773438 53.78125 6.898438 53.738281 7.089844 C 53.699219 7.285156 53.828125 7.46875 54.019531 7.511719 C 54.042969 7.511719 54.066406 7.515625 54.089844 7.515625 Z M 39.785156 7.253906 C 39.804688 7.253906 39.824219 7.25 39.84375 7.246094 C 40.039062 7.21875 40.167969 7.035156 40.136719 6.839844 C 40.105469 6.644531 39.921875 6.515625 39.726562 6.546875 C 39.535156 6.578125 39.402344 6.761719 39.433594 6.953125 C 39.464844 7.128906 39.613281 7.253906 39.785156 7.253906 Z M 52.515625 7.230469 C 52.691406 7.230469 52.839844 7.105469 52.867188 6.933594 C 52.898438 6.738281 52.765625 6.558594 52.574219 6.527344 C 52.378906 6.496094 52.199219 6.628906 52.167969 6.820312 C 52.136719 7.015625 52.265625 7.195312 52.460938 7.226562 C 52.480469 7.230469 52.5 7.230469 52.515625 7.230469 Z M 41.367188 7.027344 C 41.382812 7.027344 41.398438 7.027344 41.410156 7.027344 C 41.605469 7 41.746094 6.824219 41.71875 6.628906 C 41.695312 6.433594 41.519531 6.296875 41.324219 6.320312 C 41.128906 6.34375 40.992188 6.519531 41.015625 6.714844 C 41.039062 6.894531 41.191406 7.027344 41.367188 7.027344 Z M 50.933594 7.011719 C 51.113281 7.011719 51.265625 6.878906 51.285156 6.699219 C 51.308594 6.5 51.171875 6.328125 50.972656 6.304688 C 50.777344 6.28125 50.601562 6.417969 50.578125 6.613281 C 50.554688 6.8125 50.695312 6.984375 50.890625 7.007812 C 50.90625 7.011719 50.917969 7.011719 50.933594 7.011719 Z M 42.957031 6.867188 C 42.964844 6.867188 42.976562 6.867188 42.988281 6.867188 C 43.183594 6.851562 43.328125 6.679688 43.3125 6.484375 C 43.296875 6.285156 43.125 6.144531 42.929688 6.15625 C 42.734375 6.175781 42.589844 6.34375 42.605469 6.542969 C 42.617188 6.726562 42.773438 6.867188 42.957031 6.867188 Z M 49.34375 6.855469 C 49.527344 6.855469 49.683594 6.714844 49.695312 6.527344 C 49.714844 6.332031 49.566406 6.164062 49.371094 6.148438 C 49.175781 6.128906 49.003906 6.277344 48.988281 6.472656 C 48.972656 6.671875 49.117188 6.839844 49.3125 6.855469 C 49.328125 6.855469 49.335938 6.855469 49.34375 6.855469 Z M 44.550781 6.769531 C 44.558594 6.769531 44.5625 6.769531 44.566406 6.769531 C 44.761719 6.761719 44.917969 6.59375 44.90625 6.398438 C 44.898438 6.203125 44.734375 6.050781 44.539062 6.0625 C 44.539062 6.058594 44.539062 6.058594 44.539062 6.058594 C 44.34375 6.066406 44.1875 6.230469 44.199219 6.429688 C 44.207031 6.617188 44.363281 6.769531 44.550781 6.769531 Z M 47.75 6.761719 C 47.9375 6.761719 48.09375 6.613281 48.105469 6.421875 C 48.109375 6.226562 47.957031 6.0625 47.761719 6.054688 C 47.566406 6.046875 47.398438 6.199219 47.394531 6.394531 C 47.386719 6.589844 47.539062 6.757812 47.734375 6.761719 C 47.742188 6.761719 47.746094 6.761719 47.75 6.761719 Z M 46.152344 6.734375 C 46.347656 6.734375 46.507812 6.574219 46.507812 6.378906 C 46.507812 6.183594 46.347656 6.027344 46.152344 6.027344 C 45.957031 6.027344 45.796875 6.1875 45.796875 6.378906 C 45.792969 6.578125 45.957031 6.734375 46.152344 6.734375 Z M 46.148438 6.023438 C 46.152344 6.023438 46.152344 6.023438 46.148438 6.023438 C 46.152344 6.023438 46.152344 6.023438 46.148438 6.023438 Z M 46.5 77.414062 L 46.5 81.496094 L 46.503906 81.496094 Z M 47.921875 79.460938 L 48.253906 81.453125 L 47.921875 79.441406 L 47.921875 77.398438 L 47.582031 77.425781 L 47.921875 79.460938 L 47.921875 81.480469 Z M 45.085938 79.390625 L 44.773438 81.429688 L 45.085938 81.453125 Z M 49.335938 79.386719 L 49.667969 81.382812 L 49.335938 79.367188 L 49.335938 77.324219 L 49 77.351562 L 49.335938 79.386719 L 49.335938 81.40625 Z M 43.671875 79.3125 L 43.960938 77.289062 L 43.667969 77.269531 L 43.667969 79.335938 L 43.382812 81.332031 L 43.667969 79.335938 L 43.667969 81.351562 Z M 51.039062 81.253906 L 50.746094 79.210938 L 50.746094 77.191406 L 50.746094 79.210938 L 50.460938 77.210938 L 50.746094 79.234375 L 50.746094 81.277344 Z M 42.304688 78.832031 L 42.566406 77.136719 L 42.304688 78.832031 L 42.546875 77.128906 L 42.257812 79.152344 L 41.945312 81.171875 L 41.96875 81.175781 Z M 52.175781 79.191406 L 52.488281 81.058594 L 52.15625 79.050781 L 51.867188 77.023438 L 51.816406 77.03125 L 52.175781 79.1875 L 52.445312 81.066406 Z M 40.863281 78.90625 L 41.417969 76.96875 L 40.863281 78.90625 L 41.171875 76.914062 L 40.859375 78.933594 L 40.296875 80.898438 L 40.550781 80.957031 Z M 53.554688 78.816406 L 54.191406 80.734375 L 53.550781 78.796875 L 53.261719 76.777344 L 52.902344 76.863281 L 53.554688 78.816406 L 53.839844 80.816406 Z M 39.472656 78.632812 L 40.027344 76.695312 L 39.472656 78.632812 L 39.78125 76.640625 L 39.46875 78.660156 L 38.90625 80.625 L 39.160156 80.679688 Z M 55.496094 80.453125 L 54.929688 78.460938 L 55.269531 80.507812 Z M 38.089844 78.324219 L 38.691406 76.371094 L 38.394531 76.304688 L 38.082031 78.347656 L 37.492188 80.277344 L 38.082031 78.347656 L 37.777344 80.34375 Z M 56.332031 78.203125 L 56.949219 80.0625 L 56.308594 78.125 L 55.746094 76.160156 L 55.660156 76.1875 L 56.332031 78.203125 L 56.871094 80.085938 Z M 37.324219 75.980469 L 36.125 79.882812 L 36.128906 79.882812 Z M 58.308594 79.640625 L 57.636719 77.628906 L 58.21875 79.667969 Z M 35.386719 77.457031 L 36.230469 75.628906 L 35.386719 77.457031 L 35.980469 75.53125 L 35.375 77.480469 L 34.519531 79.335938 L 34.777344 79.433594 Z M 45.082031 79.414062 L 45.085938 77.371094 Z M 59.011719 77.265625 L 59.796875 79.101562 L 58.996094 77.222656 L 58.351562 75.289062 L 58.1875 75.347656 L 59.011719 77.265625 L 59.644531 79.160156 Z M 34.046875 76.976562 L 34.902344 75.125 L 34.691406 75.039062 L 34.035156 77.007812 L 33.191406 78.832031 L 34.035156 77.007812 L 33.398438 78.914062 Z M 61.222656 78.519531 L 60.300781 76.675781 L 60.863281 78.660156 Z M 54.375 76.523438 L 54.933594 78.488281 Z M 32.742188 76.417969 L 33.65625 74.589844 L 33.34375 74.460938 L 32.734375 76.433594 L 31.832031 78.242188 L 32.734375 76.433594 L 32.140625 78.367188 Z M 62.507812 77.933594 L 60.679688 74.28125 L 62.503906 77.9375 Z M 57.015625 75.765625 L 57.660156 77.703125 Z M 31.460938 75.804688 L 32.375 73.972656 L 32.316406 73.945312 L 31.414062 75.902344 L 30.550781 77.628906 L 31.410156 75.902344 L 30.601562 77.65625 Z M 62.871094 75.492188 L 63.988281 77.167969 L 62.859375 75.46875 L 61.945312 73.640625 L 61.722656 73.769531 L 62.871094 75.492188 L 63.769531 77.292969 Z M 30.222656 75.109375 L 31.339844 73.429688 L 30.222656 75.109375 L 31.121094 73.304688 L 30.203125 75.128906 L 29.070312 76.828125 L 29.292969 76.960938 Z M 59.394531 74.867188 L 60.304688 76.695312 Z M 64.105469 74.800781 L 65.222656 76.476562 L 64.09375 74.777344 L 63.183594 72.949219 L 62.957031 73.078125 L 64.105469 74.800781 L 65.007812 76.601562 Z M 28.984375 74.414062 L 30.117188 72.714844 L 29.957031 72.621094 L 28.960938 74.449219 L 27.851562 76.113281 L 28.960938 74.449219 L 28.003906 76.207031 Z M 66.433594 75.730469 L 65.257812 73.96875 L 64.246094 72.28125 L 65.257812 73.96875 L 64.167969 72.332031 L 65.296875 74.03125 L 66.347656 75.785156 Z M 27.789062 73.644531 L 28.988281 71.992188 L 28.699219 71.816406 L 27.777344 73.660156 L 26.589844 75.296875 L 27.777344 73.660156 L 26.871094 75.46875 Z M 66.496094 73.273438 L 67.746094 74.835938 L 66.472656 73.238281 L 65.339844 71.539062 L 65.195312 71.644531 L 66.496094 73.273438 L 67.609375 74.9375 Z M 27.828125 71.171875 L 25.425781 74.476562 L 25.429688 74.476562 Z M 68.890625 73.992188 L 67.589844 72.367188 L 66.476562 70.699219 L 67.589844 72.367188 L 66.339844 70.804688 L 67.613281 72.398438 L 68.746094 74.097656 Z M 25.519531 71.941406 L 26.945312 70.515625 L 25.519531 71.941406 L 26.707031 70.308594 L 25.5 71.960938 L 24.058594 73.40625 L 24.304688 73.613281 Z M 68.832031 71.648438 L 70.023438 73.082031 L 68.722656 71.511719 L 67.445312 69.914062 L 67.410156 69.941406 L 68.828125 71.640625 L 69.996094 73.101562 Z M 24.453125 71.003906 L 25.789062 69.535156 L 24.453125 71.003906 L 25.695312 69.453125 L 24.414062 71.046875 L 23.042969 72.558594 L 23.140625 72.644531 Z M 71.230469 72.023438 L 69.765625 70.554688 L 71.0625 72.175781 Z M 23.367188 70.09375 L 24.8125 68.652344 L 24.640625 68.5 L 23.34375 70.117188 L 21.921875 71.539062 L 23.34375 70.117188 L 22.089844 71.6875 Z M 72.261719 71.046875 L 70.792969 69.578125 L 69.539062 68.007812 L 70.792969 69.578125 L 69.371094 68.15625 L 70.8125 69.601562 L 72.089844 71.199219 Z M 69.785156 70.578125 L 68.34375 69.132812 Z M 22.359375 69.097656 L 23.878906 67.730469 L 23.800781 67.648438 L 22.308594 69.140625 L 20.84375 70.460938 L 22.308594 69.140625 L 20.914062 70.535156 Z M 71.828125 68.605469 L 73.398438 69.863281 L 71.804688 68.585938 L 70.359375 67.140625 L 70.207031 67.3125 L 71.828125 68.605469 L 73.25 70.027344 Z M 22.910156 66.691406 L 19.875 69.421875 L 19.878906 69.425781 Z M 74.34375 68.800781 L 72.613281 67.414062 L 71.179688 66.222656 L 72.613281 67.414062 L 71.15625 66.25 L 72.75 67.527344 L 74.320312 68.835938 Z M 20.492188 66.964844 L 18.769531 68.113281 L 18.953125 68.347656 Z M 75.246094 67.703125 L 73.511719 66.316406 L 75.21875 67.738281 Z M 19.683594 65.796875 L 21.226562 64.636719 L 19.683594 65.796875 L 21.191406 64.589844 L 19.59375 65.863281 L 17.960938 67.089844 L 18 67.140625 Z M 21.988281 65.617188 L 20.46875 66.980469 Z M 76.203125 66.425781 L 74.46875 65.269531 L 76.09375 66.570312 Z M 73.648438 66.433594 L 72.054688 65.152344 Z M 18.761719 64.722656 L 20.464844 63.585938 L 20.4375 63.542969 L 18.644531 64.800781 L 17.066406 65.851562 L 18.636719 64.804688 L 17.089844 65.886719 Z M 72.804688 64.164062 L 74.5 65.296875 Z M 75.371094 64.167969 L 77.058594 65.179688 L 75.3125 64.128906 L 73.613281 62.992188 L 73.558594 63.078125 L 75.371094 64.167969 L 77.011719 65.257812 Z M 17.984375 63.535156 L 19.75 62.507812 L 19.578125 62.257812 L 17.964844 63.546875 L 16.21875 64.5625 L 17.964844 63.546875 L 16.386719 64.808594 Z M 76.089844 62.941406 L 77.890625 63.839844 L 76.066406 62.925781 L 74.367188 61.792969 L 74.238281 62.015625 L 76.089844 62.941406 L 77.765625 64.058594 Z M 17.300781 62.296875 L 15.425781 63.234375 L 15.488281 63.351562 Z M 78.601562 62.605469 L 76.75 61.679688 L 78.472656 62.828125 Z M 19.015625 61.292969 L 17.25 62.320312 Z M 16.574219 61.082031 L 18.398438 60.167969 L 18.335938 60.046875 L 16.523438 61.105469 L 14.746094 61.992188 L 16.523438 61.105469 L 14.808594 62.105469 Z M 76.773438 61.695312 L 74.949219 60.78125 Z M 79.257812 61.347656 L 75.601562 59.523438 L 79.253906 61.351562 Z M 15.992188 59.792969 L 17.832031 59.023438 L 15.992188 59.792969 L 17.773438 58.898438 L 15.945312 59.808594 L 14.0625 60.59375 L 14.121094 60.726562 Z M 78.050781 59.15625 L 79.996094 59.710938 L 78.035156 59.144531 L 76.207031 58.234375 L 76.070312 58.589844 L 78.050781 59.15625 L 79.859375 60.058594 Z M 15.355469 58.527344 L 17.257812 57.734375 L 17.25 57.710938 L 15.066406 58.648438 L 13.488281 59.304688 L 15.054688 58.652344 L 13.496094 59.320312 Z M 78.597656 57.84375 L 80.542969 58.398438 L 78.582031 57.835938 L 76.753906 56.921875 L 76.617188 57.277344 L 78.597656 57.84375 L 80.410156 58.746094 Z M 14.882812 57.191406 L 16.816406 56.640625 L 14.882812 57.191406 L 16.738281 56.417969 L 14.851562 57.199219 L 12.886719 57.761719 L 12.96875 57.988281 Z M 81.011719 57.144531 L 79.03125 56.488281 L 80.949219 57.308594 Z M 14.386719 55.863281 L 16.328125 55.21875 L 16.3125 55.171875 L 14.238281 55.914062 L 12.453125 56.507812 L 14.234375 55.914062 L 12.464844 56.546875 Z M 79.074219 56.503906 L 77.136719 55.855469 Z M 81.472656 55.710938 L 79.425781 55.128906 L 81.445312 55.800781 Z M 77.542969 54.589844 L 79.507812 55.152344 Z M 14.085938 54.476562 L 15.960938 54.007812 L 14.085938 54.476562 L 15.945312 53.945312 L 13.980469 54.5 L 12 54.996094 L 12.019531 55.066406 Z M 79.917969 53.792969 L 81.898438 54.121094 L 79.886719 53.78125 L 77.921875 53.222656 L 77.871094 53.453125 L 79.917969 53.792969 L 81.847656 54.34375 Z M 13.628906 53.132812 L 15.628906 52.703125 L 15.609375 52.632812 L 13.53125 53.152344 L 11.632812 53.558594 L 13.527344 53.15625 L 11.648438 53.625 Z M 82.230469 52.691406 L 80.1875 52.398438 L 82.144531 53.050781 Z M 78.1875 52.113281 L 80.207031 52.40625 Z M 13.414062 51.726562 L 15.351562 51.402344 L 13.414062 51.726562 L 15.335938 51.316406 L 13.335938 51.738281 L 11.324219 52.074219 L 11.339844 52.171875 Z M 82.488281 51.296875 L 80.320312 50.988281 L 78.453125 50.675781 L 80.320312 50.988281 L 78.445312 50.722656 L 80.46875 51.011719 L 82.480469 51.347656 Z M 13.097656 50.34375 L 15.125 50.054688 L 15.117188 50.003906 L 12.960938 50.363281 L 11.082031 50.632812 L 12.957031 50.367188 L 11.085938 50.675781 Z M 82.695312 49.894531 L 80.527344 49.585938 L 78.65625 49.273438 L 80.527344 49.585938 L 78.652344 49.316406 L 80.671875 49.609375 L 82.6875 49.945312 Z M 12.925781 48.9375 L 14.964844 48.792969 L 14.941406 48.597656 L 12.890625 48.941406 L 10.890625 49.082031 L 12.890625 48.941406 L 10.910156 49.269531 Z M 80.84375 48.195312 L 82.859375 48.195312 L 80.816406 48.191406 L 78.796875 47.90625 L 78.773438 48.195312 L 80.84375 48.195312 L 82.839844 48.484375 Z M 12.785156 47.523438 L 14.847656 47.378906 L 14.84375 47.351562 L 12.542969 47.542969 L 10.773438 47.671875 L 12.523438 47.546875 L 10.777344 47.691406 Z M 82.949219 46.777344 L 80.886719 46.777344 L 82.921875 47.117188 Z M 80.90625 46.78125 L 78.863281 46.777344 Z M 12.75 46.105469 L 14.789062 46.105469 L 14.785156 45.933594 L 12.707031 46.105469 L 10.707031 46.105469 L 12.707031 46.105469 L 10.714844 46.273438 Z M 82.976562 45.359375 L 78.890625 45.363281 L 82.976562 45.363281 Z M 82.976562 45.289062 L 78.890625 45.292969 L 82.976562 45.292969 Z M 12.789062 44.6875 L 10.714844 44.515625 L 10.707031 44.6875 Z M 14.789062 44.6875 L 12.75 44.683594 L 12.789062 44.6875 Z M 80.925781 43.871094 L 82.945312 43.871094 L 80.925781 43.871094 L 82.921875 43.566406 L 80.902344 43.871094 L 78.863281 43.871094 L 78.886719 44.183594 Z M 14.847656 43.269531 L 12.753906 43.269531 L 10.765625 43.125 L 12.753906 43.269531 L 10.761719 43.269531 L 12.804688 43.273438 L 14.84375 43.417969 Z M 78.789062 42.742188 L 80.8125 42.457031 Z M 82.835938 42.167969 L 80.789062 42.460938 L 82.855469 42.460938 Z M 14.953125 42.003906 L 12.917969 41.855469 Z M 10.902344 41.542969 L 10.882812 41.710938 L 12.964844 41.859375 Z M 80.964844 41.003906 L 82.6875 40.757812 L 80.988281 41 L 82.683594 40.738281 L 80.691406 41.039062 L 78.644531 41.332031 L 78.648438 41.359375 Z M 15.113281 40.734375 L 12.789062 40.402344 L 11.070312 40.140625 L 12.777344 40.402344 L 11.070312 40.15625 L 13.070312 40.445312 L 15.109375 40.757812 Z M 80.457031 39.644531 L 82.480469 39.359375 L 82.476562 39.332031 L 80.140625 39.691406 L 78.4375 39.9375 L 80.140625 39.691406 L 78.4375 39.957031 Z M 15.34375 39.335938 L 13.28125 39.039062 L 11.332031 38.589844 L 13.28125 39.039062 L 11.300781 38.753906 L 13.324219 39.046875 L 15.3125 39.507812 Z M 80.222656 38.246094 L 82.210938 37.9375 L 80.222656 38.246094 L 82.160156 37.691406 L 80.195312 38.25 L 78.175781 38.5625 L 78.230469 38.816406 Z M 15.609375 38.085938 L 13.402344 37.613281 L 11.625 37.203125 L 13.394531 37.613281 L 11.617188 37.230469 L 13.605469 37.660156 L 15.601562 38.121094 Z M 79.871094 36.871094 L 81.890625 36.582031 L 81.820312 36.269531 L 79.847656 36.875 L 77.847656 37.160156 L 79.847656 36.875 L 77.917969 37.46875 Z M 15.953125 36.742188 L 13.914062 36.273438 L 12.007812 35.6875 L 13.914062 36.273438 L 11.972656 35.824219 L 13.964844 36.289062 L 15.914062 36.886719 Z M 81.441406 34.90625 L 81.441406 34.902344 L 77.535156 36.105469 Z M 14.417969 34.941406 L 16.316406 35.527344 L 14.367188 34.925781 L 12.460938 34.191406 L 12.414062 34.328125 L 14.417969 34.941406 L 16.273438 35.65625 Z M 79.074219 34.144531 L 81 33.550781 L 79.074219 34.144531 L 80.90625 33.300781 L 79.050781 34.152344 L 77.097656 34.753906 L 77.195312 35.011719 Z M 16.785156 34.179688 L 14.78125 33.566406 L 12.921875 32.851562 L 14.78125 33.566406 L 12.878906 32.980469 L 14.828125 33.582031 L 16.734375 34.316406 Z M 78.574219 32.816406 L 80.457031 32.082031 L 80.410156 31.96875 L 78.660156 32.777344 L 80.382812 31.914062 L 78.605469 32.800781 L 76.65625 33.570312 L 76.703125 33.679688 L 76.730469 33.738281 Z M 17.253906 32.992188 L 15.351562 32.257812 Z M 76.179688 32.433594 L 78.011719 31.523438 Z M 13.523438 31.34375 L 13.441406 31.527344 L 15.382812 32.273438 Z M 17.828125 31.6875 L 15.890625 30.941406 L 14.097656 30.046875 L 15.890625 30.941406 L 14.019531 30.222656 L 15.921875 30.960938 L 17.75 31.875 Z M 79.960938 30.921875 L 79.835938 30.605469 L 77.988281 31.53125 Z M 79.234375 29.328125 L 79.234375 29.324219 L 75.582031 31.15625 Z M 16.601562 29.710938 L 18.378906 30.597656 L 16.554688 29.683594 L 14.789062 28.652344 L 14.726562 28.773438 L 16.601562 29.710938 L 18.316406 30.710938 Z M 76.777344 28.96875 L 78.578125 28.070312 L 76.777344 28.96875 L 78.453125 27.851562 L 76.75 28.984375 L 74.925781 29.898438 L 75.054688 30.121094 Z M 19.058594 29.347656 L 17.183594 28.410156 L 15.46875 27.410156 L 17.183594 28.410156 L 15.40625 27.523438 L 17.234375 28.4375 L 18.996094 29.46875 Z M 74.347656 28.890625 L 76.046875 27.757812 Z M 19.726562 28.246094 L 17.964844 27.214844 Z M 77.839844 26.78125 L 77.742188 26.621094 L 76.011719 27.777344 Z M 73.636719 27.757812 L 75.289062 26.5625 Z M 16.3125 26.015625 L 16.195312 26.191406 L 17.992188 27.238281 Z M 20.511719 27.058594 L 18.714844 26.015625 L 17.089844 24.832031 L 18.710938 26.011719 L 16.980469 25 L 18.742188 26.03125 L 20.394531 27.234375 Z M 76.136719 24.195312 L 76.132812 24.195312 L 72.832031 26.597656 Z M 77.117188 25.648438 L 76.9375 25.359375 L 75.269531 26.570312 Z M 19.621094 24.921875 L 21.222656 26.085938 L 19.574219 24.878906 L 17.996094 23.585938 L 17.921875 23.679688 L 19.621094 24.921875 L 21.15625 26.171875 Z M 73.644531 24.25 L 75.277344 23.0625 L 73.644531 24.25 L 75.074219 22.824219 L 73.625 24.261719 L 71.976562 25.464844 L 72.1875 25.710938 Z M 22.046875 25.039062 L 20.21875 23.578125 L 18.871094 22.472656 L 20.207031 23.566406 L 18.855469 22.492188 L 20.429688 23.75 L 22.03125 25.058594 Z M 72.769531 23.132812 L 74.320312 21.890625 L 72.769531 23.132812 L 74.238281 21.796875 L 72.722656 23.167969 L 71.128906 24.445312 L 71.214844 24.542969 Z M 22.953125 23.980469 L 21.316406 22.636719 L 19.851562 21.320312 L 21.3125 22.636719 L 19.792969 21.390625 L 21.371094 22.683594 L 22.886719 24.050781 Z M 71.78125 22.113281 L 70.335938 23.558594 Z M 22.363281 21.671875 L 23.855469 23.015625 L 22.339844 21.644531 L 20.972656 20.128906 L 20.820312 20.28125 L 22.363281 21.671875 L 23.707031 23.164062 Z M 70.839844 21.046875 L 72.234375 19.652344 L 70.839844 21.046875 L 72.160156 19.582031 L 70.792969 21.097656 L 69.347656 22.539062 L 69.429688 22.617188 Z M 24.789062 22.089844 L 23.300781 20.601562 L 21.976562 19.132812 L 23.300781 20.601562 L 21.902344 19.203125 L 23.34375 20.652344 L 24.710938 22.167969 Z M 73.378906 20.839844 L 73.226562 20.667969 L 71.757812 22.136719 Z M 69.765625 20.121094 L 71.207031 18.675781 L 71.128906 18.597656 L 69.714844 20.167969 L 68.320312 21.5625 L 69.714844 20.167969 L 68.394531 21.632812 Z M 25.757812 21.210938 L 24.394531 19.691406 Z M 68.707031 19.167969 L 70.058594 17.671875 L 68.707031 19.167969 L 69.828125 17.492188 L 68.691406 19.1875 L 67.324219 20.707031 L 67.5625 20.890625 Z M 26.769531 20.363281 L 25.480469 18.78125 Z M 67.652344 18.214844 L 68.859375 16.703125 L 67.652344 18.214844 L 68.8125 16.667969 L 67.585938 18.296875 L 66.308594 19.894531 L 66.359375 19.9375 Z M 23.101562 18.109375 L 23.027344 18.175781 L 24.441406 19.75 Z M 25.402344 16.261719 L 25.398438 16.265625 L 27.804688 19.566406 Z M 65.308594 19.160156 L 66.445312 17.460938 Z M 24.203125 17.1875 L 24.183594 17.203125 L 25.679688 19.027344 Z M 27.777344 17.128906 L 28.957031 18.75 L 27.757812 17.097656 L 26.730469 15.335938 L 26.554688 15.449219 L 27.777344 17.128906 L 28.789062 18.859375 Z M 64.234375 18.429688 L 65.265625 16.667969 Z M 30.046875 18.050781 L 28.902344 16.253906 L 27.917969 14.566406 L 28.902344 16.25 L 27.855469 14.605469 L 28.945312 16.324219 L 29.976562 18.09375 Z M 65.085938 14.160156 L 65.082031 14.160156 L 63.03125 17.6875 Z M 67.71875 15.867188 L 67.574219 15.761719 L 66.417969 17.496094 Z M 30.167969 15.609375 L 31.195312 17.375 Z M 62.816406 15.230469 L 61.902344 17.054688 Z M 30.503906 13.113281 L 30.503906 13.117188 L 32.335938 16.769531 Z M 66.542969 15.074219 L 66.292969 14.902344 L 65.25 16.6875 Z M 61.574219 14.535156 L 62.457031 12.761719 L 61.574219 14.535156 L 62.351562 12.714844 L 61.546875 14.589844 L 60.632812 16.414062 L 60.742188 16.46875 Z M 33.601562 16.15625 L 32.691406 14.324219 Z M 61.058594 12.128906 L 61.035156 12.121094 L 59.449219 15.882812 Z M 34.777344 15.652344 L 33.945312 13.652344 L 33.253906 11.859375 L 33.941406 13.648438 L 33.203125 11.878906 L 33.984375 13.761719 L 34.71875 15.671875 Z M 29.253906 13.78125 L 29.136719 13.847656 L 30.191406 15.65625 Z M 58.960938 13.40625 L 59.71875 11.585938 L 58.960938 13.40625 L 59.621094 11.546875 L 58.933594 13.46875 L 58.148438 15.351562 L 58.25 15.394531 Z M 63.847656 13.46875 L 63.726562 13.402344 L 62.789062 15.277344 Z M 35.339844 13.332031 L 36.046875 15.167969 L 35.316406 13.257812 L 34.671875 11.320312 L 34.582031 11.355469 L 35.339844 13.332031 L 35.960938 15.195312 Z M 57.597656 12.996094 L 58.28125 11.074219 L 58.238281 11.058594 L 57.542969 13.152344 L 56.910156 14.921875 L 57.542969 13.152344 L 56.945312 14.933594 Z M 36.058594 10.855469 L 36.054688 10.855469 L 37.261719 14.761719 Z M 56.265625 12.472656 L 56.796875 10.609375 L 56.265625 12.472656 L 56.734375 10.59375 L 56.238281 12.574219 L 55.675781 14.539062 L 55.746094 14.558594 Z M 38.023438 12.414062 L 38.621094 14.367188 Z M 31.960938 12.421875 L 31.777344 12.5 L 32.707031 14.363281 Z M 54.871094 12.214844 L 54.4375 14.210938 Z M 39.402344 12.078125 L 39.855469 14.070312 Z M 53.496094 11.835938 L 53.90625 9.914062 L 53.496094 11.835938 L 53.820312 9.894531 L 53.480469 11.910156 L 53.054688 13.90625 L 53.148438 13.925781 Z M 41.21875 13.796875 L 40.777344 11.738281 L 40.476562 9.777344 L 40.777344 11.738281 L 40.363281 9.800781 L 40.785156 11.796875 L 41.097656 13.816406 Z M 51.792969 13.683594 L 52.085938 11.664062 Z M 42.503906 13.59375 L 42.144531 11.273438 L 41.898438 9.554688 L 42.140625 11.253906 L 41.878906 9.558594 L 42.183594 11.550781 L 42.476562 13.597656 Z M 50.6875 11.421875 L 50.964844 9.457031 L 50.6875 11.421875 L 50.851562 9.441406 L 50.675781 11.476562 L 50.390625 13.5 L 50.511719 13.515625 Z M 43.910156 13.433594 L 43.59375 11.371094 L 43.453125 9.378906 L 43.59375 11.371094 L 43.289062 9.398438 L 43.597656 11.414062 L 43.742188 13.453125 Z M 49.269531 11.347656 L 49.121094 13.386719 Z M 45.15625 13.347656 L 45.015625 11.3125 Z M 47.851562 11.277344 L 48.023438 9.242188 L 47.847656 9.238281 L 47.847656 11.320312 L 47.683594 13.3125 L 47.847656 11.320312 L 47.847656 13.320312 Z M 46.433594 9.222656 L 46.429688 9.222656 L 46.433594 13.308594 Z M 37.59375 10.414062 L 37.417969 10.460938 L 38.03125 12.453125 Z M 38.972656 10.078125 L 38.9375 10.089844 L 39.445312 12.292969 Z M 55.515625 10.277344 L 55.292969 10.21875 L 54.859375 12.246094 Z M 52.421875 9.648438 L 52.371094 9.640625 L 52.0625 11.808594 Z M 49.4375 9.3125 L 49.410156 9.3125 L 49.246094 11.636719 Z M 45.015625 9.269531 L 44.867188 9.277344 L 45.015625 11.363281 Z M 45.015625 9.269531 " fill-opacity="1" fill-rule="nonzero"/></g><g clip-path="url(#c1553769a1)"><path fill="#edf2fa" d="M 35.855469 65.945312 L 32.5 67.882812 L 30.667969 68.9375 L 31.964844 69.683594 L 34.320312 71.050781 L 41.023438 74.921875 L 46.210938 77.910156 L 74.71875 61.453125 L 74.71875 28.539062 L 67.078125 24.128906 L 66.941406 24.054688 C 60.890625 27.546875 54.851562 31.03125 48.800781 34.523438 L 48.800781 52.476562 L 50.09375 51.730469 L 52.882812 50.121094 L 53.976562 49.488281 L 56.820312 47.847656 L 59.175781 46.5 L 59.175781 52.488281 L 50.410156 57.550781 L 46.222656 59.96875 L 41.042969 62.957031 L 46.230469 65.945312 L 64.375 55.476562 L 64.375 37.523438 C 61.1875 39.367188 57.996094 41.207031 54.808594 43.046875 L 54.007812 43.511719 L 54.007812 37.535156 C 58.324219 35.039062 62.648438 32.546875 66.964844 30.050781 L 69.550781 31.546875 L 69.550781 58.484375 L 46.230469 71.957031 L 41.042969 68.96875 L 38.128906 67.285156 Z M 35.855469 65.945312 " fill-opacity="1" fill-rule="evenodd"/></g><g clip-path="url(#77292faf33)"><path fill="#ffffff" d="M 56.585938 24.054688 L 59.945312 22.117188 L 61.773438 21.066406 L 60.480469 20.320312 L 58.125 18.949219 L 51.421875 15.078125 L 46.222656 12.089844 L 17.714844 28.546875 L 17.714844 61.464844 L 25.355469 65.875 L 25.492188 65.945312 C 31.542969 62.453125 37.582031 58.96875 43.632812 55.476562 L 43.632812 37.535156 L 42.339844 38.28125 L 39.550781 39.890625 L 38.457031 40.523438 L 33.277344 43.511719 L 33.277344 37.523438 L 42.042969 32.460938 L 46.230469 30.042969 L 51.421875 27.054688 L 46.230469 24.066406 L 28.078125 34.535156 L 28.078125 52.488281 C 31.269531 50.644531 34.457031 48.804688 37.644531 46.964844 L 38.445312 46.5 L 38.445312 52.476562 C 34.128906 54.972656 29.804688 57.464844 25.492188 59.960938 L 22.902344 58.464844 L 22.902344 31.527344 L 46.222656 18.054688 L 51.410156 21.042969 L 54.324219 22.726562 Z M 56.585938 24.054688 " fill-opacity="1" fill-rule="evenodd"/></g></g></g><g transform="matrix(1, 0, 0, 1, 114, 29)"><g clip-path="url(#715fd2ee80)"><g fill="#ffffff" fill-opacity="1"><g transform="translate(0.861753, 43.881296)"><g><path d="M 20.78125 -25.5 C 20.5625 -25.15625 20.332031 -24.894531 20.09375 -24.71875 C 19.851562 -24.539062 19.539062 -24.453125 19.15625 -24.453125 C 18.820312 -24.453125 18.457031 -24.554688 18.0625 -24.765625 C 17.675781 -24.984375 17.238281 -25.222656 16.75 -25.484375 C 16.257812 -25.742188 15.695312 -25.976562 15.0625 -26.1875 C 14.4375 -26.40625 13.722656 -26.515625 12.921875 -26.515625 C 11.523438 -26.515625 10.484375 -26.21875 9.796875 -25.625 C 9.117188 -25.03125 8.78125 -24.226562 8.78125 -23.21875 C 8.78125 -22.570312 8.984375 -22.035156 9.390625 -21.609375 C 9.804688 -21.191406 10.347656 -20.828125 11.015625 -20.515625 C 11.679688 -20.210938 12.441406 -19.929688 13.296875 -19.671875 C 14.160156 -19.410156 15.035156 -19.125 15.921875 -18.8125 C 16.816406 -18.5 17.691406 -18.128906 18.546875 -17.703125 C 19.410156 -17.273438 20.175781 -16.734375 20.84375 -16.078125 C 21.507812 -15.421875 22.046875 -14.617188 22.453125 -13.671875 C 22.859375 -12.734375 23.0625 -11.597656 23.0625 -10.265625 C 23.0625 -8.785156 22.804688 -7.398438 22.296875 -6.109375 C 21.785156 -4.816406 21.039062 -3.691406 20.0625 -2.734375 C 19.09375 -1.773438 17.894531 -1.019531 16.46875 -0.46875 C 15.039062 0.0703125 13.414062 0.34375 11.59375 0.34375 C 10.601562 0.34375 9.59375 0.238281 8.5625 0.03125 C 7.53125 -0.164062 6.53125 -0.453125 5.5625 -0.828125 C 4.59375 -1.203125 3.679688 -1.644531 2.828125 -2.15625 C 1.984375 -2.664062 1.242188 -3.234375 0.609375 -3.859375 L 2.8125 -7.34375 C 2.988281 -7.59375 3.21875 -7.800781 3.5 -7.96875 C 3.789062 -8.132812 4.101562 -8.21875 4.4375 -8.21875 C 4.875 -8.21875 5.316406 -8.078125 5.765625 -7.796875 C 6.210938 -7.515625 6.71875 -7.207031 7.28125 -6.875 C 7.84375 -6.539062 8.488281 -6.234375 9.21875 -5.953125 C 9.957031 -5.671875 10.820312 -5.53125 11.8125 -5.53125 C 13.164062 -5.53125 14.210938 -5.828125 14.953125 -6.421875 C 15.703125 -7.015625 16.078125 -7.957031 16.078125 -9.25 C 16.078125 -10 15.867188 -10.609375 15.453125 -11.078125 C 15.046875 -11.546875 14.507812 -11.929688 13.84375 -12.234375 C 13.1875 -12.546875 12.429688 -12.816406 11.578125 -13.046875 C 10.722656 -13.285156 9.847656 -13.546875 8.953125 -13.828125 C 8.066406 -14.109375 7.195312 -14.457031 6.34375 -14.875 C 5.5 -15.300781 4.742188 -15.851562 4.078125 -16.53125 C 3.410156 -17.207031 2.867188 -18.054688 2.453125 -19.078125 C 2.046875 -20.097656 1.84375 -21.351562 1.84375 -22.84375 C 1.84375 -24.050781 2.082031 -25.222656 2.5625 -26.359375 C 3.050781 -27.503906 3.765625 -28.519531 4.703125 -29.40625 C 5.640625 -30.300781 6.785156 -31.015625 8.140625 -31.546875 C 9.503906 -32.085938 11.066406 -32.359375 12.828125 -32.359375 C 13.804688 -32.359375 14.757812 -32.28125 15.6875 -32.125 C 16.625 -31.976562 17.507812 -31.753906 18.34375 -31.453125 C 19.175781 -31.148438 19.953125 -30.789062 20.671875 -30.375 C 21.398438 -29.957031 22.050781 -29.484375 22.625 -28.953125 Z M 20.78125 -25.5 "/></g></g></g><g fill="#ffffff" fill-opacity="1"><g transform="translate(25.199698, 43.881296)"><g><path d="M 10.5625 -26.296875 L 10.5625 -18.828125 L 20.625 -18.828125 L 20.625 -13.328125 L 10.5625 -13.328125 L 10.5625 -5.71875 L 23.703125 -5.71875 L 23.703125 0 L 3.09375 0 L 3.09375 -32.015625 L 23.703125 -32.015625 L 23.703125 -26.296875 Z M 10.5625 -26.296875 "/></g></g></g><g fill="#ffffff" fill-opacity="1"><g transform="translate(50.37234, 43.881296)"><g><path d="M 31.046875 -32.015625 L 31.046875 0 L 27.171875 0 C 26.597656 0 26.117188 -0.0859375 25.734375 -0.265625 C 25.347656 -0.453125 24.960938 -0.773438 24.578125 -1.234375 L 9.484375 -20.328125 C 9.546875 -19.753906 9.585938 -19.195312 9.609375 -18.65625 C 9.628906 -18.125 9.640625 -17.625 9.640625 -17.15625 L 9.640625 0 L 3.09375 0 L 3.09375 -32.015625 L 7.015625 -32.015625 C 7.328125 -32.015625 7.59375 -32 7.8125 -31.96875 C 8.039062 -31.9375 8.238281 -31.878906 8.40625 -31.796875 C 8.582031 -31.710938 8.75 -31.597656 8.90625 -31.453125 C 9.070312 -31.304688 9.257812 -31.109375 9.46875 -30.859375 L 24.6875 -11.640625 C 24.613281 -12.253906 24.5625 -12.847656 24.53125 -13.421875 C 24.507812 -14.003906 24.5 -14.554688 24.5 -15.078125 L 24.5 -32.015625 Z M 31.046875 -32.015625 "/></g></g></g><g fill="#ffffff" fill-opacity="1"><g transform="translate(84.50697, 43.881296)"><g><path d="M 32.140625 -16.015625 C 32.140625 -13.703125 31.738281 -11.566406 30.9375 -9.609375 C 30.144531 -7.648438 29.019531 -5.957031 27.5625 -4.53125 C 26.113281 -3.101562 24.367188 -1.988281 22.328125 -1.1875 C 20.285156 -0.394531 18.019531 0 15.53125 0 L 3.09375 0 L 3.09375 -32.015625 L 15.53125 -32.015625 C 18.019531 -32.015625 20.285156 -31.609375 22.328125 -30.796875 C 24.367188 -29.992188 26.113281 -28.878906 27.5625 -27.453125 C 29.019531 -26.035156 30.144531 -24.347656 30.9375 -22.390625 C 31.738281 -20.441406 32.140625 -18.316406 32.140625 -16.015625 Z M 24.546875 -16.015625 C 24.546875 -17.597656 24.335938 -19.023438 23.921875 -20.296875 C 23.515625 -21.566406 22.925781 -22.644531 22.15625 -23.53125 C 21.382812 -24.425781 20.441406 -25.109375 19.328125 -25.578125 C 18.210938 -26.054688 16.945312 -26.296875 15.53125 -26.296875 L 10.5625 -26.296875 L 10.5625 -5.71875 L 15.53125 -5.71875 C 16.945312 -5.71875 18.210938 -5.953125 19.328125 -6.421875 C 20.441406 -6.898438 21.382812 -7.582031 22.15625 -8.46875 C 22.925781 -9.351562 23.515625 -10.429688 23.921875 -11.703125 C 24.335938 -12.984375 24.546875 -14.421875 24.546875 -16.015625 Z M 24.546875 -16.015625 "/></g></g></g><g fill="#ffffff" fill-opacity="1"><g transform="translate(117.939884, 43.881296)"><g><path d="M 37.984375 -31.765625 L 37.984375 0 L 32.78125 0 L 32.78125 -20.515625 C 32.78125 -21.335938 32.820312 -22.222656 32.90625 -23.171875 L 23.3125 -5.140625 C 22.851562 -4.273438 22.15625 -3.84375 21.21875 -3.84375 L 20.390625 -3.84375 C 19.453125 -3.84375 18.753906 -4.273438 18.296875 -5.140625 L 8.59375 -23.25 C 8.632812 -22.757812 8.671875 -22.28125 8.703125 -21.8125 C 8.734375 -21.34375 8.75 -20.910156 8.75 -20.515625 L 8.75 0 L 3.53125 0 L 3.53125 -31.765625 L 8 -31.765625 C 8.257812 -31.765625 8.484375 -31.753906 8.671875 -31.734375 C 8.867188 -31.722656 9.039062 -31.6875 9.1875 -31.625 C 9.34375 -31.570312 9.484375 -31.476562 9.609375 -31.34375 C 9.734375 -31.21875 9.851562 -31.046875 9.96875 -30.828125 L 19.484375 -13.1875 C 19.734375 -12.71875 19.960938 -12.234375 20.171875 -11.734375 C 20.390625 -11.234375 20.597656 -10.71875 20.796875 -10.1875 C 21.003906 -10.726562 21.21875 -11.25 21.4375 -11.75 C 21.65625 -12.257812 21.890625 -12.75 22.140625 -13.21875 L 31.53125 -30.828125 C 31.644531 -31.046875 31.765625 -31.21875 31.890625 -31.34375 C 32.023438 -31.476562 32.171875 -31.570312 32.328125 -31.625 C 32.484375 -31.6875 32.65625 -31.722656 32.84375 -31.734375 C 33.03125 -31.753906 33.257812 -31.765625 33.53125 -31.765625 Z M 37.984375 -31.765625 "/></g></g></g><g fill="#ffffff" fill-opacity="1"><g transform="translate(159.45497, 43.881296)"><g><path d="M 16.328125 -4.765625 C 17.460938 -4.765625 18.476562 -4.953125 19.375 -5.328125 C 20.28125 -5.710938 21.039062 -6.25 21.65625 -6.9375 C 22.269531 -7.625 22.742188 -8.457031 23.078125 -9.4375 C 23.410156 -10.425781 23.578125 -11.523438 23.578125 -12.734375 L 23.578125 -31.765625 L 29.484375 -31.765625 L 29.484375 -12.734375 C 29.484375 -10.847656 29.175781 -9.101562 28.5625 -7.5 C 27.957031 -5.894531 27.085938 -4.507812 25.953125 -3.34375 C 24.816406 -2.1875 23.4375 -1.28125 21.8125 -0.625 C 20.1875 0.0195312 18.359375 0.34375 16.328125 0.34375 C 14.273438 0.34375 12.4375 0.0195312 10.8125 -0.625 C 9.1875 -1.28125 7.804688 -2.1875 6.671875 -3.34375 C 5.535156 -4.507812 4.660156 -5.894531 4.046875 -7.5 C 3.441406 -9.101562 3.140625 -10.847656 3.140625 -12.734375 L 3.140625 -31.765625 L 9.046875 -31.765625 L 9.046875 -12.765625 C 9.046875 -11.546875 9.210938 -10.445312 9.546875 -9.46875 C 9.878906 -8.488281 10.351562 -7.648438 10.96875 -6.953125 C 11.59375 -6.253906 12.351562 -5.710938 13.25 -5.328125 C 14.15625 -4.953125 15.179688 -4.765625 16.328125 -4.765625 Z M 16.328125 -4.765625 "/></g></g></g><g clip-path="url(#1cc5833098)"><g fill="#ffffff" fill-opacity="1"><g transform="translate(192.073966, 43.881296)"><g><path d="M 29.34375 0 L 23.46875 0 C 23.050781 0 22.722656 -0.0976562 22.484375 -0.296875 C 22.242188 -0.503906 22.050781 -0.742188 21.90625 -1.015625 L 14.546875 -13.203125 C 14.429688 -12.835938 14.289062 -12.523438 14.125 -12.265625 L 7.078125 -1.015625 C 6.898438 -0.765625 6.695312 -0.53125 6.46875 -0.3125 C 6.238281 -0.101562 5.941406 0 5.578125 0 L 0.0625 0 L 10.609375 -16.34375 L 0.484375 -31.765625 L 6.375 -31.765625 C 6.78125 -31.765625 7.070312 -31.707031 7.25 -31.59375 C 7.4375 -31.488281 7.613281 -31.3125 7.78125 -31.0625 L 15 -19.421875 C 15.144531 -19.785156 15.320312 -20.148438 15.53125 -20.515625 L 22.171875 -30.953125 C 22.328125 -31.234375 22.5 -31.4375 22.6875 -31.5625 C 22.882812 -31.695312 23.128906 -31.765625 23.421875 -31.765625 L 29.0625 -31.765625 L 18.84375 -16.59375 Z M 29.34375 0 "/></g></g></g></g></g></g></svg>